<?xml version="1.0" encoding="utf-8" standalone="no"?>
<!DOCTYPE svg PUBLIC "-//W3C//DTD SVG 1.1//EN"
  "http://www.w3.org/Graphics/SVG/1.1/DTD/svg11.dtd">
<!-- Created with matplotlib (http://matplotlib.org/) -->
<svg height="288pt" version="1.1" viewBox="0 0 360 288" width="360pt" xmlns="http://www.w3.org/2000/svg" xmlns:xlink="http://www.w3.org/1999/xlink">
 <defs>
  <style type="text/css">
*{stroke-linecap:butt;stroke-linejoin:round;}
  </style>
 </defs>
 <g id="figure_1">
  <g id="patch_1">
   <path d="M 0 288 
L 360 288 
L 360 0 
L 0 0 
z
" style="fill:#ffffff;"/>
  </g>
  <g id="axes_1">
   <g id="patch_2">
    <path d="M 54.894292 239.192 
L 344.52 239.192 
L 344.52 28.128 
L 54.894292 28.128 
z
" style="fill:#ffffff;"/>
   </g>
   <g id="matplotlib.axis_1">
    <g id="xtick_1">
     <g id="line2d_1">
      <defs>
       <path d="M 0 0 
L 0 3.5 
" id="m5ec7c1b700" style="stroke:#000000;stroke-width:0.8;"/>
      </defs>
      <g>
       <use style="fill-opacity:0;stroke:#000000;stroke-width:0.8;" x="62.086445" xlink:href="#m5ec7c1b700" y="239.192"/>
      </g>
     </g>
     <g id="text_1">
      <!-- $\mathdefault{0.0}$ -->
      <defs>
       <path d="M 31.78125 66.40625 
Q 24.171875 66.40625 20.328125 58.90625 
Q 16.5 51.421875 16.5 36.375 
Q 16.5 21.390625 20.328125 13.890625 
Q 24.171875 6.390625 31.78125 6.390625 
Q 39.453125 6.390625 43.28125 13.890625 
Q 47.125 21.390625 47.125 36.375 
Q 47.125 51.421875 43.28125 58.90625 
Q 39.453125 66.40625 31.78125 66.40625 
z
M 31.78125 74.21875 
Q 44.046875 74.21875 50.515625 64.515625 
Q 56.984375 54.828125 56.984375 36.375 
Q 56.984375 17.96875 50.515625 8.265625 
Q 44.046875 -1.421875 31.78125 -1.421875 
Q 19.53125 -1.421875 13.0625 8.265625 
Q 6.59375 17.96875 6.59375 36.375 
Q 6.59375 54.828125 13.0625 64.515625 
Q 19.53125 74.21875 31.78125 74.21875 
z
" id="DejaVuSans-30"/>
       <path d="M 10.6875 12.40625 
L 21 12.40625 
L 21 0 
L 10.6875 0 
z
" id="DejaVuSans-2e"/>
      </defs>
      <g transform="translate(52.486445 255.310125)scale(0.12 -0.12)">
       <use transform="translate(0 0.78125)" xlink:href="#DejaVuSans-30"/>
       <use transform="translate(63.623047 0.78125)" xlink:href="#DejaVuSans-2e"/>
       <use transform="translate(95.410156 0.78125)" xlink:href="#DejaVuSans-30"/>
      </g>
     </g>
    </g>
    <g id="xtick_2">
     <g id="line2d_2">
      <g>
       <use style="fill-opacity:0;stroke:#000000;stroke-width:0.8;" x="103.493686" xlink:href="#m5ec7c1b700" y="239.192"/>
      </g>
     </g>
     <g id="text_2">
      <!-- $\mathdefault{0.2}$ -->
      <defs>
       <path d="M 19.1875 8.296875 
L 53.609375 8.296875 
L 53.609375 0 
L 7.328125 0 
L 7.328125 8.296875 
Q 12.9375 14.109375 22.625 23.890625 
Q 32.328125 33.6875 34.8125 36.53125 
Q 39.546875 41.84375 41.421875 45.53125 
Q 43.3125 49.21875 43.3125 52.78125 
Q 43.3125 58.59375 39.234375 62.25 
Q 35.15625 65.921875 28.609375 65.921875 
Q 23.96875 65.921875 18.8125 64.3125 
Q 13.671875 62.703125 7.8125 59.421875 
L 7.8125 69.390625 
Q 13.765625 71.78125 18.9375 73 
Q 24.125 74.21875 28.421875 74.21875 
Q 39.75 74.21875 46.484375 68.546875 
Q 53.21875 62.890625 53.21875 53.421875 
Q 53.21875 48.921875 51.53125 44.890625 
Q 49.859375 40.875 45.40625 35.40625 
Q 44.1875 33.984375 37.640625 27.21875 
Q 31.109375 20.453125 19.1875 8.296875 
z
" id="DejaVuSans-32"/>
      </defs>
      <g transform="translate(93.953686 255.310125)scale(0.12 -0.12)">
       <use transform="translate(0 0.78125)" xlink:href="#DejaVuSans-30"/>
       <use transform="translate(63.623047 0.78125)" xlink:href="#DejaVuSans-2e"/>
       <use transform="translate(95.332031 0.78125)" xlink:href="#DejaVuSans-32"/>
      </g>
     </g>
    </g>
    <g id="xtick_3">
     <g id="line2d_3">
      <g>
       <use style="fill-opacity:0;stroke:#000000;stroke-width:0.8;" x="144.900928" xlink:href="#m5ec7c1b700" y="239.192"/>
      </g>
     </g>
     <g id="text_3">
      <!-- $\mathdefault{0.4}$ -->
      <defs>
       <path d="M 37.796875 64.3125 
L 12.890625 25.390625 
L 37.796875 25.390625 
z
M 35.203125 72.90625 
L 47.609375 72.90625 
L 47.609375 25.390625 
L 58.015625 25.390625 
L 58.015625 17.1875 
L 47.609375 17.1875 
L 47.609375 0 
L 37.796875 0 
L 37.796875 17.1875 
L 4.890625 17.1875 
L 4.890625 26.703125 
z
" id="DejaVuSans-34"/>
      </defs>
      <g transform="translate(135.300928 255.310125)scale(0.12 -0.12)">
       <use transform="translate(0 0.78125)" xlink:href="#DejaVuSans-30"/>
       <use transform="translate(63.623047 0.78125)" xlink:href="#DejaVuSans-2e"/>
       <use transform="translate(95.410156 0.78125)" xlink:href="#DejaVuSans-34"/>
      </g>
     </g>
    </g>
    <g id="xtick_4">
     <g id="line2d_4">
      <g>
       <use style="fill-opacity:0;stroke:#000000;stroke-width:0.8;" x="186.30817" xlink:href="#m5ec7c1b700" y="239.192"/>
      </g>
     </g>
     <g id="text_4">
      <!-- $\mathdefault{0.6}$ -->
      <defs>
       <path d="M 33.015625 40.375 
Q 26.375 40.375 22.484375 35.828125 
Q 18.609375 31.296875 18.609375 23.390625 
Q 18.609375 15.53125 22.484375 10.953125 
Q 26.375 6.390625 33.015625 6.390625 
Q 39.65625 6.390625 43.53125 10.953125 
Q 47.40625 15.53125 47.40625 23.390625 
Q 47.40625 31.296875 43.53125 35.828125 
Q 39.65625 40.375 33.015625 40.375 
z
M 52.59375 71.296875 
L 52.59375 62.3125 
Q 48.875 64.0625 45.09375 64.984375 
Q 41.3125 65.921875 37.59375 65.921875 
Q 27.828125 65.921875 22.671875 59.328125 
Q 17.53125 52.734375 16.796875 39.40625 
Q 19.671875 43.65625 24.015625 45.921875 
Q 28.375 48.1875 33.59375 48.1875 
Q 44.578125 48.1875 50.953125 41.515625 
Q 57.328125 34.859375 57.328125 23.390625 
Q 57.328125 12.15625 50.6875 5.359375 
Q 44.046875 -1.421875 33.015625 -1.421875 
Q 20.359375 -1.421875 13.671875 8.265625 
Q 6.984375 17.96875 6.984375 36.375 
Q 6.984375 53.65625 15.1875 63.9375 
Q 23.390625 74.21875 37.203125 74.21875 
Q 40.921875 74.21875 44.703125 73.484375 
Q 48.484375 72.75 52.59375 71.296875 
z
" id="DejaVuSans-36"/>
      </defs>
      <g transform="translate(176.70817 255.310125)scale(0.12 -0.12)">
       <use transform="translate(0 0.78125)" xlink:href="#DejaVuSans-30"/>
       <use transform="translate(63.623047 0.78125)" xlink:href="#DejaVuSans-2e"/>
       <use transform="translate(95.410156 0.78125)" xlink:href="#DejaVuSans-36"/>
      </g>
     </g>
    </g>
    <g id="xtick_5">
     <g id="line2d_5">
      <g>
       <use style="fill-opacity:0;stroke:#000000;stroke-width:0.8;" x="227.715411" xlink:href="#m5ec7c1b700" y="239.192"/>
      </g>
     </g>
     <g id="text_5">
      <!-- $\mathdefault{0.8}$ -->
      <defs>
       <path d="M 31.78125 34.625 
Q 24.75 34.625 20.71875 30.859375 
Q 16.703125 27.09375 16.703125 20.515625 
Q 16.703125 13.921875 20.71875 10.15625 
Q 24.75 6.390625 31.78125 6.390625 
Q 38.8125 6.390625 42.859375 10.171875 
Q 46.921875 13.96875 46.921875 20.515625 
Q 46.921875 27.09375 42.890625 30.859375 
Q 38.875 34.625 31.78125 34.625 
z
M 21.921875 38.8125 
Q 15.578125 40.375 12.03125 44.71875 
Q 8.5 49.078125 8.5 55.328125 
Q 8.5 64.0625 14.71875 69.140625 
Q 20.953125 74.21875 31.78125 74.21875 
Q 42.671875 74.21875 48.875 69.140625 
Q 55.078125 64.0625 55.078125 55.328125 
Q 55.078125 49.078125 51.53125 44.71875 
Q 48 40.375 41.703125 38.8125 
Q 48.828125 37.15625 52.796875 32.3125 
Q 56.78125 27.484375 56.78125 20.515625 
Q 56.78125 9.90625 50.3125 4.234375 
Q 43.84375 -1.421875 31.78125 -1.421875 
Q 19.734375 -1.421875 13.25 4.234375 
Q 6.78125 9.90625 6.78125 20.515625 
Q 6.78125 27.484375 10.78125 32.3125 
Q 14.796875 37.15625 21.921875 38.8125 
z
M 18.3125 54.390625 
Q 18.3125 48.734375 21.84375 45.5625 
Q 25.390625 42.390625 31.78125 42.390625 
Q 38.140625 42.390625 41.71875 45.5625 
Q 45.3125 48.734375 45.3125 54.390625 
Q 45.3125 60.0625 41.71875 63.234375 
Q 38.140625 66.40625 31.78125 66.40625 
Q 25.390625 66.40625 21.84375 63.234375 
Q 18.3125 60.0625 18.3125 54.390625 
z
" id="DejaVuSans-38"/>
      </defs>
      <g transform="translate(218.115411 255.310125)scale(0.12 -0.12)">
       <use transform="translate(0 0.78125)" xlink:href="#DejaVuSans-30"/>
       <use transform="translate(63.623047 0.78125)" xlink:href="#DejaVuSans-2e"/>
       <use transform="translate(95.378906 0.78125)" xlink:href="#DejaVuSans-38"/>
      </g>
     </g>
    </g>
    <g id="xtick_6">
     <g id="line2d_6">
      <g>
       <use style="fill-opacity:0;stroke:#000000;stroke-width:0.8;" x="269.122653" xlink:href="#m5ec7c1b700" y="239.192"/>
      </g>
     </g>
     <g id="text_6">
      <!-- $\mathdefault{1.0}$ -->
      <defs>
       <path d="M 12.40625 8.296875 
L 28.515625 8.296875 
L 28.515625 63.921875 
L 10.984375 60.40625 
L 10.984375 69.390625 
L 28.421875 72.90625 
L 38.28125 72.90625 
L 38.28125 8.296875 
L 54.390625 8.296875 
L 54.390625 0 
L 12.40625 0 
z
" id="DejaVuSans-31"/>
      </defs>
      <g transform="translate(259.522653 255.310125)scale(0.12 -0.12)">
       <use transform="translate(0 0.78125)" xlink:href="#DejaVuSans-31"/>
       <use transform="translate(63.623047 0.78125)" xlink:href="#DejaVuSans-2e"/>
       <use transform="translate(95.410156 0.78125)" xlink:href="#DejaVuSans-30"/>
      </g>
     </g>
    </g>
    <g id="xtick_7">
     <g id="line2d_7">
      <g>
       <use style="fill-opacity:0;stroke:#000000;stroke-width:0.8;" x="310.529895" xlink:href="#m5ec7c1b700" y="239.192"/>
      </g>
     </g>
     <g id="text_7">
      <!-- $\mathdefault{1.2}$ -->
      <g transform="translate(300.989895 255.310125)scale(0.12 -0.12)">
       <use transform="translate(0 0.78125)" xlink:href="#DejaVuSans-31"/>
       <use transform="translate(63.623047 0.78125)" xlink:href="#DejaVuSans-2e"/>
       <use transform="translate(95.332031 0.78125)" xlink:href="#DejaVuSans-32"/>
      </g>
     </g>
    </g>
    <g id="text_8">
     <!-- Z' $(\Omega)$ -->
     <defs>
      <path d="M 5.609375 72.90625 
L 62.890625 72.90625 
L 62.890625 65.375 
L 16.796875 8.296875 
L 64.015625 8.296875 
L 64.015625 0 
L 4.5 0 
L 4.5 7.515625 
L 50.59375 64.59375 
L 5.609375 64.59375 
z
" id="DejaVuSans-5a"/>
      <path d="M 17.921875 72.90625 
L 17.921875 45.796875 
L 9.625 45.796875 
L 9.625 72.90625 
z
" id="DejaVuSans-27"/>
      <path id="DejaVuSans-20"/>
      <path d="M 31 75.875 
Q 24.46875 64.65625 21.28125 53.65625 
Q 18.109375 42.671875 18.109375 31.390625 
Q 18.109375 20.125 21.3125 9.0625 
Q 24.515625 -2 31 -13.1875 
L 23.1875 -13.1875 
Q 15.875 -1.703125 12.234375 9.375 
Q 8.59375 20.453125 8.59375 31.390625 
Q 8.59375 42.28125 12.203125 53.3125 
Q 15.828125 64.359375 23.1875 75.875 
z
" id="DejaVuSans-28"/>
      <path d="M 72.609375 8.6875 
L 72.609375 0 
L 43.3125 0 
L 43.3125 8.6875 
Q 51.953125 13.421875 56.78125 21.53125 
Q 61.625 29.640625 61.625 39.5 
Q 61.625 51.21875 55.171875 58.296875 
Q 48.734375 65.375 38.1875 65.375 
Q 27.640625 65.375 21.171875 58.265625 
Q 14.703125 51.171875 14.703125 39.5 
Q 14.703125 29.640625 19.53125 21.53125 
Q 24.421875 13.421875 33.109375 8.6875 
L 33.109375 0 
L 3.8125 0 
L 3.8125 8.6875 
L 19.390625 8.6875 
Q 11.671875 15.484375 8.109375 22.75 
Q 4.59375 30.03125 4.59375 39.015625 
Q 4.59375 54.546875 13.96875 64.15625 
Q 23.296875 73.78125 38.1875 73.78125 
Q 52.984375 73.78125 62.40625 64.15625 
Q 71.78125 54.59375 71.78125 39.5 
Q 71.78125 30.03125 68.3125 22.796875 
Q 64.84375 15.578125 56.984375 8.6875 
z
" id="DejaVuSans-3a9"/>
      <path d="M 8.015625 75.875 
L 15.828125 75.875 
Q 23.140625 64.359375 26.78125 53.3125 
Q 30.421875 42.28125 30.421875 31.390625 
Q 30.421875 20.453125 26.78125 9.375 
Q 23.140625 -1.703125 15.828125 -13.1875 
L 8.015625 -13.1875 
Q 14.5 -2 17.703125 9.0625 
Q 20.90625 20.125 20.90625 31.390625 
Q 20.90625 42.671875 17.703125 53.65625 
Q 14.5 64.65625 8.015625 75.875 
z
" id="DejaVuSans-29"/>
     </defs>
     <g transform="translate(182.727146 270.923875)scale(0.12 -0.12)">
      <use transform="translate(0 0.125)" xlink:href="#DejaVuSans-5a"/>
      <use transform="translate(68.505859 0.125)" xlink:href="#DejaVuSans-27"/>
      <use transform="translate(95.996094 0.125)" xlink:href="#DejaVuSans-20"/>
      <use transform="translate(127.783203 0.125)" xlink:href="#DejaVuSans-28"/>
      <use transform="translate(166.796875 0.125)" xlink:href="#DejaVuSans-3a9"/>
      <use transform="translate(243.212891 0.125)" xlink:href="#DejaVuSans-29"/>
     </g>
    </g>
    <g id="text_9">
     <!-- $\times\mathdefault{10^{5}}\mathdefault{}$ -->
     <defs>
      <path d="M 70.125 53.71875 
L 47.796875 31.296875 
L 70.125 8.984375 
L 64.3125 3.078125 
L 41.890625 25.484375 
L 19.484375 3.078125 
L 13.71875 8.984375 
L 35.984375 31.296875 
L 13.71875 53.71875 
L 19.484375 59.625 
L 41.890625 37.203125 
L 64.3125 59.625 
z
" id="DejaVuSans-d7"/>
      <path d="M 10.796875 72.90625 
L 49.515625 72.90625 
L 49.515625 64.59375 
L 19.828125 64.59375 
L 19.828125 46.734375 
Q 21.96875 47.46875 24.109375 47.828125 
Q 26.265625 48.1875 28.421875 48.1875 
Q 40.625 48.1875 47.75 41.5 
Q 54.890625 34.8125 54.890625 23.390625 
Q 54.890625 11.625 47.5625 5.09375 
Q 40.234375 -1.421875 26.90625 -1.421875 
Q 22.3125 -1.421875 17.546875 -0.640625 
Q 12.796875 0.140625 7.71875 1.703125 
L 7.71875 11.625 
Q 12.109375 9.234375 16.796875 8.0625 
Q 21.484375 6.890625 26.703125 6.890625 
Q 35.15625 6.890625 40.078125 11.328125 
Q 45.015625 15.765625 45.015625 23.390625 
Q 45.015625 31 40.078125 35.4375 
Q 35.15625 39.890625 26.703125 39.890625 
Q 22.75 39.890625 18.8125 39.015625 
Q 14.890625 38.140625 10.796875 36.28125 
z
" id="DejaVuSans-35"/>
     </defs>
     <g transform="translate(313.32 269.923875)scale(0.12 -0.12)">
      <use transform="translate(0 0.684375)" xlink:href="#DejaVuSans-d7"/>
      <use transform="translate(83.789062 0.684375)" xlink:href="#DejaVuSans-31"/>
      <use transform="translate(147.412109 0.684375)" xlink:href="#DejaVuSans-30"/>
      <use transform="translate(211.992188 38.965625)scale(0.7)" xlink:href="#DejaVuSans-35"/>
     </g>
    </g>
   </g>
   <g id="matplotlib.axis_2">
    <g id="ytick_1">
     <g id="line2d_8">
      <defs>
       <path d="M 0 0 
L -3.5 0 
" id="m6577202b1d" style="stroke:#000000;stroke-width:0.8;"/>
      </defs>
      <g>
       <use style="fill-opacity:0;stroke:#000000;stroke-width:0.8;" x="54.894292" xlink:href="#m6577202b1d" y="205.423438"/>
      </g>
     </g>
     <g id="text_10">
      <!-- $\mathdefault{−2}$ -->
      <defs>
       <path d="M 10.59375 35.5 
L 73.1875 35.5 
L 73.1875 27.203125 
L 10.59375 27.203125 
z
" id="DejaVuSans-2212"/>
      </defs>
      <g transform="translate(30.134292 209.982501)scale(0.12 -0.12)">
       <use transform="translate(0 0.78125)" xlink:href="#DejaVuSans-2212"/>
       <use transform="translate(83.789062 0.78125)" xlink:href="#DejaVuSans-32"/>
      </g>
     </g>
    </g>
    <g id="ytick_2">
     <g id="line2d_9">
      <g>
       <use style="fill-opacity:0;stroke:#000000;stroke-width:0.8;" x="54.894292" xlink:href="#m6577202b1d" y="164.016197"/>
      </g>
     </g>
     <g id="text_11">
      <!-- $\mathdefault{0}$ -->
      <g transform="translate(40.214292 168.575259)scale(0.12 -0.12)">
       <use transform="translate(0 0.78125)" xlink:href="#DejaVuSans-30"/>
      </g>
     </g>
    </g>
    <g id="ytick_3">
     <g id="line2d_10">
      <g>
       <use style="fill-opacity:0;stroke:#000000;stroke-width:0.8;" x="54.894292" xlink:href="#m6577202b1d" y="122.608955"/>
      </g>
     </g>
     <g id="text_12">
      <!-- $\mathdefault{2}$ -->
      <g transform="translate(40.214292 127.168018)scale(0.12 -0.12)">
       <use transform="translate(0 0.78125)" xlink:href="#DejaVuSans-32"/>
      </g>
     </g>
    </g>
    <g id="ytick_4">
     <g id="line2d_11">
      <g>
       <use style="fill-opacity:0;stroke:#000000;stroke-width:0.8;" x="54.894292" xlink:href="#m6577202b1d" y="81.201713"/>
      </g>
     </g>
     <g id="text_13">
      <!-- $\mathdefault{4}$ -->
      <g transform="translate(40.214292 85.760776)scale(0.12 -0.12)">
       <use transform="translate(0 0.09375)" xlink:href="#DejaVuSans-34"/>
      </g>
     </g>
    </g>
    <g id="ytick_5">
     <g id="line2d_12">
      <g>
       <use style="fill-opacity:0;stroke:#000000;stroke-width:0.8;" x="54.894292" xlink:href="#m6577202b1d" y="39.794472"/>
      </g>
     </g>
     <g id="text_14">
      <!-- $\mathdefault{6}$ -->
      <g transform="translate(40.214292 44.353534)scale(0.12 -0.12)">
       <use transform="translate(0 0.78125)" xlink:href="#DejaVuSans-36"/>
      </g>
     </g>
    </g>
    <g id="text_15">
     <!-- -Z'' $(\Omega)$ -->
     <defs>
      <path d="M 4.890625 31.390625 
L 31.203125 31.390625 
L 31.203125 23.390625 
L 4.890625 23.390625 
z
" id="DejaVuSans-2d"/>
     </defs>
     <g transform="translate(23.638667 154.42)rotate(-90)scale(0.12 -0.12)">
      <use transform="translate(0 0.125)" xlink:href="#DejaVuSans-2d"/>
      <use transform="translate(36.083984 0.125)" xlink:href="#DejaVuSans-5a"/>
      <use transform="translate(104.589844 0.125)" xlink:href="#DejaVuSans-27"/>
      <use transform="translate(132.080078 0.125)" xlink:href="#DejaVuSans-27"/>
      <use transform="translate(159.570312 0.125)" xlink:href="#DejaVuSans-20"/>
      <use transform="translate(191.357422 0.125)" xlink:href="#DejaVuSans-28"/>
      <use transform="translate(230.371094 0.125)" xlink:href="#DejaVuSans-3a9"/>
      <use transform="translate(306.787109 0.125)" xlink:href="#DejaVuSans-29"/>
     </g>
    </g>
    <g id="text_16">
     <!-- $\times\mathdefault{10^{4}}\mathdefault{}$ -->
     <g transform="translate(54.894292 25.128)scale(0.12 -0.12)">
      <use transform="translate(0 0.684375)" xlink:href="#DejaVuSans-d7"/>
      <use transform="translate(83.789062 0.684375)" xlink:href="#DejaVuSans-31"/>
      <use transform="translate(147.412109 0.684375)" xlink:href="#DejaVuSans-30"/>
      <use transform="translate(211.992188 38.965625)scale(0.7)" xlink:href="#DejaVuSans-34"/>
     </g>
    </g>
   </g>
   <g id="line2d_13">
    <defs>
     <path d="M 0 3 
C 0.795609 3 1.55874 2.683901 2.12132 2.12132 
C 2.683901 1.55874 3 0.795609 3 0 
C 3 -0.795609 2.683901 -1.55874 2.12132 -2.12132 
C 1.55874 -2.683901 0.795609 -3 0 -3 
C -0.795609 -3 -1.55874 -2.683901 -2.12132 -2.12132 
C -2.683901 -1.55874 -3 -0.795609 -3 0 
C -3 0.795609 -2.683901 1.55874 -2.12132 2.12132 
C -1.55874 2.683901 -0.795609 3 0 3 
z
" id="mce85de401f" style="stroke:#1f77b4;"/>
    </defs>
    <g clip-path="url(#pe0fbf2c989)">
     <use style="fill-opacity:0;stroke:#1f77b4;" x="62.128404" xlink:href="#mce85de401f" y="163.064235"/>
     <use style="fill-opacity:0;stroke:#1f77b4;" x="62.147402" xlink:href="#mce85de401f" y="162.685006"/>
     <use style="fill-opacity:0;stroke:#1f77b4;" x="62.227214" xlink:href="#mce85de401f" y="162.361781"/>
     <use style="fill-opacity:0;stroke:#1f77b4;" x="62.051461" xlink:href="#mce85de401f" y="162.134832"/>
     <use style="fill-opacity:0;stroke:#1f77b4;" x="62.119073" xlink:href="#mce85de401f" y="160.782041"/>
     <use style="fill-opacity:0;stroke:#1f77b4;" x="62.588423" xlink:href="#mce85de401f" y="160.116912"/>
     <use style="fill-opacity:0;stroke:#1f77b4;" x="62.690547" xlink:href="#mce85de401f" y="159.292691"/>
     <use style="fill-opacity:0;stroke:#1f77b4;" x="63.233492" xlink:href="#mce85de401f" y="158.09645"/>
     <use style="fill-opacity:0;stroke:#1f77b4;" x="63.843718" xlink:href="#mce85de401f" y="156.920734"/>
     <use style="fill-opacity:0;stroke:#1f77b4;" x="64.631843" xlink:href="#mce85de401f" y="155.462735"/>
     <use style="fill-opacity:0;stroke:#1f77b4;" x="66.034543" xlink:href="#mce85de401f" y="152.761089"/>
     <use style="fill-opacity:0;stroke:#1f77b4;" x="68.449117" xlink:href="#mce85de401f" y="149.687343"/>
     <use style="fill-opacity:0;stroke:#1f77b4;" x="70.383064" xlink:href="#mce85de401f" y="148.065541"/>
     <use style="fill-opacity:0;stroke:#1f77b4;" x="73.075563" xlink:href="#mce85de401f" y="146.179967"/>
     <use style="fill-opacity:0;stroke:#1f77b4;" x="77.899891" xlink:href="#mce85de401f" y="143.811248"/>
     <use style="fill-opacity:0;stroke:#1f77b4;" x="80.073051" xlink:href="#mce85de401f" y="143.108969"/>
     <use style="fill-opacity:0;stroke:#1f77b4;" x="87.297545" xlink:href="#mce85de401f" y="141.9951"/>
     <use style="fill-opacity:0;stroke:#1f77b4;" x="90.23695" xlink:href="#mce85de401f" y="142.3242"/>
     <use style="fill-opacity:0;stroke:#1f77b4;" x="92.990519" xlink:href="#mce85de401f" y="142.747201"/>
     <use style="fill-opacity:0;stroke:#1f77b4;" x="96.872955" xlink:href="#mce85de401f" y="143.791531"/>
     <use style="fill-opacity:0;stroke:#1f77b4;" x="100.298665" xlink:href="#mce85de401f" y="145.128949"/>
     <use style="fill-opacity:0;stroke:#1f77b4;" x="103.308106" xlink:href="#mce85de401f" y="146.49302"/>
     <use style="fill-opacity:0;stroke:#1f77b4;" x="106.02992" xlink:href="#mce85de401f" y="148.455016"/>
     <use style="fill-opacity:0;stroke:#1f77b4;" x="108.149191" xlink:href="#mce85de401f" y="149.981998"/>
     <use style="fill-opacity:0;stroke:#1f77b4;" x="109.981962" xlink:href="#mce85de401f" y="151.400954"/>
     <use style="fill-opacity:0;stroke:#1f77b4;" x="111.566024" xlink:href="#mce85de401f" y="152.824346"/>
     <use style="fill-opacity:0;stroke:#1f77b4;" x="112.920959" xlink:href="#mce85de401f" y="154.127048"/>
     <use style="fill-opacity:0;stroke:#1f77b4;" x="113.982852" xlink:href="#mce85de401f" y="155.249658"/>
     <use style="fill-opacity:0;stroke:#1f77b4;" x="114.908478" xlink:href="#mce85de401f" y="156.266814"/>
     <use style="fill-opacity:0;stroke:#1f77b4;" x="115.672009" xlink:href="#mce85de401f" y="157.003299"/>
     <use style="fill-opacity:0;stroke:#1f77b4;" x="116.438924" xlink:href="#mce85de401f" y="157.813686"/>
     <use style="fill-opacity:0;stroke:#1f77b4;" x="117.139224" xlink:href="#mce85de401f" y="158.496662"/>
     <use style="fill-opacity:0;stroke:#1f77b4;" x="117.702601" xlink:href="#mce85de401f" y="159.035939"/>
     <use style="fill-opacity:0;stroke:#1f77b4;" x="118.22246" xlink:href="#mce85de401f" y="159.513988"/>
     <use style="fill-opacity:0;stroke:#1f77b4;" x="118.662109" xlink:href="#mce85de401f" y="159.884075"/>
     <use style="fill-opacity:0;stroke:#1f77b4;" x="119.120844" xlink:href="#mce85de401f" y="160.235296"/>
     <use style="fill-opacity:0;stroke:#1f77b4;" x="119.548293" xlink:href="#mce85de401f" y="160.495374"/>
     <use style="fill-opacity:0;stroke:#1f77b4;" x="119.916449" xlink:href="#mce85de401f" y="160.765514"/>
     <use style="fill-opacity:0;stroke:#1f77b4;" x="120.343041" xlink:href="#mce85de401f" y="160.912875"/>
     <use style="fill-opacity:0;stroke:#1f77b4;" x="120.6892" xlink:href="#mce85de401f" y="161.126019"/>
     <use style="fill-opacity:0;stroke:#1f77b4;" x="121.0077" xlink:href="#mce85de401f" y="161.000201"/>
     <use style="fill-opacity:0;stroke:#1f77b4;" x="121.394732" xlink:href="#mce85de401f" y="161.285291"/>
     <use style="fill-opacity:0;stroke:#1f77b4;" x="121.699896" xlink:href="#mce85de401f" y="161.524176"/>
     <use style="fill-opacity:0;stroke:#1f77b4;" x="122.083342" xlink:href="#mce85de401f" y="161.462724"/>
     <use style="fill-opacity:0;stroke:#1f77b4;" x="122.411503" xlink:href="#mce85de401f" y="161.367903"/>
     <use style="fill-opacity:0;stroke:#1f77b4;" x="122.742579" xlink:href="#mce85de401f" y="161.469367"/>
     <use style="fill-opacity:0;stroke:#1f77b4;" x="123.08972" xlink:href="#mce85de401f" y="161.68861"/>
     <use style="fill-opacity:0;stroke:#1f77b4;" x="123.333024" xlink:href="#mce85de401f" y="161.46249"/>
     <use style="fill-opacity:0;stroke:#1f77b4;" x="123.843065" xlink:href="#mce85de401f" y="161.581393"/>
     <use style="fill-opacity:0;stroke:#1f77b4;" x="124.036013" xlink:href="#mce85de401f" y="161.72387"/>
     <use style="fill-opacity:0;stroke:#1f77b4;" x="124.625011" xlink:href="#mce85de401f" y="161.435725"/>
     <use style="fill-opacity:0;stroke:#1f77b4;" x="126.201899" xlink:href="#mce85de401f" y="161.686788"/>
     <use style="fill-opacity:0;stroke:#1f77b4;" x="125.683099" xlink:href="#mce85de401f" y="160.930938"/>
     <use style="fill-opacity:0;stroke:#1f77b4;" x="125.676702" xlink:href="#mce85de401f" y="160.872842"/>
     <use style="fill-opacity:0;stroke:#1f77b4;" x="126.257855" xlink:href="#mce85de401f" y="160.869085"/>
     <use style="fill-opacity:0;stroke:#1f77b4;" x="126.638769" xlink:href="#mce85de401f" y="161.102659"/>
     <use style="fill-opacity:0;stroke:#1f77b4;" x="127.414084" xlink:href="#mce85de401f" y="160.738486"/>
     <use style="fill-opacity:0;stroke:#1f77b4;" x="127.750198" xlink:href="#mce85de401f" y="160.752647"/>
     <use style="fill-opacity:0;stroke:#1f77b4;" x="128.199373" xlink:href="#mce85de401f" y="160.718009"/>
     <use style="fill-opacity:0;stroke:#1f77b4;" x="128.703325" xlink:href="#mce85de401f" y="160.423737"/>
     <use style="fill-opacity:0;stroke:#1f77b4;" x="129.56876" xlink:href="#mce85de401f" y="160.238058"/>
     <use style="fill-opacity:0;stroke:#1f77b4;" x="130.255801" xlink:href="#mce85de401f" y="160.31696"/>
     <use style="fill-opacity:0;stroke:#1f77b4;" x="130.594241" xlink:href="#mce85de401f" y="160.242453"/>
     <use style="fill-opacity:0;stroke:#1f77b4;" x="131.329802" xlink:href="#mce85de401f" y="160.17362"/>
     <use style="fill-opacity:0;stroke:#1f77b4;" x="131.683785" xlink:href="#mce85de401f" y="160.054097"/>
     <use style="fill-opacity:0;stroke:#1f77b4;" x="132.264837" xlink:href="#mce85de401f" y="160.174612"/>
     <use style="fill-opacity:0;stroke:#1f77b4;" x="132.95861" xlink:href="#mce85de401f" y="160.219452"/>
     <use style="fill-opacity:0;stroke:#1f77b4;" x="133.781118" xlink:href="#mce85de401f" y="160.167382"/>
     <use style="fill-opacity:0;stroke:#1f77b4;" x="134.395547" xlink:href="#mce85de401f" y="160.243801"/>
    </g>
   </g>
   <g id="line2d_14">
    <defs>
     <path d="M -3 3 
L 3 3 
L 3 -3 
L -3 -3 
z
" id="medd079311c" style="stroke:#ff7f0e;stroke-linejoin:miter;"/>
    </defs>
    <g clip-path="url(#pe0fbf2c989)">
     <use style="fill-opacity:0;stroke:#ff7f0e;stroke-linejoin:miter;" x="62.145026" xlink:href="#medd079311c" y="162.961957"/>
     <use style="fill-opacity:0;stroke:#ff7f0e;stroke-linejoin:miter;" x="62.131674" xlink:href="#medd079311c" y="162.666976"/>
     <use style="fill-opacity:0;stroke:#ff7f0e;stroke-linejoin:miter;" x="62.156191" xlink:href="#medd079311c" y="162.336893"/>
     <use style="fill-opacity:0;stroke:#ff7f0e;stroke-linejoin:miter;" x="61.983524" xlink:href="#medd079311c" y="162.129272"/>
     <use style="fill-opacity:0;stroke:#ff7f0e;stroke-linejoin:miter;" x="61.960666" xlink:href="#medd079311c" y="160.738117"/>
     <use style="fill-opacity:0;stroke:#ff7f0e;stroke-linejoin:miter;" x="62.359273" xlink:href="#medd079311c" y="160.001571"/>
     <use style="fill-opacity:0;stroke:#ff7f0e;stroke-linejoin:miter;" x="62.373976" xlink:href="#medd079311c" y="159.146069"/>
     <use style="fill-opacity:0;stroke:#ff7f0e;stroke-linejoin:miter;" x="62.755496" xlink:href="#medd079311c" y="157.834674"/>
     <use style="fill-opacity:0;stroke:#ff7f0e;stroke-linejoin:miter;" x="63.166199" xlink:href="#medd079311c" y="156.489716"/>
     <use style="fill-opacity:0;stroke:#ff7f0e;stroke-linejoin:miter;" x="63.685332" xlink:href="#medd079311c" y="154.783836"/>
     <use style="fill-opacity:0;stroke:#ff7f0e;stroke-linejoin:miter;" x="64.485842" xlink:href="#medd079311c" y="151.512724"/>
     <use style="fill-opacity:0;stroke:#ff7f0e;stroke-linejoin:miter;" x="65.584374" xlink:href="#medd079311c" y="148.679252"/>
     <use style="fill-opacity:0;stroke:#ff7f0e;stroke-linejoin:miter;" x="67.092672" xlink:href="#medd079311c" y="145.309869"/>
     <use style="fill-opacity:0;stroke:#ff7f0e;stroke-linejoin:miter;" x="69.322955" xlink:href="#medd079311c" y="141.412519"/>
     <use style="fill-opacity:0;stroke:#ff7f0e;stroke-linejoin:miter;" x="72.303642" xlink:href="#medd079311c" y="137.036166"/>
     <use style="fill-opacity:0;stroke:#ff7f0e;stroke-linejoin:miter;" x="76.265384" xlink:href="#medd079311c" y="132.340856"/>
     <use style="fill-opacity:0;stroke:#ff7f0e;stroke-linejoin:miter;" x="81.563109" xlink:href="#medd079311c" y="127.461419"/>
     <use style="fill-opacity:0;stroke:#ff7f0e;stroke-linejoin:miter;" x="87.790417" xlink:href="#medd079311c" y="122.897346"/>
     <use style="fill-opacity:0;stroke:#ff7f0e;stroke-linejoin:miter;" x="95.226977" xlink:href="#medd079311c" y="118.755906"/>
     <use style="fill-opacity:0;stroke:#ff7f0e;stroke-linejoin:miter;" x="103.40124" xlink:href="#medd079311c" y="115.185413"/>
     <use style="fill-opacity:0;stroke:#ff7f0e;stroke-linejoin:miter;" x="112.290812" xlink:href="#medd079311c" y="112.30723"/>
     <use style="fill-opacity:0;stroke:#ff7f0e;stroke-linejoin:miter;" x="121.549229" xlink:href="#medd079311c" y="109.965011"/>
     <use style="fill-opacity:0;stroke:#ff7f0e;stroke-linejoin:miter;" x="131.935552" xlink:href="#medd079311c" y="109.162358"/>
     <use style="fill-opacity:0;stroke:#ff7f0e;stroke-linejoin:miter;" x="141.575797" xlink:href="#medd079311c" y="108.91632"/>
     <use style="fill-opacity:0;stroke:#ff7f0e;stroke-linejoin:miter;" x="160.836473" xlink:href="#medd079311c" y="104.255765"/>
     <use style="fill-opacity:0;stroke:#ff7f0e;stroke-linejoin:miter;" x="171.478659" xlink:href="#medd079311c" y="107.24553"/>
     <use style="fill-opacity:0;stroke:#ff7f0e;stroke-linejoin:miter;" x="181.363134" xlink:href="#medd079311c" y="111.176428"/>
     <use style="fill-opacity:0;stroke:#ff7f0e;stroke-linejoin:miter;" x="189.196689" xlink:href="#medd079311c" y="115.574136"/>
     <use style="fill-opacity:0;stroke:#ff7f0e;stroke-linejoin:miter;" x="196.749418" xlink:href="#medd079311c" y="120.768468"/>
     <use style="fill-opacity:0;stroke:#ff7f0e;stroke-linejoin:miter;" x="202.083196" xlink:href="#medd079311c" y="125.219095"/>
     <use style="fill-opacity:0;stroke:#ff7f0e;stroke-linejoin:miter;" x="206.839692" xlink:href="#medd079311c" y="129.506532"/>
     <use style="fill-opacity:0;stroke:#ff7f0e;stroke-linejoin:miter;" x="210.726974" xlink:href="#medd079311c" y="133.494084"/>
     <use style="fill-opacity:0;stroke:#ff7f0e;stroke-linejoin:miter;" x="214.093642" xlink:href="#medd079311c" y="136.831285"/>
     <use style="fill-opacity:0;stroke:#ff7f0e;stroke-linejoin:miter;" x="216.904854" xlink:href="#medd079311c" y="139.49707"/>
     <use style="fill-opacity:0;stroke:#ff7f0e;stroke-linejoin:miter;" x="219.456074" xlink:href="#medd079311c" y="141.481143"/>
     <use style="fill-opacity:0;stroke:#ff7f0e;stroke-linejoin:miter;" x="221.910342" xlink:href="#medd079311c" y="143.283276"/>
     <use style="fill-opacity:0;stroke:#ff7f0e;stroke-linejoin:miter;" x="224.189908" xlink:href="#medd079311c" y="144.567749"/>
     <use style="fill-opacity:0;stroke:#ff7f0e;stroke-linejoin:miter;" x="226.357545" xlink:href="#medd079311c" y="145.728606"/>
     <use style="fill-opacity:0;stroke:#ff7f0e;stroke-linejoin:miter;" x="228.463216" xlink:href="#medd079311c" y="146.674905"/>
     <use style="fill-opacity:0;stroke:#ff7f0e;stroke-linejoin:miter;" x="230.436352" xlink:href="#medd079311c" y="147.332322"/>
     <use style="fill-opacity:0;stroke:#ff7f0e;stroke-linejoin:miter;" x="231.514946" xlink:href="#medd079311c" y="147.281319"/>
     <use style="fill-opacity:0;stroke:#ff7f0e;stroke-linejoin:miter;" x="234.455523" xlink:href="#medd079311c" y="148.30818"/>
     <use style="fill-opacity:0;stroke:#ff7f0e;stroke-linejoin:miter;" x="236.375186" xlink:href="#medd079311c" y="148.489348"/>
     <use style="fill-opacity:0;stroke:#ff7f0e;stroke-linejoin:miter;" x="238.188031" xlink:href="#medd079311c" y="148.52806"/>
     <use style="fill-opacity:0;stroke:#ff7f0e;stroke-linejoin:miter;" x="240.270168" xlink:href="#medd079311c" y="148.469008"/>
     <use style="fill-opacity:0;stroke:#ff7f0e;stroke-linejoin:miter;" x="242.384897" xlink:href="#medd079311c" y="148.230229"/>
     <use style="fill-opacity:0;stroke:#ff7f0e;stroke-linejoin:miter;" x="244.344576" xlink:href="#medd079311c" y="147.919205"/>
     <use style="fill-opacity:0;stroke:#ff7f0e;stroke-linejoin:miter;" x="246.210085" xlink:href="#medd079311c" y="147.39596"/>
     <use style="fill-opacity:0;stroke:#ff7f0e;stroke-linejoin:miter;" x="248.345243" xlink:href="#medd079311c" y="147.076792"/>
     <use style="fill-opacity:0;stroke:#ff7f0e;stroke-linejoin:miter;" x="252.909372" xlink:href="#medd079311c" y="145.028176"/>
     <use style="fill-opacity:0;stroke:#ff7f0e;stroke-linejoin:miter;" x="254.035002" xlink:href="#medd079311c" y="145.03318"/>
     <use style="fill-opacity:0;stroke:#ff7f0e;stroke-linejoin:miter;" x="253.254427" xlink:href="#medd079311c" y="137.823298"/>
     <use style="fill-opacity:0;stroke:#ff7f0e;stroke-linejoin:miter;" x="255.823181" xlink:href="#medd079311c" y="144.058828"/>
     <use style="fill-opacity:0;stroke:#ff7f0e;stroke-linejoin:miter;" x="260.682887" xlink:href="#medd079311c" y="142.488285"/>
     <use style="fill-opacity:0;stroke:#ff7f0e;stroke-linejoin:miter;" x="264.048034" xlink:href="#medd079311c" y="141.807024"/>
     <use style="fill-opacity:0;stroke:#ff7f0e;stroke-linejoin:miter;" x="266.395533" xlink:href="#medd079311c" y="138.531896"/>
     <use style="fill-opacity:0;stroke:#ff7f0e;stroke-linejoin:miter;" x="271.047297" xlink:href="#medd079311c" y="136.771087"/>
     <use style="fill-opacity:0;stroke:#ff7f0e;stroke-linejoin:miter;" x="275.354184" xlink:href="#medd079311c" y="136.453068"/>
     <use style="fill-opacity:0;stroke:#ff7f0e;stroke-linejoin:miter;" x="279.93732" xlink:href="#medd079311c" y="133.689325"/>
     <use style="fill-opacity:0;stroke:#ff7f0e;stroke-linejoin:miter;" x="282.630925" xlink:href="#medd079311c" y="132.575531"/>
     <use style="fill-opacity:0;stroke:#ff7f0e;stroke-linejoin:miter;" x="287.498541" xlink:href="#medd079311c" y="132.650923"/>
     <use style="fill-opacity:0;stroke:#ff7f0e;stroke-linejoin:miter;" x="292.92166" xlink:href="#medd079311c" y="129.542436"/>
     <use style="fill-opacity:0;stroke:#ff7f0e;stroke-linejoin:miter;" x="297.393027" xlink:href="#medd079311c" y="126.177903"/>
     <use style="fill-opacity:0;stroke:#ff7f0e;stroke-linejoin:miter;" x="302.525309" xlink:href="#medd079311c" y="125.039698"/>
     <use style="fill-opacity:0;stroke:#ff7f0e;stroke-linejoin:miter;" x="309.49638" xlink:href="#medd079311c" y="123.754072"/>
     <use style="fill-opacity:0;stroke:#ff7f0e;stroke-linejoin:miter;" x="315.884045" xlink:href="#medd079311c" y="121.972392"/>
     <use style="fill-opacity:0;stroke:#ff7f0e;stroke-linejoin:miter;" x="323.306747" xlink:href="#medd079311c" y="120.206571"/>
     <use style="fill-opacity:0;stroke:#ff7f0e;stroke-linejoin:miter;" x="329.409251" xlink:href="#medd079311c" y="119.179311"/>
     <use style="fill-opacity:0;stroke:#ff7f0e;stroke-linejoin:miter;" x="337.453626" xlink:href="#medd079311c" y="117.867838"/>
    </g>
   </g>
   <g id="line2d_15">
    <path clip-path="url(#pe0fbf2c989)" d="M 54.894292 164.016197 
L 344.52 164.016197 
" style="fill:none;stroke:#000000;stroke-linecap:square;stroke-width:1.5;"/>
   </g>
   <g id="line2d_16">
    <path clip-path="url(#pe0fbf2c989)" d="M 62.086445 239.192 
L 62.086445 28.128 
" style="fill:none;stroke:#000000;stroke-linecap:square;stroke-width:1.5;"/>
   </g>
   <g id="patch_3">
    <path d="M 54.894292 239.192 
L 54.894292 28.128 
" style="fill:none;stroke:#000000;stroke-linecap:square;stroke-linejoin:miter;stroke-width:0.8;"/>
   </g>
   <g id="patch_4">
    <path d="M 344.52 239.192 
L 344.52 28.128 
" style="fill:none;stroke:#000000;stroke-linecap:square;stroke-linejoin:miter;stroke-width:0.8;"/>
   </g>
   <g id="patch_5">
    <path d="M 54.894292 239.192 
L 344.52 239.192 
" style="fill:none;stroke:#000000;stroke-linecap:square;stroke-linejoin:miter;stroke-width:0.8;"/>
   </g>
   <g id="patch_6">
    <path d="M 54.894292 28.128 
L 344.52 28.128 
" style="fill:none;stroke:#000000;stroke-linecap:square;stroke-linejoin:miter;stroke-width:0.8;"/>
   </g>
   <g id="legend_1">
    <g id="patch_7">
     <path d="M 260.4 72.9555 
L 336.12 72.9555 
Q 338.52 72.9555 338.52 70.5555 
L 338.52 36.528 
Q 338.52 34.128 336.12 34.128 
L 260.4 34.128 
Q 258 34.128 258 36.528 
L 258 70.5555 
Q 258 72.9555 260.4 72.9555 
z
" style="fill:#ffffff;opacity:0.8;stroke:#cccccc;stroke-linejoin:miter;"/>
    </g>
    <g id="line2d_17"/>
    <g id="line2d_18">
     <g>
      <use style="fill-opacity:0;stroke:#1f77b4;" x="274.8" xlink:href="#mce85de401f" y="43.846125"/>
     </g>
    </g>
    <g id="text_17">
     <!-- 600$\degree$C -->
     <defs>
      <path d="M 25 67.921875 
Q 21.09375 67.921875 18.40625 65.203125 
Q 15.71875 62.5 15.71875 58.59375 
Q 15.71875 54.734375 18.40625 52.078125 
Q 21.09375 49.421875 25 49.421875 
Q 28.90625 49.421875 31.59375 52.078125 
Q 34.28125 54.734375 34.28125 58.59375 
Q 34.28125 62.453125 31.5625 65.1875 
Q 28.859375 67.921875 25 67.921875 
z
M 25 74.21875 
Q 28.125 74.21875 31 73.015625 
Q 33.890625 71.828125 35.984375 69.578125 
Q 38.234375 67.390625 39.359375 64.59375 
Q 40.484375 61.8125 40.484375 58.59375 
Q 40.484375 52.15625 35.96875 47.6875 
Q 31.453125 43.21875 24.90625 43.21875 
Q 18.3125 43.21875 13.90625 47.609375 
Q 9.515625 52 9.515625 58.59375 
Q 9.515625 65.140625 14 69.671875 
Q 18.5 74.21875 25 74.21875 
z
" id="DejaVuSans-b0"/>
      <path d="M 64.40625 67.28125 
L 64.40625 56.890625 
Q 59.421875 61.53125 53.78125 63.8125 
Q 48.140625 66.109375 41.796875 66.109375 
Q 29.296875 66.109375 22.65625 58.46875 
Q 16.015625 50.828125 16.015625 36.375 
Q 16.015625 21.96875 22.65625 14.328125 
Q 29.296875 6.6875 41.796875 6.6875 
Q 48.140625 6.6875 53.78125 8.984375 
Q 59.421875 11.28125 64.40625 15.921875 
L 64.40625 5.609375 
Q 59.234375 2.09375 53.4375 0.328125 
Q 47.65625 -1.421875 41.21875 -1.421875 
Q 24.65625 -1.421875 15.125 8.703125 
Q 5.609375 18.84375 5.609375 36.375 
Q 5.609375 53.953125 15.125 64.078125 
Q 24.65625 74.21875 41.21875 74.21875 
Q 47.75 74.21875 53.53125 72.484375 
Q 59.328125 70.75 64.40625 67.28125 
z
" id="DejaVuSans-43"/>
     </defs>
     <g transform="translate(296.4 48.046125)scale(0.12 -0.12)">
      <use transform="translate(0 0.78125)" xlink:href="#DejaVuSans-36"/>
      <use transform="translate(63.623047 0.78125)" xlink:href="#DejaVuSans-30"/>
      <use transform="translate(127.246094 0.78125)" xlink:href="#DejaVuSans-30"/>
      <use transform="translate(190.869141 0.78125)" xlink:href="#DejaVuSans-b0"/>
      <use transform="translate(240.869141 0.78125)" xlink:href="#DejaVuSans-43"/>
     </g>
    </g>
    <g id="line2d_19"/>
    <g id="line2d_20">
     <g>
      <use style="fill-opacity:0;stroke:#ff7f0e;stroke-linejoin:miter;" x="274.8" xlink:href="#medd079311c" y="61.459875"/>
     </g>
    </g>
    <g id="text_18">
     <!-- 500$\degree$C -->
     <g transform="translate(296.4 65.659875)scale(0.12 -0.12)">
      <use transform="translate(0 0.78125)" xlink:href="#DejaVuSans-35"/>
      <use transform="translate(63.623047 0.78125)" xlink:href="#DejaVuSans-30"/>
      <use transform="translate(127.246094 0.78125)" xlink:href="#DejaVuSans-30"/>
      <use transform="translate(190.869141 0.78125)" xlink:href="#DejaVuSans-b0"/>
      <use transform="translate(240.869141 0.78125)" xlink:href="#DejaVuSans-43"/>
     </g>
    </g>
   </g>
  </g>
 </g>
 <defs>
  <clipPath id="pe0fbf2c989">
   <rect height="211.064" width="289.625708" x="54.894292" y="28.128"/>
  </clipPath>
 </defs>
</svg>
