<?xml version="1.0" encoding="utf-8" standalone="no"?>
<!DOCTYPE svg PUBLIC "-//W3C//DTD SVG 1.1//EN"
  "http://www.w3.org/Graphics/SVG/1.1/DTD/svg11.dtd">
<!-- Created with matplotlib (http://matplotlib.org/) -->
<svg height="360pt" version="1.1" viewBox="0 0 288 360" width="288pt" xmlns="http://www.w3.org/2000/svg" xmlns:xlink="http://www.w3.org/1999/xlink">
 <defs>
  <style type="text/css">
*{stroke-linecap:butt;stroke-linejoin:round;}
  </style>
 </defs>
 <g id="figure_1">
  <g id="patch_1">
   <path d="M 0 360 
L 288 360 
L 288 0 
L 0 0 
z
" style="fill:#ffffff;"/>
  </g>
  <g id="axes_1">
   <g id="patch_2">
    <path d="M 54.759048 289.903926 
L 272.52 289.903926 
L 272.52 15.569539 
L 54.759048 15.569539 
z
" style="fill:#ffffff;"/>
   </g>
   <g id="matplotlib.axis_1">
    <g id="xtick_1">
     <g id="line2d_1">
      <defs>
       <path d="M 0 0 
L 0 3.5 
" id="m46caf58ce2" style="stroke:#000000;stroke-width:0.8;"/>
      </defs>
      <g>
       <use style="fill-opacity:0;stroke:#000000;stroke-width:0.8;" x="54.759048" xlink:href="#m46caf58ce2" y="289.903926"/>
      </g>
     </g>
     <g id="text_1">
      <!-- 0.0002 -->
      <defs>
       <path d="M 31.78125 66.40625 
Q 24.171875 66.40625 20.328125 58.90625 
Q 16.5 51.421875 16.5 36.375 
Q 16.5 21.390625 20.328125 13.890625 
Q 24.171875 6.390625 31.78125 6.390625 
Q 39.453125 6.390625 43.28125 13.890625 
Q 47.125 21.390625 47.125 36.375 
Q 47.125 51.421875 43.28125 58.90625 
Q 39.453125 66.40625 31.78125 66.40625 
z
M 31.78125 74.21875 
Q 44.046875 74.21875 50.515625 64.515625 
Q 56.984375 54.828125 56.984375 36.375 
Q 56.984375 17.96875 50.515625 8.265625 
Q 44.046875 -1.421875 31.78125 -1.421875 
Q 19.53125 -1.421875 13.0625 8.265625 
Q 6.59375 17.96875 6.59375 36.375 
Q 6.59375 54.828125 13.0625 64.515625 
Q 19.53125 74.21875 31.78125 74.21875 
z
" id="DejaVuSans-30"/>
       <path d="M 10.6875 12.40625 
L 21 12.40625 
L 21 0 
L 10.6875 0 
z
" id="DejaVuSans-2e"/>
       <path d="M 19.1875 8.296875 
L 53.609375 8.296875 
L 53.609375 0 
L 7.328125 0 
L 7.328125 8.296875 
Q 12.9375 14.109375 22.625 23.890625 
Q 32.328125 33.6875 34.8125 36.53125 
Q 39.546875 41.84375 41.421875 45.53125 
Q 43.3125 49.21875 43.3125 52.78125 
Q 43.3125 58.59375 39.234375 62.25 
Q 35.15625 65.921875 28.609375 65.921875 
Q 23.96875 65.921875 18.8125 64.3125 
Q 13.671875 62.703125 7.8125 59.421875 
L 7.8125 69.390625 
Q 13.765625 71.78125 18.9375 73 
Q 24.125 74.21875 28.421875 74.21875 
Q 39.75 74.21875 46.484375 68.546875 
Q 53.21875 62.890625 53.21875 53.421875 
Q 53.21875 48.921875 51.53125 44.890625 
Q 49.859375 40.875 45.40625 35.40625 
Q 44.1875 33.984375 37.640625 27.21875 
Q 31.109375 20.453125 19.1875 8.296875 
z
" id="DejaVuSans-32"/>
      </defs>
      <g transform="translate(17.147911 325.794829)rotate(-30)scale(0.12 -0.12)">
       <use xlink:href="#DejaVuSans-30"/>
       <use x="63.623047" xlink:href="#DejaVuSans-2e"/>
       <use x="95.410156" xlink:href="#DejaVuSans-30"/>
       <use x="159.033203" xlink:href="#DejaVuSans-30"/>
       <use x="222.65625" xlink:href="#DejaVuSans-30"/>
       <use x="286.279297" xlink:href="#DejaVuSans-32"/>
      </g>
     </g>
    </g>
    <g id="xtick_2">
     <g id="line2d_2">
      <g>
       <use style="fill-opacity:0;stroke:#000000;stroke-width:0.8;" x="103.15037" xlink:href="#m46caf58ce2" y="289.903926"/>
      </g>
     </g>
     <g id="text_2">
      <!-- 0.0004 -->
      <defs>
       <path d="M 37.796875 64.3125 
L 12.890625 25.390625 
L 37.796875 25.390625 
z
M 35.203125 72.90625 
L 47.609375 72.90625 
L 47.609375 25.390625 
L 58.015625 25.390625 
L 58.015625 17.1875 
L 47.609375 17.1875 
L 47.609375 0 
L 37.796875 0 
L 37.796875 17.1875 
L 4.890625 17.1875 
L 4.890625 26.703125 
z
" id="DejaVuSans-34"/>
      </defs>
      <g transform="translate(65.539234 325.794829)rotate(-30)scale(0.12 -0.12)">
       <use xlink:href="#DejaVuSans-30"/>
       <use x="63.623047" xlink:href="#DejaVuSans-2e"/>
       <use x="95.410156" xlink:href="#DejaVuSans-30"/>
       <use x="159.033203" xlink:href="#DejaVuSans-30"/>
       <use x="222.65625" xlink:href="#DejaVuSans-30"/>
       <use x="286.279297" xlink:href="#DejaVuSans-34"/>
      </g>
     </g>
    </g>
    <g id="xtick_3">
     <g id="line2d_3">
      <g>
       <use style="fill-opacity:0;stroke:#000000;stroke-width:0.8;" x="151.541693" xlink:href="#m46caf58ce2" y="289.903926"/>
      </g>
     </g>
     <g id="text_3">
      <!-- 0.0006 -->
      <defs>
       <path d="M 33.015625 40.375 
Q 26.375 40.375 22.484375 35.828125 
Q 18.609375 31.296875 18.609375 23.390625 
Q 18.609375 15.53125 22.484375 10.953125 
Q 26.375 6.390625 33.015625 6.390625 
Q 39.65625 6.390625 43.53125 10.953125 
Q 47.40625 15.53125 47.40625 23.390625 
Q 47.40625 31.296875 43.53125 35.828125 
Q 39.65625 40.375 33.015625 40.375 
z
M 52.59375 71.296875 
L 52.59375 62.3125 
Q 48.875 64.0625 45.09375 64.984375 
Q 41.3125 65.921875 37.59375 65.921875 
Q 27.828125 65.921875 22.671875 59.328125 
Q 17.53125 52.734375 16.796875 39.40625 
Q 19.671875 43.65625 24.015625 45.921875 
Q 28.375 48.1875 33.59375 48.1875 
Q 44.578125 48.1875 50.953125 41.515625 
Q 57.328125 34.859375 57.328125 23.390625 
Q 57.328125 12.15625 50.6875 5.359375 
Q 44.046875 -1.421875 33.015625 -1.421875 
Q 20.359375 -1.421875 13.671875 8.265625 
Q 6.984375 17.96875 6.984375 36.375 
Q 6.984375 53.65625 15.1875 63.9375 
Q 23.390625 74.21875 37.203125 74.21875 
Q 40.921875 74.21875 44.703125 73.484375 
Q 48.484375 72.75 52.59375 71.296875 
z
" id="DejaVuSans-36"/>
      </defs>
      <g transform="translate(113.930557 325.794829)rotate(-30)scale(0.12 -0.12)">
       <use xlink:href="#DejaVuSans-30"/>
       <use x="63.623047" xlink:href="#DejaVuSans-2e"/>
       <use x="95.410156" xlink:href="#DejaVuSans-30"/>
       <use x="159.033203" xlink:href="#DejaVuSans-30"/>
       <use x="222.65625" xlink:href="#DejaVuSans-30"/>
       <use x="286.279297" xlink:href="#DejaVuSans-36"/>
      </g>
     </g>
    </g>
    <g id="xtick_4">
     <g id="line2d_4">
      <g>
       <use style="fill-opacity:0;stroke:#000000;stroke-width:0.8;" x="199.933016" xlink:href="#m46caf58ce2" y="289.903926"/>
      </g>
     </g>
     <g id="text_4">
      <!-- 0.0008 -->
      <defs>
       <path d="M 31.78125 34.625 
Q 24.75 34.625 20.71875 30.859375 
Q 16.703125 27.09375 16.703125 20.515625 
Q 16.703125 13.921875 20.71875 10.15625 
Q 24.75 6.390625 31.78125 6.390625 
Q 38.8125 6.390625 42.859375 10.171875 
Q 46.921875 13.96875 46.921875 20.515625 
Q 46.921875 27.09375 42.890625 30.859375 
Q 38.875 34.625 31.78125 34.625 
z
M 21.921875 38.8125 
Q 15.578125 40.375 12.03125 44.71875 
Q 8.5 49.078125 8.5 55.328125 
Q 8.5 64.0625 14.71875 69.140625 
Q 20.953125 74.21875 31.78125 74.21875 
Q 42.671875 74.21875 48.875 69.140625 
Q 55.078125 64.0625 55.078125 55.328125 
Q 55.078125 49.078125 51.53125 44.71875 
Q 48 40.375 41.703125 38.8125 
Q 48.828125 37.15625 52.796875 32.3125 
Q 56.78125 27.484375 56.78125 20.515625 
Q 56.78125 9.90625 50.3125 4.234375 
Q 43.84375 -1.421875 31.78125 -1.421875 
Q 19.734375 -1.421875 13.25 4.234375 
Q 6.78125 9.90625 6.78125 20.515625 
Q 6.78125 27.484375 10.78125 32.3125 
Q 14.796875 37.15625 21.921875 38.8125 
z
M 18.3125 54.390625 
Q 18.3125 48.734375 21.84375 45.5625 
Q 25.390625 42.390625 31.78125 42.390625 
Q 38.140625 42.390625 41.71875 45.5625 
Q 45.3125 48.734375 45.3125 54.390625 
Q 45.3125 60.0625 41.71875 63.234375 
Q 38.140625 66.40625 31.78125 66.40625 
Q 25.390625 66.40625 21.84375 63.234375 
Q 18.3125 60.0625 18.3125 54.390625 
z
" id="DejaVuSans-38"/>
      </defs>
      <g transform="translate(162.321879 325.794829)rotate(-30)scale(0.12 -0.12)">
       <use xlink:href="#DejaVuSans-30"/>
       <use x="63.623047" xlink:href="#DejaVuSans-2e"/>
       <use x="95.410156" xlink:href="#DejaVuSans-30"/>
       <use x="159.033203" xlink:href="#DejaVuSans-30"/>
       <use x="222.65625" xlink:href="#DejaVuSans-30"/>
       <use x="286.279297" xlink:href="#DejaVuSans-38"/>
      </g>
     </g>
    </g>
    <g id="xtick_5">
     <g id="line2d_5">
      <g>
       <use style="fill-opacity:0;stroke:#000000;stroke-width:0.8;" x="248.324339" xlink:href="#m46caf58ce2" y="289.903926"/>
      </g>
     </g>
     <g id="text_5">
      <!-- 0.0010 -->
      <defs>
       <path d="M 12.40625 8.296875 
L 28.515625 8.296875 
L 28.515625 63.921875 
L 10.984375 60.40625 
L 10.984375 69.390625 
L 28.421875 72.90625 
L 38.28125 72.90625 
L 38.28125 8.296875 
L 54.390625 8.296875 
L 54.390625 0 
L 12.40625 0 
z
" id="DejaVuSans-31"/>
      </defs>
      <g transform="translate(210.713202 325.794829)rotate(-30)scale(0.12 -0.12)">
       <use xlink:href="#DejaVuSans-30"/>
       <use x="63.623047" xlink:href="#DejaVuSans-2e"/>
       <use x="95.410156" xlink:href="#DejaVuSans-30"/>
       <use x="159.033203" xlink:href="#DejaVuSans-30"/>
       <use x="222.65625" xlink:href="#DejaVuSans-31"/>
       <use x="286.279297" xlink:href="#DejaVuSans-30"/>
      </g>
     </g>
    </g>
    <g id="text_6">
     <!-- Wavenumber (nm$^{-1}$) -->
     <defs>
      <path d="M 3.328125 72.90625 
L 13.28125 72.90625 
L 28.609375 11.28125 
L 43.890625 72.90625 
L 54.984375 72.90625 
L 70.3125 11.28125 
L 85.59375 72.90625 
L 95.609375 72.90625 
L 77.296875 0 
L 64.890625 0 
L 49.515625 63.28125 
L 33.984375 0 
L 21.578125 0 
z
" id="DejaVuSans-57"/>
      <path d="M 34.28125 27.484375 
Q 23.390625 27.484375 19.1875 25 
Q 14.984375 22.515625 14.984375 16.5 
Q 14.984375 11.71875 18.140625 8.90625 
Q 21.296875 6.109375 26.703125 6.109375 
Q 34.1875 6.109375 38.703125 11.40625 
Q 43.21875 16.703125 43.21875 25.484375 
L 43.21875 27.484375 
z
M 52.203125 31.203125 
L 52.203125 0 
L 43.21875 0 
L 43.21875 8.296875 
Q 40.140625 3.328125 35.546875 0.953125 
Q 30.953125 -1.421875 24.3125 -1.421875 
Q 15.921875 -1.421875 10.953125 3.296875 
Q 6 8.015625 6 15.921875 
Q 6 25.140625 12.171875 29.828125 
Q 18.359375 34.515625 30.609375 34.515625 
L 43.21875 34.515625 
L 43.21875 35.40625 
Q 43.21875 41.609375 39.140625 45 
Q 35.0625 48.390625 27.6875 48.390625 
Q 23 48.390625 18.546875 47.265625 
Q 14.109375 46.140625 10.015625 43.890625 
L 10.015625 52.203125 
Q 14.9375 54.109375 19.578125 55.046875 
Q 24.21875 56 28.609375 56 
Q 40.484375 56 46.34375 49.84375 
Q 52.203125 43.703125 52.203125 31.203125 
z
" id="DejaVuSans-61"/>
      <path d="M 2.984375 54.6875 
L 12.5 54.6875 
L 29.59375 8.796875 
L 46.6875 54.6875 
L 56.203125 54.6875 
L 35.6875 0 
L 23.484375 0 
z
" id="DejaVuSans-76"/>
      <path d="M 56.203125 29.59375 
L 56.203125 25.203125 
L 14.890625 25.203125 
Q 15.484375 15.921875 20.484375 11.0625 
Q 25.484375 6.203125 34.421875 6.203125 
Q 39.59375 6.203125 44.453125 7.46875 
Q 49.3125 8.734375 54.109375 11.28125 
L 54.109375 2.78125 
Q 49.265625 0.734375 44.1875 -0.34375 
Q 39.109375 -1.421875 33.890625 -1.421875 
Q 20.796875 -1.421875 13.15625 6.1875 
Q 5.515625 13.8125 5.515625 26.8125 
Q 5.515625 40.234375 12.765625 48.109375 
Q 20.015625 56 32.328125 56 
Q 43.359375 56 49.78125 48.890625 
Q 56.203125 41.796875 56.203125 29.59375 
z
M 47.21875 32.234375 
Q 47.125 39.59375 43.09375 43.984375 
Q 39.0625 48.390625 32.421875 48.390625 
Q 24.90625 48.390625 20.390625 44.140625 
Q 15.875 39.890625 15.1875 32.171875 
z
" id="DejaVuSans-65"/>
      <path d="M 54.890625 33.015625 
L 54.890625 0 
L 45.90625 0 
L 45.90625 32.71875 
Q 45.90625 40.484375 42.875 44.328125 
Q 39.84375 48.1875 33.796875 48.1875 
Q 26.515625 48.1875 22.3125 43.546875 
Q 18.109375 38.921875 18.109375 30.90625 
L 18.109375 0 
L 9.078125 0 
L 9.078125 54.6875 
L 18.109375 54.6875 
L 18.109375 46.1875 
Q 21.34375 51.125 25.703125 53.5625 
Q 30.078125 56 35.796875 56 
Q 45.21875 56 50.046875 50.171875 
Q 54.890625 44.34375 54.890625 33.015625 
z
" id="DejaVuSans-6e"/>
      <path d="M 8.5 21.578125 
L 8.5 54.6875 
L 17.484375 54.6875 
L 17.484375 21.921875 
Q 17.484375 14.15625 20.5 10.265625 
Q 23.53125 6.390625 29.59375 6.390625 
Q 36.859375 6.390625 41.078125 11.03125 
Q 45.3125 15.671875 45.3125 23.6875 
L 45.3125 54.6875 
L 54.296875 54.6875 
L 54.296875 0 
L 45.3125 0 
L 45.3125 8.40625 
Q 42.046875 3.421875 37.71875 1 
Q 33.40625 -1.421875 27.6875 -1.421875 
Q 18.265625 -1.421875 13.375 4.4375 
Q 8.5 10.296875 8.5 21.578125 
z
M 31.109375 56 
z
" id="DejaVuSans-75"/>
      <path d="M 52 44.1875 
Q 55.375 50.25 60.0625 53.125 
Q 64.75 56 71.09375 56 
Q 79.640625 56 84.28125 50.015625 
Q 88.921875 44.046875 88.921875 33.015625 
L 88.921875 0 
L 79.890625 0 
L 79.890625 32.71875 
Q 79.890625 40.578125 77.09375 44.375 
Q 74.3125 48.1875 68.609375 48.1875 
Q 61.625 48.1875 57.5625 43.546875 
Q 53.515625 38.921875 53.515625 30.90625 
L 53.515625 0 
L 44.484375 0 
L 44.484375 32.71875 
Q 44.484375 40.625 41.703125 44.40625 
Q 38.921875 48.1875 33.109375 48.1875 
Q 26.21875 48.1875 22.15625 43.53125 
Q 18.109375 38.875 18.109375 30.90625 
L 18.109375 0 
L 9.078125 0 
L 9.078125 54.6875 
L 18.109375 54.6875 
L 18.109375 46.1875 
Q 21.1875 51.21875 25.484375 53.609375 
Q 29.78125 56 35.6875 56 
Q 41.65625 56 45.828125 52.96875 
Q 50 49.953125 52 44.1875 
z
" id="DejaVuSans-6d"/>
      <path d="M 48.6875 27.296875 
Q 48.6875 37.203125 44.609375 42.84375 
Q 40.53125 48.484375 33.40625 48.484375 
Q 26.265625 48.484375 22.1875 42.84375 
Q 18.109375 37.203125 18.109375 27.296875 
Q 18.109375 17.390625 22.1875 11.75 
Q 26.265625 6.109375 33.40625 6.109375 
Q 40.53125 6.109375 44.609375 11.75 
Q 48.6875 17.390625 48.6875 27.296875 
z
M 18.109375 46.390625 
Q 20.953125 51.265625 25.265625 53.625 
Q 29.59375 56 35.59375 56 
Q 45.5625 56 51.78125 48.09375 
Q 58.015625 40.1875 58.015625 27.296875 
Q 58.015625 14.40625 51.78125 6.484375 
Q 45.5625 -1.421875 35.59375 -1.421875 
Q 29.59375 -1.421875 25.265625 0.953125 
Q 20.953125 3.328125 18.109375 8.203125 
L 18.109375 0 
L 9.078125 0 
L 9.078125 75.984375 
L 18.109375 75.984375 
z
" id="DejaVuSans-62"/>
      <path d="M 41.109375 46.296875 
Q 39.59375 47.171875 37.8125 47.578125 
Q 36.03125 48 33.890625 48 
Q 26.265625 48 22.1875 43.046875 
Q 18.109375 38.09375 18.109375 28.8125 
L 18.109375 0 
L 9.078125 0 
L 9.078125 54.6875 
L 18.109375 54.6875 
L 18.109375 46.1875 
Q 20.953125 51.171875 25.484375 53.578125 
Q 30.03125 56 36.53125 56 
Q 37.453125 56 38.578125 55.875 
Q 39.703125 55.765625 41.0625 55.515625 
z
" id="DejaVuSans-72"/>
      <path id="DejaVuSans-20"/>
      <path d="M 31 75.875 
Q 24.46875 64.65625 21.28125 53.65625 
Q 18.109375 42.671875 18.109375 31.390625 
Q 18.109375 20.125 21.3125 9.0625 
Q 24.515625 -2 31 -13.1875 
L 23.1875 -13.1875 
Q 15.875 -1.703125 12.234375 9.375 
Q 8.59375 20.453125 8.59375 31.390625 
Q 8.59375 42.28125 12.203125 53.3125 
Q 15.828125 64.359375 23.1875 75.875 
z
" id="DejaVuSans-28"/>
      <path d="M 10.59375 35.5 
L 73.1875 35.5 
L 73.1875 27.203125 
L 10.59375 27.203125 
z
" id="DejaVuSans-2212"/>
      <path d="M 8.015625 75.875 
L 15.828125 75.875 
Q 23.140625 64.359375 26.78125 53.3125 
Q 30.421875 42.28125 30.421875 31.390625 
Q 30.421875 20.453125 26.78125 9.375 
Q 23.140625 -1.703125 15.828125 -13.1875 
L 8.015625 -13.1875 
Q 14.5 -2 17.703125 9.0625 
Q 20.90625 20.125 20.90625 31.390625 
Q 20.90625 42.671875 17.703125 53.65625 
Q 14.5 64.65625 8.015625 75.875 
z
" id="DejaVuSans-29"/>
     </defs>
     <g transform="translate(100.699524 341.940478)scale(0.12 -0.12)">
      <use transform="translate(0 0.684375)" xlink:href="#DejaVuSans-57"/>
      <use transform="translate(98.876953 0.684375)" xlink:href="#DejaVuSans-61"/>
      <use transform="translate(160.15625 0.684375)" xlink:href="#DejaVuSans-76"/>
      <use transform="translate(219.335938 0.684375)" xlink:href="#DejaVuSans-65"/>
      <use transform="translate(280.859375 0.684375)" xlink:href="#DejaVuSans-6e"/>
      <use transform="translate(344.238281 0.684375)" xlink:href="#DejaVuSans-75"/>
      <use transform="translate(407.617188 0.684375)" xlink:href="#DejaVuSans-6d"/>
      <use transform="translate(505.029297 0.684375)" xlink:href="#DejaVuSans-62"/>
      <use transform="translate(568.505859 0.684375)" xlink:href="#DejaVuSans-65"/>
      <use transform="translate(630.029297 0.684375)" xlink:href="#DejaVuSans-72"/>
      <use transform="translate(671.142578 0.684375)" xlink:href="#DejaVuSans-20"/>
      <use transform="translate(702.929688 0.684375)" xlink:href="#DejaVuSans-28"/>
      <use transform="translate(741.943359 0.684375)" xlink:href="#DejaVuSans-6e"/>
      <use transform="translate(805.322266 0.684375)" xlink:href="#DejaVuSans-6d"/>
      <use transform="translate(903.691406 38.965625)scale(0.7)" xlink:href="#DejaVuSans-2212"/>
      <use transform="translate(962.34375 38.965625)scale(0.7)" xlink:href="#DejaVuSans-31"/>
      <use transform="translate(1009.614258 0.684375)" xlink:href="#DejaVuSans-29"/>
     </g>
    </g>
   </g>
   <g id="matplotlib.axis_2">
    <g id="ytick_1">
     <g id="line2d_6">
      <defs>
       <path d="M 0 0 
L -3.5 0 
" id="m71761e7d5a" style="stroke:#000000;stroke-width:0.8;"/>
      </defs>
      <g>
       <use style="fill-opacity:0;stroke:#000000;stroke-width:0.8;" x="54.759048" xlink:href="#m71761e7d5a" y="277.319112"/>
      </g>
     </g>
     <g id="text_7">
      <!-- 0 -->
      <g transform="translate(40.124048 281.878174)scale(0.12 -0.12)">
       <use xlink:href="#DejaVuSans-30"/>
      </g>
     </g>
    </g>
    <g id="ytick_2">
     <g id="line2d_7">
      <g>
       <use style="fill-opacity:0;stroke:#000000;stroke-width:0.8;" x="54.759048" xlink:href="#m71761e7d5a" y="240.200148"/>
      </g>
     </g>
     <g id="text_8">
      <!-- 10 -->
      <g transform="translate(32.489048 244.75921)scale(0.12 -0.12)">
       <use xlink:href="#DejaVuSans-31"/>
       <use x="63.623047" xlink:href="#DejaVuSans-30"/>
      </g>
     </g>
    </g>
    <g id="ytick_3">
     <g id="line2d_8">
      <g>
       <use style="fill-opacity:0;stroke:#000000;stroke-width:0.8;" x="54.759048" xlink:href="#m71761e7d5a" y="203.081183"/>
      </g>
     </g>
     <g id="text_9">
      <!-- 20 -->
      <g transform="translate(32.489048 207.640246)scale(0.12 -0.12)">
       <use xlink:href="#DejaVuSans-32"/>
       <use x="63.623047" xlink:href="#DejaVuSans-30"/>
      </g>
     </g>
    </g>
    <g id="ytick_4">
     <g id="line2d_9">
      <g>
       <use style="fill-opacity:0;stroke:#000000;stroke-width:0.8;" x="54.759048" xlink:href="#m71761e7d5a" y="165.962219"/>
      </g>
     </g>
     <g id="text_10">
      <!-- 30 -->
      <defs>
       <path d="M 40.578125 39.3125 
Q 47.65625 37.796875 51.625 33 
Q 55.609375 28.21875 55.609375 21.1875 
Q 55.609375 10.40625 48.1875 4.484375 
Q 40.765625 -1.421875 27.09375 -1.421875 
Q 22.515625 -1.421875 17.65625 -0.515625 
Q 12.796875 0.390625 7.625 2.203125 
L 7.625 11.71875 
Q 11.71875 9.328125 16.59375 8.109375 
Q 21.484375 6.890625 26.8125 6.890625 
Q 36.078125 6.890625 40.9375 10.546875 
Q 45.796875 14.203125 45.796875 21.1875 
Q 45.796875 27.640625 41.28125 31.265625 
Q 36.765625 34.90625 28.71875 34.90625 
L 20.21875 34.90625 
L 20.21875 43.015625 
L 29.109375 43.015625 
Q 36.375 43.015625 40.234375 45.921875 
Q 44.09375 48.828125 44.09375 54.296875 
Q 44.09375 59.90625 40.109375 62.90625 
Q 36.140625 65.921875 28.71875 65.921875 
Q 24.65625 65.921875 20.015625 65.03125 
Q 15.375 64.15625 9.8125 62.3125 
L 9.8125 71.09375 
Q 15.4375 72.65625 20.34375 73.4375 
Q 25.25 74.21875 29.59375 74.21875 
Q 40.828125 74.21875 47.359375 69.109375 
Q 53.90625 64.015625 53.90625 55.328125 
Q 53.90625 49.265625 50.4375 45.09375 
Q 46.96875 40.921875 40.578125 39.3125 
z
" id="DejaVuSans-33"/>
      </defs>
      <g transform="translate(32.489048 170.521282)scale(0.12 -0.12)">
       <use xlink:href="#DejaVuSans-33"/>
       <use x="63.623047" xlink:href="#DejaVuSans-30"/>
      </g>
     </g>
    </g>
    <g id="ytick_5">
     <g id="line2d_10">
      <g>
       <use style="fill-opacity:0;stroke:#000000;stroke-width:0.8;" x="54.759048" xlink:href="#m71761e7d5a" y="128.843255"/>
      </g>
     </g>
     <g id="text_11">
      <!-- 40 -->
      <g transform="translate(32.489048 133.402317)scale(0.12 -0.12)">
       <use xlink:href="#DejaVuSans-34"/>
       <use x="63.623047" xlink:href="#DejaVuSans-30"/>
      </g>
     </g>
    </g>
    <g id="ytick_6">
     <g id="line2d_11">
      <g>
       <use style="fill-opacity:0;stroke:#000000;stroke-width:0.8;" x="54.759048" xlink:href="#m71761e7d5a" y="91.724291"/>
      </g>
     </g>
     <g id="text_12">
      <!-- 50 -->
      <defs>
       <path d="M 10.796875 72.90625 
L 49.515625 72.90625 
L 49.515625 64.59375 
L 19.828125 64.59375 
L 19.828125 46.734375 
Q 21.96875 47.46875 24.109375 47.828125 
Q 26.265625 48.1875 28.421875 48.1875 
Q 40.625 48.1875 47.75 41.5 
Q 54.890625 34.8125 54.890625 23.390625 
Q 54.890625 11.625 47.5625 5.09375 
Q 40.234375 -1.421875 26.90625 -1.421875 
Q 22.3125 -1.421875 17.546875 -0.640625 
Q 12.796875 0.140625 7.71875 1.703125 
L 7.71875 11.625 
Q 12.109375 9.234375 16.796875 8.0625 
Q 21.484375 6.890625 26.703125 6.890625 
Q 35.15625 6.890625 40.078125 11.328125 
Q 45.015625 15.765625 45.015625 23.390625 
Q 45.015625 31 40.078125 35.4375 
Q 35.15625 39.890625 26.703125 39.890625 
Q 22.75 39.890625 18.8125 39.015625 
Q 14.890625 38.140625 10.796875 36.28125 
z
" id="DejaVuSans-35"/>
      </defs>
      <g transform="translate(32.489048 96.283353)scale(0.12 -0.12)">
       <use xlink:href="#DejaVuSans-35"/>
       <use x="63.623047" xlink:href="#DejaVuSans-30"/>
      </g>
     </g>
    </g>
    <g id="ytick_7">
     <g id="line2d_12">
      <g>
       <use style="fill-opacity:0;stroke:#000000;stroke-width:0.8;" x="54.759048" xlink:href="#m71761e7d5a" y="54.605326"/>
      </g>
     </g>
     <g id="text_13">
      <!-- 60 -->
      <g transform="translate(32.489048 59.164389)scale(0.12 -0.12)">
       <use xlink:href="#DejaVuSans-36"/>
       <use x="63.623047" xlink:href="#DejaVuSans-30"/>
      </g>
     </g>
    </g>
    <g id="ytick_8">
     <g id="line2d_13">
      <g>
       <use style="fill-opacity:0;stroke:#000000;stroke-width:0.8;" x="54.759048" xlink:href="#m71761e7d5a" y="17.486362"/>
      </g>
     </g>
     <g id="text_14">
      <!-- 70 -->
      <defs>
       <path d="M 8.203125 72.90625 
L 55.078125 72.90625 
L 55.078125 68.703125 
L 28.609375 0 
L 18.3125 0 
L 43.21875 64.59375 
L 8.203125 64.59375 
z
" id="DejaVuSans-37"/>
      </defs>
      <g transform="translate(32.489048 22.045425)scale(0.12 -0.12)">
       <use xlink:href="#DejaVuSans-37"/>
       <use x="63.623047" xlink:href="#DejaVuSans-30"/>
      </g>
     </g>
    </g>
    <g id="text_15">
     <!-- Transmission % -->
     <defs>
      <path d="M -0.296875 72.90625 
L 61.375 72.90625 
L 61.375 64.59375 
L 35.5 64.59375 
L 35.5 0 
L 25.59375 0 
L 25.59375 64.59375 
L -0.296875 64.59375 
z
" id="DejaVuSans-54"/>
      <path d="M 44.28125 53.078125 
L 44.28125 44.578125 
Q 40.484375 46.53125 36.375 47.5 
Q 32.28125 48.484375 27.875 48.484375 
Q 21.1875 48.484375 17.84375 46.4375 
Q 14.5 44.390625 14.5 40.28125 
Q 14.5 37.15625 16.890625 35.375 
Q 19.28125 33.59375 26.515625 31.984375 
L 29.59375 31.296875 
Q 39.15625 29.25 43.1875 25.515625 
Q 47.21875 21.78125 47.21875 15.09375 
Q 47.21875 7.46875 41.1875 3.015625 
Q 35.15625 -1.421875 24.609375 -1.421875 
Q 20.21875 -1.421875 15.453125 -0.5625 
Q 10.6875 0.296875 5.421875 2 
L 5.421875 11.28125 
Q 10.40625 8.6875 15.234375 7.390625 
Q 20.0625 6.109375 24.8125 6.109375 
Q 31.15625 6.109375 34.5625 8.28125 
Q 37.984375 10.453125 37.984375 14.40625 
Q 37.984375 18.0625 35.515625 20.015625 
Q 33.0625 21.96875 24.703125 23.78125 
L 21.578125 24.515625 
Q 13.234375 26.265625 9.515625 29.90625 
Q 5.8125 33.546875 5.8125 39.890625 
Q 5.8125 47.609375 11.28125 51.796875 
Q 16.75 56 26.8125 56 
Q 31.78125 56 36.171875 55.265625 
Q 40.578125 54.546875 44.28125 53.078125 
z
" id="DejaVuSans-73"/>
      <path d="M 9.421875 54.6875 
L 18.40625 54.6875 
L 18.40625 0 
L 9.421875 0 
z
M 9.421875 75.984375 
L 18.40625 75.984375 
L 18.40625 64.59375 
L 9.421875 64.59375 
z
" id="DejaVuSans-69"/>
      <path d="M 30.609375 48.390625 
Q 23.390625 48.390625 19.1875 42.75 
Q 14.984375 37.109375 14.984375 27.296875 
Q 14.984375 17.484375 19.15625 11.84375 
Q 23.34375 6.203125 30.609375 6.203125 
Q 37.796875 6.203125 41.984375 11.859375 
Q 46.1875 17.53125 46.1875 27.296875 
Q 46.1875 37.015625 41.984375 42.703125 
Q 37.796875 48.390625 30.609375 48.390625 
z
M 30.609375 56 
Q 42.328125 56 49.015625 48.375 
Q 55.71875 40.765625 55.71875 27.296875 
Q 55.71875 13.875 49.015625 6.21875 
Q 42.328125 -1.421875 30.609375 -1.421875 
Q 18.84375 -1.421875 12.171875 6.21875 
Q 5.515625 13.875 5.515625 27.296875 
Q 5.515625 40.765625 12.171875 48.375 
Q 18.84375 56 30.609375 56 
z
" id="DejaVuSans-6f"/>
      <path d="M 72.703125 32.078125 
Q 68.453125 32.078125 66.03125 28.46875 
Q 63.625 24.859375 63.625 18.40625 
Q 63.625 12.0625 66.03125 8.421875 
Q 68.453125 4.78125 72.703125 4.78125 
Q 76.859375 4.78125 79.265625 8.421875 
Q 81.6875 12.0625 81.6875 18.40625 
Q 81.6875 24.8125 79.265625 28.4375 
Q 76.859375 32.078125 72.703125 32.078125 
z
M 72.703125 38.28125 
Q 80.421875 38.28125 84.953125 32.90625 
Q 89.5 27.546875 89.5 18.40625 
Q 89.5 9.28125 84.9375 3.921875 
Q 80.375 -1.421875 72.703125 -1.421875 
Q 64.890625 -1.421875 60.34375 3.921875 
Q 55.8125 9.28125 55.8125 18.40625 
Q 55.8125 27.59375 60.375 32.9375 
Q 64.9375 38.28125 72.703125 38.28125 
z
M 22.3125 68.015625 
Q 18.109375 68.015625 15.6875 64.375 
Q 13.28125 60.75 13.28125 54.390625 
Q 13.28125 47.953125 15.671875 44.328125 
Q 18.0625 40.71875 22.3125 40.71875 
Q 26.5625 40.71875 28.96875 44.328125 
Q 31.390625 47.953125 31.390625 54.390625 
Q 31.390625 60.6875 28.953125 64.34375 
Q 26.515625 68.015625 22.3125 68.015625 
z
M 66.40625 74.21875 
L 74.21875 74.21875 
L 28.609375 -1.421875 
L 20.796875 -1.421875 
z
M 22.3125 74.21875 
Q 30.03125 74.21875 34.609375 68.875 
Q 39.203125 63.53125 39.203125 54.390625 
Q 39.203125 45.171875 34.640625 39.84375 
Q 30.078125 34.515625 22.3125 34.515625 
Q 14.546875 34.515625 10.03125 39.859375 
Q 5.515625 45.21875 5.515625 54.390625 
Q 5.515625 63.484375 10.046875 68.84375 
Q 14.59375 74.21875 22.3125 74.21875 
z
" id="DejaVuSans-25"/>
     </defs>
     <g transform="translate(25.993423 199.970795)rotate(-90)scale(0.12 -0.12)">
      <use xlink:href="#DejaVuSans-54"/>
      <use x="60.865234" xlink:href="#DejaVuSans-72"/>
      <use x="101.978516" xlink:href="#DejaVuSans-61"/>
      <use x="163.257812" xlink:href="#DejaVuSans-6e"/>
      <use x="226.636719" xlink:href="#DejaVuSans-73"/>
      <use x="278.736328" xlink:href="#DejaVuSans-6d"/>
      <use x="376.148438" xlink:href="#DejaVuSans-69"/>
      <use x="403.931641" xlink:href="#DejaVuSans-73"/>
      <use x="456.03125" xlink:href="#DejaVuSans-73"/>
      <use x="508.130859" xlink:href="#DejaVuSans-69"/>
      <use x="535.914062" xlink:href="#DejaVuSans-6f"/>
      <use x="597.095703" xlink:href="#DejaVuSans-6e"/>
      <use x="660.474609" xlink:href="#DejaVuSans-20"/>
      <use x="692.261719" xlink:href="#DejaVuSans-25"/>
     </g>
    </g>
   </g>
   <g id="line2d_14">
    <path clip-path="url(#pcfc215b473)" d="M 289 277.296841 
L 266.536127 277.211467 
L 264.868381 277.070415 
L 258.405864 276.966482 
L 256.84041 276.810582 
L 254.783139 276.29834 
L 253.767125 275.841777 
L 252.258593 274.798734 
L 251.263083 273.777963 
L 250.275602 272.378578 
L 249.296052 270.52263 
L 248.324339 268.124745 
L 247.360368 265.029023 
L 246.404048 261.131532 
L 245.455288 256.350609 
L 244.513998 250.649136 
L 243.580091 243.960299 
L 242.192884 231.870652 
L 240.821808 217.802565 
L 238.571769 191.715357 
L 235.928079 161.084787 
L 234.628681 147.439856 
L 233.770557 140.042046 
L 232.918861 134.600406 
L 232.073521 130.339149 
L 230.817274 125.294682 
L 229.16387 120.116586 
L 227.534648 116.159705 
L 225.135007 111.17834 
L 222.786879 106.067058 
L 219.357702 96.709367 
L 217.499151 90.844571 
L 216.035501 86.059937 
L 214.592005 81.598237 
L 213.877685 78.476532 
L 209.69261 61.171671 
L 208.334848 55.878507 
L 207.328368 51.925337 
L 205.673008 45.867522 
L 204.692818 42.471137 
L 203.400798 38.517967 
L 202.442777 36.472712 
L 201.179813 34.327236 
L 200.866611 33.792723 
L 200.554413 33.625688 
L 200.243217 33.176548 
L 199.315583 32.883308 
L 198.702076 32.979818 
L 197.486693 34.390338 
L 196.884744 35.344296 
L 196.286574 36.472712 
L 195.101433 39.768876 
L 193.640646 44.390187 
L 192.488197 48.428731 
L 191.917275 50.481409 
L 189.946339 58.721819 
L 186.394967 72.103206 
L 185.065372 77.645067 
L 184.015753 81.111979 
L 183.495553 82.28865 
L 181.698604 85.195065 
L 180.437231 85.651628 
L 179.441125 86.512788 
L 178.211911 86.854282 
L 177.7251 86.757773 
L 177.24104 86.264091 
L 176.520055 85.336117 
L 175.331841 84.508364 
L 175.096186 84.289362 
L 174.861189 83.881053 
L 174.626844 83.829087 
L 172.7753 80.759349 
L 171.864725 78.959079 
L 170.740424 76.160309 
L 168.754714 69.731304 
L 167.887494 66.51309 
L 166.39194 60.607463 
L 164.509303 53.083449 
L 163.68672 49.891218 
L 162.066962 44.27883 
L 160.873864 41.030921 
L 159.311223 38.250711 
L 158.350523 37.19282 
L 157.779874 36.966394 
L 157.401816 36.921852 
L 156.838256 37.029497 
L 155.723659 38.239575 
L 154.443988 40.756241 
L 154.082385 41.699062 
L 153.543281 43.343433 
L 153.186059 44.182321 
L 152.476791 46.583918 
L 151.425647 50.184458 
L 150.905726 52.285391 
L 143.999473 79.790544 
L 143.221013 82.162445 
L 143.066377 82.622721 
L 142.75815 81.683611 
L 142.45131 80.54777 
L 141.99363 81.869206 
L 139.750643 88.72879 
L 139.310919 89.430339 
L 139.019377 89.88319 
L 138.584454 90.844571 
L 138.152373 91.193489 
L 137.155084 92.013819 
L 136.73228 92.533484 
L 136.033649 93.40578 
L 135.89482 93.676748 
L 135.756288 93.702731 
L 135.618053 93.509713 
L 135.205112 92.359025 
L 135.068051 92.281075 
L 134.658612 92.596586 
L 134.387097 92.303346 
L 134.25177 92.11404 
L 133.981973 92.102904 
L 133.579404 91.865343 
L 132.124801 89.712443 
L 131.994212 89.545407 
L 131.474557 88.223972 
L 131.216339 87.908461 
L 130.703087 86.780045 
L 130.194037 85.855782 
L 129.689139 84.757061 
L 129.188341 83.34654 
L 128.568035 81.802391 
L 127.710059 79.437913 
L 127.225174 77.979138 
L 126.74415 76.427565 
L 122.69302 60.770786 
L 122.13644 58.424868 
L 120.176104 51.698911 
L 118.592499 47.500757 
L 118.384676 47.200093 
L 117.868469 46.272119 
L 117.765798 46.346357 
L 117.458916 46.119931 
L 117.255266 44.902429 
L 116.850197 40.79336 
L 116.64877 40.782224 
L 116.248113 40.188321 
L 115.455468 39.702062 
L 115.357191 39.746605 
L 115.063418 40.136354 
L 114.868449 39.928488 
L 114.4806 40.566934 
L 114.287713 40.511256 
L 114.191528 40.544663 
L 113.903998 40.982666 
L 113.523001 41.457789 
L 113.239021 42.170473 
L 112.862713 43.699775 
L 112.76905 43.707198 
L 112.396039 43.0836 
L 111.933438 42.255847 
L 110.929788 44.030133 
L 110.390345 45.893505 
L 110.122705 46.561647 
L 107.182981 59.248909 
L 106.848046 60.752227 
L 106.598302 61.93261 
L 103.461069 75.841086 
L 103.383208 75.803967 
L 103.15037 76.776484 
L 102.382254 80.254531 
L 102.154191 80.963503 
L 102.00275 81.241895 
L 101.626234 83.44305 
L 101.401744 84.430414 
L 101.252672 84.144598 
L 101.17831 83.903325 
L 101.104065 84.107479 
L 100.808246 87.845359 
L 100.734579 87.708019 
L 100.58759 87.414779 
L 100.367963 87.815664 
L 100.076716 90.076209 
L 100.004185 89.868342 
L 99.859461 89.463746 
L 99.715184 90.722079 
L 99.285011 94.753198 
L 99.213701 94.693808 
L 99.071408 93.179354 
L 99.000425 93.220185 
L 98.858785 93.446611 
L 98.717578 92.919521 
L 98.647135 93.071709 
L 98.436452 94.801453 
L 98.366437 94.500789 
L 98.157032 93.461458 
L 98.087442 93.687884 
L 97.879304 94.946217 
L 97.60325 95.503001 
L 97.328858 96.546044 
L 97.260517 96.627706 
L 96.852622 99.782818 
L 96.784995 99.857056 
L 96.515495 98.086481 
L 96.381346 98.312907 
L 96.114243 97.863767 
L 95.981286 98.216397 
L 95.584765 101.382645 
L 95.453371 101.835496 
L 95.387818 101.716716 
L 95.061498 99.998108 
L 94.80216 100.2765 
L 94.033165 102.158431 
L 93.716683 101.787242 
L 93.590729 102.19555 
L 93.152737 104.734488 
L 92.842569 106.649826 
L 92.65753 107.00988 
L 92.596026 107.050711 
L 92.41204 106.553317 
L 92.228837 105.996532 
L 92.046413 105.907447 
L 91.744088 106.067058 
L 91.44389 106.14872 
L 91.384104 106.048499 
L 91.324401 106.111601 
L 90.790828 106.586724 
L 90.731956 106.449384 
L 90.614457 106.319467 
L 90.380438 105.799802 
L 90.263916 105.792378 
L 90.205775 105.610495 
L 90.147716 105.64019 
L 90.031838 105.662462 
L 89.974019 105.725564 
L 89.286373 104.44496 
L 89.116225 104.36701 
L 89.00318 104.166567 
L 88.946774 103.929006 
L 88.890445 103.973549 
L 88.554075 103.654326 
L 88.331348 103.186627 
L 87.834598 102.162143 
L 87.779775 102.277212 
L 87.56122 101.698156 
L 87.398071 101.557104 
L 87.073734 100.220822 
L 86.858947 99.782818 
L 86.698606 99.359662 
L 86.485809 98.884539 
L 86.274136 98.034515 
L 86.221393 98.090193 
L 86.168719 97.704156 
L 86.116114 97.893462 
L 86.063579 97.845208 
L 85.854129 96.902386 
L 85.749816 97.076845 
L 85.54201 96.226821 
L 85.490228 96.531196 
L 85.438514 96.18599 
L 85.335288 95.451035 
L 85.180954 94.18899 
L 85.129643 94.148159 
L 84.925067 92.867555 
L 84.874089 93.168218 
L 84.823177 92.856419 
L 84.772331 92.949216 
L 84.721551 92.841571 
L 84.569604 91.479305 
L 84.468633 92.002683 
L 84.418246 91.850495 
L 84.217343 88.981199 
L 84.167279 89.734714 
L 84.11728 90.5105 
L 84.017473 90.477093 
L 83.967665 90.473381 
L 83.769073 87.537271 
L 83.670157 88.16087 
L 83.620794 88.097768 
L 83.571495 88.324193 
L 83.325935 85.878054 
L 83.13061 88.268515 
L 83.081934 88.146022 
L 82.936274 83.517288 
L 82.887843 83.851358 
L 82.791166 85.028029 
L 82.646607 81.535135 
L 82.598542 81.446049 
L 82.550538 82.967927 
L 82.502594 82.79718 
L 82.45471 82.244107 
L 82.406887 82.786044 
L 82.263777 83.591526 
L 82.121205 80.202564 
L 82.073799 80.362176 
L 82.026453 81.394083 
L 81.979167 80.748213 
" style="fill:none;stroke:#1f77b4;stroke-linecap:square;stroke-width:1.5;"/>
   </g>
   <g id="line2d_15">
    <path clip-path="url(#pcfc215b473)" d="M 289 277.297764 
L 286.410102 277.319112 
L 285.119584 277.296841 
L 283.205956 277.300553 
L 280.074302 277.285705 
L 266.536127 277.204043 
L 264.317206 277.103822 
L 259.460417 277.074127 
L 256.84041 276.717785 
L 254.783139 276.209255 
L 253.767125 275.74898 
L 252.759389 275.110534 
L 251.759828 274.149152 
L 250.768345 272.87226 
L 249.784841 271.231602 
L 248.809222 268.974769 
L 247.841391 266.142592 
L 246.881257 262.620002 
L 245.928729 258.317914 
L 244.983715 253.236328 
L 243.580091 243.934316 
L 242.192884 232.664998 
L 240.821808 219.75131 
L 238.571769 196.143649 
L 235.493306 164.262171 
L 234.198811 152.369254 
L 233.34391 146.200083 
L 232.495401 141.601043 
L 230.817274 134.340573 
L 229.16387 128.379268 
L 227.131059 122.06162 
L 223.954608 112.024652 
L 221.631616 103.572664 
L 215.672754 78.361463 
L 214.951013 75.644355 
L 213.877685 70.418005 
L 211.068752 56.646869 
L 209.69261 50.945396 
L 206.995099 41.350144 
L 204.368227 34.82463 
L 204.044697 34.27527 
L 203.080419 33.291617 
L 202.442777 33.005801 
L 202.125503 32.835054 
L 201.809255 32.797935 
L 201.494026 32.645747 
L 200.866611 32.938987 
L 200.243217 33.681366 
L 199.933016 34.004301 
L 198.092458 37.315313 
L 196.585189 41.925488 
L 195.396329 46.253559 
L 191.349846 62.136764 
L 190.505178 65.692761 
L 189.66819 68.395022 
L 188.016834 73.736441 
L 187.472975 75.24347 
L 184.015753 85.555119 
L 183.495553 86.212124 
L 183.236595 86.45711 
L 182.208287 86.902537 
L 181.698604 87.29971 
L 181.444869 87.307134 
L 181.191868 87.188353 
L 180.437231 86.382872 
L 179.441125 86.082208 
L 178.947335 85.71473 
L 177.482728 84.289362 
L 177.000034 83.190641 
L 176.281077 81.405219 
L 175.80513 80.56633 
L 173.927707 76.96579 
L 170.740424 67.957018 
L 169.411265 63.268893 
L 168.537037 59.991288 
L 168.103429 58.465699 
L 164.509303 44.701987 
L 162.670447 39.479348 
L 161.866834 37.719909 
L 161.468118 36.999802 
L 161.071442 36.405898 
L 159.893495 35.463076 
L 159.504822 35.288617 
L 158.733351 35.611552 
L 158.541696 35.600417 
L 157.401816 36.884733 
L 156.838256 37.990878 
L 155.355788 41.554298 
L 154.443988 44.549799 
L 153.722545 47.081312 
L 153.008097 49.969168 
L 152.124721 53.417519 
L 151.078618 57.589691 
L 150.561178 59.464199 
L 149.876986 62.537649 
L 146.551163 75.525575 
L 145.583268 78.799467 
L 144.945396 81.041453 
L 144.470815 82.578178 
L 143.221013 85.800104 
L 143.066377 86.082208 
L 142.912089 85.985699 
L 142.604557 85.566254 
L 142.45131 85.454898 
L 141.388157 88.168294 
L 139.603746 92.217973 
L 137.865885 93.223897 
L 137.155084 93.19049 
L 137.013845 93.264728 
L 136.312201 92.923233 
L 136.172775 92.930657 
L 135.756288 93.383508 
L 135.480112 92.748774 
L 135.068051 91.705731 
L 134.25177 90.993047 
L 133.713311 90.72579 
L 132.914071 88.687959 
L 132.255661 87.210625 
L 131.345315 84.65684 
L 130.44804 82.27009 
L 128.444725 76.342192 
L 127.104558 71.780271 
L 125.440862 65.4552 
L 121.256905 49.772437 
L 120.498203 47.630673 
L 120.069141 46.498545 
L 119.115448 44.37534 
L 119.010469 44.334509 
L 118.801096 43.970743 
L 118.696701 44.02271 
L 118.488491 43.818555 
L 117.868469 43.395399 
L 117.561022 43.948472 
L 117.356997 44.401323 
L 117.255266 44.171185 
L 116.951186 40.277406 
L 116.749392 38.388051 
L 116.248113 36.814207 
L 116.148403 36.791935 
L 116.048874 36.921852 
L 115.850356 36.795647 
L 115.455468 36.947835 
L 114.965846 37.708774 
L 114.868449 37.757028 
L 114.287713 39.022785 
L 113.428174 40.982666 
L 113.144695 42.278118 
L 112.675552 44.579494 
L 112.489047 44.646308 
L 112.210513 43.384263 
L 112.025635 42.742105 
L 111.933438 42.578782 
L 111.749525 42.86831 
L 111.657809 42.838615 
L 111.566253 43.131854 
L 111.474855 43.076176 
L 110.839493 44.568358 
L 108.804903 53.102008 
L 108.459123 54.490258 
L 108.287107 55.091585 
L 107.015235 61.171671 
L 106.848046 61.910338 
L 104.724072 71.242046 
L 104.009619 74.278377 
L 103.461069 76.568617 
L 103.383208 76.527787 
L 103.15037 77.117978 
L 102.918648 77.871493 
L 102.764782 78.220411 
L 102.306113 80.310209 
L 102.078411 81.111979 
L 101.776484 82.318345 
L 101.626234 82.589313 
L 101.327149 84.025817 
L 101.17831 84.100055 
L 101.029937 84.478669 
L 100.734579 86.126751 
L 100.58759 85.822375 
L 100.149358 88.08292 
L 100.076716 88.146022 
L 99.931767 87.897325 
L 99.859461 87.685747 
L 99.427961 89.968564 
L 99.213701 91.167506 
L 99.071408 90.001971 
L 98.929551 90.573603 
L 98.858785 91.182354 
L 98.788127 91.022742 
L 98.647135 90.380584 
L 98.5768 90.5105 
L 98.366437 91.928445 
L 98.157032 90.989335 
L 98.087442 91.141523 
L 97.879304 92.184566 
L 97.672107 92.500077 
L 97.397301 93.557967 
L 97.19228 94.693808 
L 97.124144 95.206049 
L 97.056111 95.191202 
L 96.98818 95.206049 
L 96.784995 95.796241 
L 96.717469 95.603222 
L 96.515495 94.226109 
L 96.44837 94.352313 
L 96.18087 96.237957 
L 96.047715 96.130312 
L 95.981286 95.926157 
L 95.716548 97.225321 
L 95.584765 98.04565 
L 95.387818 98.802877 
L 95.126571 97.466594 
L 95.061498 97.529697 
L 94.544333 98.624706 
L 94.351948 98.780606 
L 94.224157 99.478442 
L 93.969685 100.929794 
L 93.843001 100.881539 
L 93.779796 100.695944 
L 93.716683 100.78503 
L 93.590729 100.836996 
L 93.527888 100.989184 
L 93.465138 100.952065 
L 93.215038 101.104253 
L 93.028403 101.345526 
L 92.53461 102.19555 
L 92.41204 101.935718 
L 92.167943 101.275 
L 91.925226 101.761259 
L 91.683879 101.56824 
L 91.503761 101.538545 
L 91.205247 101.156219 
L 91.086427 101.05971 
L 90.790828 100.536333 
L 90.614457 100.462095 
L 90.205775 100.202262 
L 90.031838 99.853344 
L 89.916279 99.909022 
L 89.628776 99.497002 
L 89.286373 99.133236 
L 88.946774 97.982548 
L 88.834192 98.157007 
L 88.778016 98.242381 
L 88.554075 97.61507 
L 88.49828 97.737563 
L 88.44256 97.774682 
L 88.220436 96.742775 
L 88.165093 96.664825 
L 88.109824 96.215685 
L 88.05463 96.41984 
L 87.999511 96.546044 
L 87.944466 96.442111 
L 87.889495 96.34189 
L 87.779775 95.632918 
L 87.725026 95.870479 
L 87.56122 95.547544 
L 87.343834 94.556468 
L 87.289669 94.805165 
L 87.073734 94.073921 
L 86.966197 93.951428 
L 86.645301 92.841571 
L 86.432786 92.589162 
L 86.274136 92.028666 
L 86.063579 90.840859 
L 86.011113 91.059861 
L 85.801938 89.868342 
L 85.749816 89.935157 
L 85.438514 88.535772 
L 85.386867 88.732502 
L 85.335288 88.829011 
L 85.180954 88.190565 
L 85.129643 88.472669 
L 84.721551 85.243319 
L 84.670836 85.562543 
L 84.519086 86.3606 
L 84.217343 83.517288 
L 84.167279 83.524711 
L 84.067344 84.634568 
L 83.868242 82.567042 
L 83.818626 82.58189 
L 83.769073 82.852858 
L 83.719584 82.722942 
L 83.522257 80.855858 
L 83.423971 81.880341 
L 83.374922 81.620509 
L 83.228149 79.757137 
L 83.179348 80.0578 
L 83.13061 79.965003 
L 83.081934 80.106055 
L 82.984765 78.862569 
L 82.936274 80.035529 
L 82.839474 79.99841 
L 82.791166 79.582677 
L 82.742919 77.808391 
L 82.646607 77.98285 
L 82.598542 77.797255 
L 82.45471 75.740865 
L 82.406887 75.815103 
L 82.359124 76.245682 
L 82.31142 75.867069 
L 82.263777 75.82995 
L 82.121205 74.103918 
L 81.979167 79.103843 
L 81.979167 79.103843 
" style="fill:none;stroke:#ff7f0e;stroke-linecap:square;stroke-width:1.5;"/>
   </g>
   <g id="line2d_16">
    <path clip-path="url(#pcfc215b473)" d="M 289 277.37479 
L 265.421915 277.285705 
L 262.677697 277.218891 
L 259.460417 277.166924 
L 256.322904 276.751192 
L 254.783139 276.198119 
L 253.262229 275.400062 
L 252.258593 274.572309 
L 251.263083 273.492147 
L 250.275602 272.0111 
L 249.296052 270.132881 
L 248.324339 267.768402 
L 247.360368 264.869411 
L 246.404048 261.435907 
L 244.983715 255.025462 
L 243.580091 247.067156 
L 242.192884 237.605532 
L 240.821808 226.633166 
L 239.018315 210.319381 
L 233.34391 156.931175 
L 232.073521 148.623951 
L 229.987516 136.779289 
L 223.954608 104.500638 
L 222.015331 92.351601 
L 217.131326 61.472335 
L 216.035501 55.989864 
L 214.234232 48.592054 
L 213.168249 42.549087 
L 211.763832 36.279694 
L 211.068752 33.98203 
L 210.034908 31.198107 
L 209.011455 29.609416 
L 208.334848 29.060055 
L 207.662745 28.343659 
L 206.995099 28.039284 
L 205.345203 28.740832 
L 205.018475 28.978393 
L 203.400798 31.754892 
L 202.125503 34.772664 
L 200.243217 40.611477 
L 194.514392 62.006848 
L 191.917275 70.443988 
L 190.785876 73.866357 
L 190.505178 74.46026 
L 190.225334 74.749788 
L 189.66819 75.547846 
L 188.838776 76.538922 
L 188.289991 77.203352 
L 188.016834 77.537422 
L 187.744497 77.667339 
L 186.663264 78.866281 
L 184.539016 81.598237 
L 183.495553 82.140174 
L 183.236595 81.969427 
L 182.720942 81.189929 
L 182.208287 80.132038 
L 181.698604 79.241183 
L 180.939596 76.861857 
L 180.187131 74.946519 
L 178.701495 71.11213 
L 177.7251 69.118841 
L 177.000034 65.856084 
L 176.281077 62.619311 
L 175.568154 60.362478 
L 175.096186 59.05589 
L 173.927707 55.459062 
L 172.318763 50.121355 
L 170.964061 45.964031 
L 167.672134 35.678366 
L 167.243133 34.683578 
L 166.603893 33.135717 
L 165.759434 31.495059 
L 165.131907 30.481711 
L 164.509303 29.494347 
L 164.302851 29.501771 
L 163.891562 29.138005 
L 163.68672 29.134293 
L 163.278629 28.855901 
L 162.468766 28.633187 
L 162.066962 28.878172 
L 161.66722 29.342159 
L 161.071442 30.095674 
L 160.480218 31.138717 
L 160.088572 31.799435 
L 158.541696 35.956759 
L 157.779874 38.068828 
L 157.401816 39.275194 
L 156.651336 41.903217 
L 156.278886 43.291466 
L 155.723659 45.195669 
L 154.625454 49.46435 
L 153.543281 54.24156 
L 152.653465 57.54886 
L 151.949322 60.295664 
L 151.599786 61.546573 
L 150.047424 67.188655 
L 149.030823 70.262105 
L 148.527898 71.576117 
L 147.203938 75.343692 
L 146.876792 76.052664 
L 146.065539 77.9049 
L 145.904411 78.075647 
L 144.945396 80.347328 
L 144.313343 81.060012 
L 143.843074 81.813527 
L 143.376 82.158733 
L 143.221013 82.214412 
L 143.066377 82.388871 
L 142.45131 84.809028 
L 142.145847 85.035453 
L 141.99363 85.198777 
L 141.841753 85.187641 
L 141.388157 85.510576 
L 141.087443 85.685035 
L 140.937588 85.770409 
L 139.897865 88.027242 
L 139.750643 88.038377 
L 139.457171 87.589238 
L 138.584454 86.24182 
L 137.865885 85.273015 
L 136.172775 82.333193 
L 135.89482 82.192141 
L 135.756288 81.987986 
L 134.794802 78.743789 
L 134.658612 78.554482 
L 134.25177 77.55227 
L 133.8475 76.96579 
L 133.579404 76.149173 
L 133.04658 73.944307 
L 132.781839 73.231623 
L 128.815404 59.378825 
L 128.19885 57.444927 
L 125.206926 46.639597 
L 124.741802 45.00265 
L 124.165492 43.20238 
L 123.708469 41.695351 
L 123.368022 40.648596 
L 122.025762 37.745893 
L 121.475534 36.936699 
L 121.039106 36.342796 
L 120.822131 36.216591 
L 120.498203 35.904792 
L 120.283268 35.986454 
L 119.749456 35.696926 
L 119.537329 35.730333 
L 119.431563 35.689502 
L 119.220623 35.878809 
L 119.010469 35.941911 
L 118.905685 35.945623 
L 118.488491 36.561798 
L 117.971329 37.950047 
L 117.868469 38.068828 
L 117.356997 41.116295 
L 117.255266 41.016073 
L 117.052361 37.627112 
L 116.64877 30.440881 
L 116.348004 29.22709 
L 116.148403 28.900444 
L 115.949525 29.074903 
L 114.868449 32.24115 
L 113.239021 39.475636 
L 112.675552 45.065752 
L 112.582217 44.939548 
L 112.396039 43.347144 
L 112.025635 40.229151 
L 111.841401 39.542451 
L 111.657809 39.419958 
L 111.566253 39.531315 
L 111.474855 39.382839 
L 111.201613 39.824555 
L 110.839493 41.242499 
L 110.659369 41.880945 
L 109.945042 44.549799 
L 109.679686 45.540875 
L 108.631721 50.039694 
L 108.459123 50.603902 
L 106.349797 59.081873 
L 106.267235 59.200654 
L 105.530272 62.125628 
L 104.964552 63.907339 
L 104.325868 66.08251 
L 103.539056 68.554633 
L 103.461069 68.747652 
L 103.383208 68.543497 
L 103.305471 68.610312 
L 103.15037 68.524938 
L 102.918648 68.751364 
L 102.841654 68.751364 
L 101.476457 72.745364 
L 101.401744 72.674838 
L 101.104065 73.090571 
L 100.808246 75.139537 
L 100.58759 74.025968 
L 100.294982 75.570117 
L 100.222114 75.351115 
L 100.076716 75.807679 
L 99.859461 74.976214 
L 99.787267 75.10613 
L 99.643212 75.514439 
L 99.499601 75.566405 
L 99.213701 77.585677 
L 99.071408 76.379311 
L 99.000425 76.438701 
L 98.858785 76.891552 
L 98.717578 76.164021 
L 98.647135 76.204852 
L 98.436452 78.183292 
L 98.366437 77.886341 
L 98.157032 75.373387 
L 98.087442 75.451337 
L 97.810134 77.162521 
L 97.672107 77.084571 
L 97.534497 77.377811 
L 97.465848 77.325844 
L 97.260517 78.855146 
L 97.19228 79.534423 
L 97.124144 79.382235 
L 96.852622 77.322132 
L 96.784995 77.440913 
L 96.717469 77.574541 
L 96.515495 77.251606 
L 96.44837 77.344404 
L 96.314422 78.19814 
L 96.247596 79.371099 
L 96.18087 78.862569 
L 96.047715 77.9049 
L 95.981286 76.869281 
L 95.914954 77.440913 
L 95.650608 78.33548 
L 95.453371 79.519575 
L 95.387818 79.400794 
L 95.126571 77.548558 
L 94.931639 78.079359 
L 94.544333 78.829162 
L 94.415983 78.584177 
L 94.288006 78.710382 
L 94.033165 80.009545 
L 93.906297 79.616084 
L 93.716683 78.829162 
L 93.653661 78.851434 
L 93.402478 79.341404 
L 93.339908 79.263454 
L 93.215038 79.382235 
L 93.152737 79.389659 
L 92.904425 79.939019 
L 92.596026 80.146886 
L 92.41204 79.604949 
L 92.228837 79.055588 
L 91.623755 78.695534 
L 91.384104 78.086783 
L 91.324401 78.205564 
L 90.438821 76.401582 
L 90.147716 76.0638 
L 90.031838 75.82995 
L 89.916279 76.011833 
L 89.686118 75.310285 
L 89.457221 74.742364 
L 89.400194 74.857433 
L 89.172863 73.988849 
L 88.946774 73.357827 
L 88.834192 73.428353 
L 87.779775 70.336343 
L 87.725026 70.440276 
L 87.670351 70.700109 
L 87.615748 70.443988 
L 87.56122 70.31036 
L 87.343834 69.103994 
L 87.289669 69.007484 
L 87.235577 69.170808 
L 87.073734 68.506378 
L 87.01993 68.287377 
L 86.966197 68.343055 
L 86.912536 68.317072 
L 86.698606 67.17752 
L 86.645301 67.251757 
L 86.538902 67.611811 
L 86.32695 66.282952 
L 86.274136 66.379462 
L 85.801938 63.677201 
L 85.593859 64.28224 
L 85.438514 63.213214 
L 85.386867 63.202078 
L 85.335288 63.320859 
L 84.670836 59.404808 
L 84.620187 59.991288 
L 84.569604 59.553284 
L 84.367923 58.755227 
L 84.217343 57.277892 
L 84.11728 58.172459 
L 83.917922 56.320222 
L 83.818626 56.168035 
L 83.769073 55.06189 
L 83.670157 55.139839 
L 83.571495 55.796845 
L 83.522257 55.451639 
L 83.473083 55.47391 
L 83.179348 51.96988 
L 83.13061 51.973592 
L 83.081934 52.593478 
L 82.887843 50.214153 
L 82.791166 50.808056 
L 82.646607 48.933549 
L 82.359124 52.593478 
L 82.263777 52.652869 
L 82.216193 51.001075 
L 82.073799 48.729394 
L 82.026453 49.857811 
L 81.979167 50.956532 
L 81.979167 50.956532 
" style="fill:none;stroke:#2ca02c;stroke-linecap:square;stroke-width:1.5;"/>
   </g>
   <g id="patch_3">
    <path d="M 54.759048 289.903926 
L 54.759048 15.569539 
" style="fill:none;stroke:#000000;stroke-linecap:square;stroke-linejoin:miter;stroke-width:0.8;"/>
   </g>
   <g id="patch_4">
    <path d="M 272.52 289.903926 
L 272.52 15.569539 
" style="fill:none;stroke:#000000;stroke-linecap:square;stroke-linejoin:miter;stroke-width:0.8;"/>
   </g>
   <g id="patch_5">
    <path d="M 54.759048 289.903926 
L 272.52 289.903926 
" style="fill:none;stroke:#000000;stroke-linecap:square;stroke-linejoin:miter;stroke-width:0.8;"/>
   </g>
   <g id="patch_6">
    <path d="M 54.759048 15.569539 
L 272.52 15.569539 
" style="fill:none;stroke:#000000;stroke-linecap:square;stroke-linejoin:miter;stroke-width:0.8;"/>
   </g>
   <g id="legend_1">
    <g id="patch_7">
     <path d="M 63.159048 283.903926 
L 160.719048 283.903926 
Q 163.119048 283.903926 163.119048 281.503926 
L 163.119048 225.703926 
Q 163.119048 223.303926 160.719048 223.303926 
L 63.159048 223.303926 
Q 60.759048 223.303926 60.759048 225.703926 
L 60.759048 281.503926 
Q 60.759048 283.903926 63.159048 283.903926 
z
" style="fill:#ffffff;opacity:0.8;stroke:#cccccc;stroke-linejoin:miter;"/>
    </g>
    <g id="line2d_17">
     <path d="M 65.559048 234.488301 
L 89.559048 234.488301 
" style="fill:none;stroke:#1f77b4;stroke-linecap:square;stroke-width:1.5;"/>
    </g>
    <g id="line2d_18"/>
    <g id="text_16">
     <!-- $\theta_0 = 0^{\degree}$ -->
     <defs>
      <path d="M 45.515625 34.671875 
L 14.453125 34.671875 
Q 12.359375 20.0625 14.5 13.875 
Q 17.1875 6.25 24.46875 6.25 
Q 31.78125 6.25 37.359375 13.921875 
Q 42.234375 20.65625 45.515625 34.671875 
z
M 47.015625 42.96875 
Q 48.34375 56.84375 46.625 61.71875 
Q 43.953125 69.4375 36.765625 69.4375 
Q 29.296875 69.4375 23.828125 61.8125 
Q 19.53125 55.671875 16.15625 42.96875 
z
M 38.1875 76.765625 
Q 49.90625 76.765625 54.59375 66.40625 
Q 59.28125 56.109375 55.71875 37.84375 
Q 52.203125 19.625 43.453125 9.28125 
Q 34.765625 -1.125 23.046875 -1.125 
Q 11.28125 -1.125 6.640625 9.28125 
Q 2 19.625 5.515625 37.84375 
Q 9.078125 56.109375 17.71875 66.40625 
Q 26.421875 76.765625 38.1875 76.765625 
z
" id="DejaVuSans-Oblique-3b8"/>
      <path d="M 10.59375 45.40625 
L 73.1875 45.40625 
L 73.1875 37.203125 
L 10.59375 37.203125 
z
M 10.59375 25.484375 
L 73.1875 25.484375 
L 73.1875 17.1875 
L 10.59375 17.1875 
z
" id="DejaVuSans-3d"/>
      <path d="M 25 67.921875 
Q 21.09375 67.921875 18.40625 65.203125 
Q 15.71875 62.5 15.71875 58.59375 
Q 15.71875 54.734375 18.40625 52.078125 
Q 21.09375 49.421875 25 49.421875 
Q 28.90625 49.421875 31.59375 52.078125 
Q 34.28125 54.734375 34.28125 58.59375 
Q 34.28125 62.453125 31.5625 65.1875 
Q 28.859375 67.921875 25 67.921875 
z
M 25 74.21875 
Q 28.125 74.21875 31 73.015625 
Q 33.890625 71.828125 35.984375 69.578125 
Q 38.234375 67.390625 39.359375 64.59375 
Q 40.484375 61.8125 40.484375 58.59375 
Q 40.484375 52.15625 35.96875 47.6875 
Q 31.453125 43.21875 24.90625 43.21875 
Q 18.3125 43.21875 13.90625 47.609375 
Q 9.515625 52 9.515625 58.59375 
Q 9.515625 65.140625 14 69.671875 
Q 18.5 74.21875 25 74.21875 
z
" id="DejaVuSans-b0"/>
     </defs>
     <g transform="translate(99.159048 238.688301)scale(0.12 -0.12)">
      <use transform="translate(0 0.765625)" xlink:href="#DejaVuSans-Oblique-3b8"/>
      <use transform="translate(61.181641 -15.640625)scale(0.7)" xlink:href="#DejaVuSans-30"/>
      <use transform="translate(127.93457 0.765625)" xlink:href="#DejaVuSans-3d"/>
      <use transform="translate(231.206055 0.765625)" xlink:href="#DejaVuSans-30"/>
      <use transform="translate(295.786133 39.046875)scale(0.7)" xlink:href="#DejaVuSans-b0"/>
     </g>
    </g>
    <g id="line2d_19">
     <path d="M 65.559048 253.448301 
L 89.559048 253.448301 
" style="fill:none;stroke:#ff7f0e;stroke-linecap:square;stroke-width:1.5;"/>
    </g>
    <g id="line2d_20"/>
    <g id="text_17">
     <!-- $\theta_1 = 18.8^{\degree}$ -->
     <g transform="translate(99.159048 257.648301)scale(0.12 -0.12)">
      <use transform="translate(0 0.765625)" xlink:href="#DejaVuSans-Oblique-3b8"/>
      <use transform="translate(61.181641 -15.640625)scale(0.7)" xlink:href="#DejaVuSans-31"/>
      <use transform="translate(127.93457 0.765625)" xlink:href="#DejaVuSans-3d"/>
      <use transform="translate(231.206055 0.765625)" xlink:href="#DejaVuSans-31"/>
      <use transform="translate(294.829102 0.765625)" xlink:href="#DejaVuSans-38"/>
      <use transform="translate(358.452148 0.765625)" xlink:href="#DejaVuSans-2e"/>
      <use transform="translate(390.239258 0.765625)" xlink:href="#DejaVuSans-38"/>
      <use transform="translate(454.819336 39.046875)scale(0.7)" xlink:href="#DejaVuSans-b0"/>
     </g>
    </g>
    <g id="line2d_21">
     <path d="M 65.559048 272.408301 
L 89.559048 272.408301 
" style="fill:none;stroke:#2ca02c;stroke-linecap:square;stroke-width:1.5;"/>
    </g>
    <g id="line2d_22"/>
    <g id="text_18">
     <!-- $\theta_2 = 33.7^{\degree}$ -->
     <g transform="translate(99.159048 276.608301)scale(0.12 -0.12)">
      <use transform="translate(0 0.765625)" xlink:href="#DejaVuSans-Oblique-3b8"/>
      <use transform="translate(61.181641 -15.640625)scale(0.7)" xlink:href="#DejaVuSans-32"/>
      <use transform="translate(127.93457 0.765625)" xlink:href="#DejaVuSans-3d"/>
      <use transform="translate(231.206055 0.765625)" xlink:href="#DejaVuSans-33"/>
      <use transform="translate(294.829102 0.765625)" xlink:href="#DejaVuSans-33"/>
      <use transform="translate(358.452148 0.765625)" xlink:href="#DejaVuSans-2e"/>
      <use transform="translate(390.239258 0.765625)" xlink:href="#DejaVuSans-37"/>
      <use transform="translate(454.819336 39.046875)scale(0.7)" xlink:href="#DejaVuSans-b0"/>
     </g>
    </g>
   </g>
  </g>
 </g>
 <defs>
  <clipPath id="pcfc215b473">
   <rect height="274.334387" width="217.760952" x="54.759048" y="15.569539"/>
  </clipPath>
 </defs>
</svg>
