<?xml version="1.0" encoding="utf-8" standalone="no"?>
<!DOCTYPE svg PUBLIC "-//W3C//DTD SVG 1.1//EN"
  "http://www.w3.org/Graphics/SVG/1.1/DTD/svg11.dtd">
<!-- Created with matplotlib (http://matplotlib.org/) -->
<svg height="324pt" version="1.1" viewBox="0 0 432 324" width="432pt" xmlns="http://www.w3.org/2000/svg" xmlns:xlink="http://www.w3.org/1999/xlink">
 <defs>
  <style type="text/css">
*{stroke-linecap:butt;stroke-linejoin:round;}
  </style>
 </defs>
 <g id="figure_1">
  <g id="patch_1">
   <path d="M 0 324 
L 432 324 
L 432 0 
L 0 0 
z
" style="fill:#ffffff;"/>
  </g>
  <g id="axes_1">
   <g id="patch_2">
    <path d="M 68.24 274.912 
L 414.334325 274.912 
L 414.334325 15.48 
L 68.24 15.48 
z
" style="fill:#ffffff;"/>
   </g>
   <g id="matplotlib.axis_1">
    <g id="xtick_1">
     <g id="line2d_1">
      <defs>
       <path d="M 0 0 
L 0 3.5 
" id="m9f81aae279" style="stroke:#000000;stroke-width:0.8;"/>
      </defs>
      <g>
       <use style="fill-opacity:0;stroke:#000000;stroke-width:0.8;" x="102.013318" xlink:href="#m9f81aae279" y="274.912"/>
      </g>
     </g>
     <g id="text_1">
      <!-- $\mathdefault{10^{2}}$ -->
      <defs>
       <path d="M 12.40625 8.296875 
L 28.515625 8.296875 
L 28.515625 63.921875 
L 10.984375 60.40625 
L 10.984375 69.390625 
L 28.421875 72.90625 
L 38.28125 72.90625 
L 38.28125 8.296875 
L 54.390625 8.296875 
L 54.390625 0 
L 12.40625 0 
z
" id="DejaVuSans-31"/>
       <path d="M 31.78125 66.40625 
Q 24.171875 66.40625 20.328125 58.90625 
Q 16.5 51.421875 16.5 36.375 
Q 16.5 21.390625 20.328125 13.890625 
Q 24.171875 6.390625 31.78125 6.390625 
Q 39.453125 6.390625 43.28125 13.890625 
Q 47.125 21.390625 47.125 36.375 
Q 47.125 51.421875 43.28125 58.90625 
Q 39.453125 66.40625 31.78125 66.40625 
z
M 31.78125 74.21875 
Q 44.046875 74.21875 50.515625 64.515625 
Q 56.984375 54.828125 56.984375 36.375 
Q 56.984375 17.96875 50.515625 8.265625 
Q 44.046875 -1.421875 31.78125 -1.421875 
Q 19.53125 -1.421875 13.0625 8.265625 
Q 6.59375 17.96875 6.59375 36.375 
Q 6.59375 54.828125 13.0625 64.515625 
Q 19.53125 74.21875 31.78125 74.21875 
z
" id="DejaVuSans-30"/>
       <path d="M 19.1875 8.296875 
L 53.609375 8.296875 
L 53.609375 0 
L 7.328125 0 
L 7.328125 8.296875 
Q 12.9375 14.109375 22.625 23.890625 
Q 32.328125 33.6875 34.8125 36.53125 
Q 39.546875 41.84375 41.421875 45.53125 
Q 43.3125 49.21875 43.3125 52.78125 
Q 43.3125 58.59375 39.234375 62.25 
Q 35.15625 65.921875 28.609375 65.921875 
Q 23.96875 65.921875 18.8125 64.3125 
Q 13.671875 62.703125 7.8125 59.421875 
L 7.8125 69.390625 
Q 13.765625 71.78125 18.9375 73 
Q 24.125 74.21875 28.421875 74.21875 
Q 39.75 74.21875 46.484375 68.546875 
Q 53.21875 62.890625 53.21875 53.421875 
Q 53.21875 48.921875 51.53125 44.890625 
Q 49.859375 40.875 45.40625 35.40625 
Q 44.1875 33.984375 37.640625 27.21875 
Q 31.109375 20.453125 19.1875 8.296875 
z
" id="DejaVuSans-32"/>
      </defs>
      <g transform="translate(91.453318 291.030125)scale(0.12 -0.12)">
       <use transform="translate(0 0.765625)" xlink:href="#DejaVuSans-31"/>
       <use transform="translate(63.623047 0.765625)" xlink:href="#DejaVuSans-30"/>
       <use transform="translate(128.203125 39.046875)scale(0.7)" xlink:href="#DejaVuSans-32"/>
      </g>
     </g>
    </g>
    <g id="xtick_2">
     <g id="line2d_2">
      <g>
       <use style="fill-opacity:0;stroke:#000000;stroke-width:0.8;" x="163.227633" xlink:href="#m9f81aae279" y="274.912"/>
      </g>
     </g>
     <g id="text_2">
      <!-- $\mathdefault{10^{3}}$ -->
      <defs>
       <path d="M 40.578125 39.3125 
Q 47.65625 37.796875 51.625 33 
Q 55.609375 28.21875 55.609375 21.1875 
Q 55.609375 10.40625 48.1875 4.484375 
Q 40.765625 -1.421875 27.09375 -1.421875 
Q 22.515625 -1.421875 17.65625 -0.515625 
Q 12.796875 0.390625 7.625 2.203125 
L 7.625 11.71875 
Q 11.71875 9.328125 16.59375 8.109375 
Q 21.484375 6.890625 26.8125 6.890625 
Q 36.078125 6.890625 40.9375 10.546875 
Q 45.796875 14.203125 45.796875 21.1875 
Q 45.796875 27.640625 41.28125 31.265625 
Q 36.765625 34.90625 28.71875 34.90625 
L 20.21875 34.90625 
L 20.21875 43.015625 
L 29.109375 43.015625 
Q 36.375 43.015625 40.234375 45.921875 
Q 44.09375 48.828125 44.09375 54.296875 
Q 44.09375 59.90625 40.109375 62.90625 
Q 36.140625 65.921875 28.71875 65.921875 
Q 24.65625 65.921875 20.015625 65.03125 
Q 15.375 64.15625 9.8125 62.3125 
L 9.8125 71.09375 
Q 15.4375 72.65625 20.34375 73.4375 
Q 25.25 74.21875 29.59375 74.21875 
Q 40.828125 74.21875 47.359375 69.109375 
Q 53.90625 64.015625 53.90625 55.328125 
Q 53.90625 49.265625 50.4375 45.09375 
Q 46.96875 40.921875 40.578125 39.3125 
z
" id="DejaVuSans-33"/>
      </defs>
      <g transform="translate(152.667633 291.030125)scale(0.12 -0.12)">
       <use transform="translate(0 0.765625)" xlink:href="#DejaVuSans-31"/>
       <use transform="translate(63.623047 0.765625)" xlink:href="#DejaVuSans-30"/>
       <use transform="translate(128.203125 39.046875)scale(0.7)" xlink:href="#DejaVuSans-33"/>
      </g>
     </g>
    </g>
    <g id="xtick_3">
     <g id="line2d_3">
      <g>
       <use style="fill-opacity:0;stroke:#000000;stroke-width:0.8;" x="224.441948" xlink:href="#m9f81aae279" y="274.912"/>
      </g>
     </g>
     <g id="text_3">
      <!-- $\mathdefault{10^{4}}$ -->
      <defs>
       <path d="M 37.796875 64.3125 
L 12.890625 25.390625 
L 37.796875 25.390625 
z
M 35.203125 72.90625 
L 47.609375 72.90625 
L 47.609375 25.390625 
L 58.015625 25.390625 
L 58.015625 17.1875 
L 47.609375 17.1875 
L 47.609375 0 
L 37.796875 0 
L 37.796875 17.1875 
L 4.890625 17.1875 
L 4.890625 26.703125 
z
" id="DejaVuSans-34"/>
      </defs>
      <g transform="translate(213.881948 291.030125)scale(0.12 -0.12)">
       <use transform="translate(0 0.684375)" xlink:href="#DejaVuSans-31"/>
       <use transform="translate(63.623047 0.684375)" xlink:href="#DejaVuSans-30"/>
       <use transform="translate(128.203125 38.965625)scale(0.7)" xlink:href="#DejaVuSans-34"/>
      </g>
     </g>
    </g>
    <g id="xtick_4">
     <g id="line2d_4">
      <g>
       <use style="fill-opacity:0;stroke:#000000;stroke-width:0.8;" x="285.656263" xlink:href="#m9f81aae279" y="274.912"/>
      </g>
     </g>
     <g id="text_4">
      <!-- $\mathdefault{10^{5}}$ -->
      <defs>
       <path d="M 10.796875 72.90625 
L 49.515625 72.90625 
L 49.515625 64.59375 
L 19.828125 64.59375 
L 19.828125 46.734375 
Q 21.96875 47.46875 24.109375 47.828125 
Q 26.265625 48.1875 28.421875 48.1875 
Q 40.625 48.1875 47.75 41.5 
Q 54.890625 34.8125 54.890625 23.390625 
Q 54.890625 11.625 47.5625 5.09375 
Q 40.234375 -1.421875 26.90625 -1.421875 
Q 22.3125 -1.421875 17.546875 -0.640625 
Q 12.796875 0.140625 7.71875 1.703125 
L 7.71875 11.625 
Q 12.109375 9.234375 16.796875 8.0625 
Q 21.484375 6.890625 26.703125 6.890625 
Q 35.15625 6.890625 40.078125 11.328125 
Q 45.015625 15.765625 45.015625 23.390625 
Q 45.015625 31 40.078125 35.4375 
Q 35.15625 39.890625 26.703125 39.890625 
Q 22.75 39.890625 18.8125 39.015625 
Q 14.890625 38.140625 10.796875 36.28125 
z
" id="DejaVuSans-35"/>
      </defs>
      <g transform="translate(275.096263 291.030125)scale(0.12 -0.12)">
       <use transform="translate(0 0.684375)" xlink:href="#DejaVuSans-31"/>
       <use transform="translate(63.623047 0.684375)" xlink:href="#DejaVuSans-30"/>
       <use transform="translate(128.203125 38.965625)scale(0.7)" xlink:href="#DejaVuSans-35"/>
      </g>
     </g>
    </g>
    <g id="xtick_5">
     <g id="line2d_5">
      <g>
       <use style="fill-opacity:0;stroke:#000000;stroke-width:0.8;" x="346.870578" xlink:href="#m9f81aae279" y="274.912"/>
      </g>
     </g>
     <g id="text_5">
      <!-- $\mathdefault{10^{6}}$ -->
      <defs>
       <path d="M 33.015625 40.375 
Q 26.375 40.375 22.484375 35.828125 
Q 18.609375 31.296875 18.609375 23.390625 
Q 18.609375 15.53125 22.484375 10.953125 
Q 26.375 6.390625 33.015625 6.390625 
Q 39.65625 6.390625 43.53125 10.953125 
Q 47.40625 15.53125 47.40625 23.390625 
Q 47.40625 31.296875 43.53125 35.828125 
Q 39.65625 40.375 33.015625 40.375 
z
M 52.59375 71.296875 
L 52.59375 62.3125 
Q 48.875 64.0625 45.09375 64.984375 
Q 41.3125 65.921875 37.59375 65.921875 
Q 27.828125 65.921875 22.671875 59.328125 
Q 17.53125 52.734375 16.796875 39.40625 
Q 19.671875 43.65625 24.015625 45.921875 
Q 28.375 48.1875 33.59375 48.1875 
Q 44.578125 48.1875 50.953125 41.515625 
Q 57.328125 34.859375 57.328125 23.390625 
Q 57.328125 12.15625 50.6875 5.359375 
Q 44.046875 -1.421875 33.015625 -1.421875 
Q 20.359375 -1.421875 13.671875 8.265625 
Q 6.984375 17.96875 6.984375 36.375 
Q 6.984375 53.65625 15.1875 63.9375 
Q 23.390625 74.21875 37.203125 74.21875 
Q 40.921875 74.21875 44.703125 73.484375 
Q 48.484375 72.75 52.59375 71.296875 
z
" id="DejaVuSans-36"/>
      </defs>
      <g transform="translate(336.310578 291.030125)scale(0.12 -0.12)">
       <use transform="translate(0 0.765625)" xlink:href="#DejaVuSans-31"/>
       <use transform="translate(63.623047 0.765625)" xlink:href="#DejaVuSans-30"/>
       <use transform="translate(128.203125 39.046875)scale(0.7)" xlink:href="#DejaVuSans-36"/>
      </g>
     </g>
    </g>
    <g id="xtick_6">
     <g id="line2d_6">
      <g>
       <use style="fill-opacity:0;stroke:#000000;stroke-width:0.8;" x="408.084893" xlink:href="#m9f81aae279" y="274.912"/>
      </g>
     </g>
     <g id="text_6">
      <!-- $\mathdefault{10^{7}}$ -->
      <defs>
       <path d="M 8.203125 72.90625 
L 55.078125 72.90625 
L 55.078125 68.703125 
L 28.609375 0 
L 18.3125 0 
L 43.21875 64.59375 
L 8.203125 64.59375 
z
" id="DejaVuSans-37"/>
      </defs>
      <g transform="translate(397.524893 291.030125)scale(0.12 -0.12)">
       <use transform="translate(0 0.684375)" xlink:href="#DejaVuSans-31"/>
       <use transform="translate(63.623047 0.684375)" xlink:href="#DejaVuSans-30"/>
       <use transform="translate(128.203125 38.965625)scale(0.7)" xlink:href="#DejaVuSans-37"/>
      </g>
     </g>
    </g>
    <g id="xtick_7">
     <g id="line2d_7">
      <defs>
       <path d="M 0 0 
L 0 2 
" id="m3674d2e9be" style="stroke:#000000;stroke-width:0.6;"/>
      </defs>
      <g>
       <use style="fill-opacity:0;stroke:#000000;stroke-width:0.6;" x="70.005654" xlink:href="#m3674d2e9be" y="274.912"/>
      </g>
     </g>
    </g>
    <g id="xtick_8">
     <g id="line2d_8">
      <g>
       <use style="fill-opacity:0;stroke:#000000;stroke-width:0.6;" x="77.653693" xlink:href="#m3674d2e9be" y="274.912"/>
      </g>
     </g>
    </g>
    <g id="xtick_9">
     <g id="line2d_9">
      <g>
       <use style="fill-opacity:0;stroke:#000000;stroke-width:0.6;" x="83.585973" xlink:href="#m3674d2e9be" y="274.912"/>
      </g>
     </g>
    </g>
    <g id="xtick_10">
     <g id="line2d_10">
      <g>
       <use style="fill-opacity:0;stroke:#000000;stroke-width:0.6;" x="88.432999" xlink:href="#m3674d2e9be" y="274.912"/>
      </g>
     </g>
    </g>
    <g id="xtick_11">
     <g id="line2d_11">
      <g>
       <use style="fill-opacity:0;stroke:#000000;stroke-width:0.6;" x="92.531101" xlink:href="#m3674d2e9be" y="274.912"/>
      </g>
     </g>
    </g>
    <g id="xtick_12">
     <g id="line2d_12">
      <g>
       <use style="fill-opacity:0;stroke:#000000;stroke-width:0.6;" x="96.081038" xlink:href="#m3674d2e9be" y="274.912"/>
      </g>
     </g>
    </g>
    <g id="xtick_13">
     <g id="line2d_13">
      <g>
       <use style="fill-opacity:0;stroke:#000000;stroke-width:0.6;" x="99.212305" xlink:href="#m3674d2e9be" y="274.912"/>
      </g>
     </g>
    </g>
    <g id="xtick_14">
     <g id="line2d_14">
      <g>
       <use style="fill-opacity:0;stroke:#000000;stroke-width:0.6;" x="120.440663" xlink:href="#m3674d2e9be" y="274.912"/>
      </g>
     </g>
    </g>
    <g id="xtick_15">
     <g id="line2d_15">
      <g>
       <use style="fill-opacity:0;stroke:#000000;stroke-width:0.6;" x="131.219969" xlink:href="#m3674d2e9be" y="274.912"/>
      </g>
     </g>
    </g>
    <g id="xtick_16">
     <g id="line2d_16">
      <g>
       <use style="fill-opacity:0;stroke:#000000;stroke-width:0.6;" x="138.868008" xlink:href="#m3674d2e9be" y="274.912"/>
      </g>
     </g>
    </g>
    <g id="xtick_17">
     <g id="line2d_17">
      <g>
       <use style="fill-opacity:0;stroke:#000000;stroke-width:0.6;" x="144.800288" xlink:href="#m3674d2e9be" y="274.912"/>
      </g>
     </g>
    </g>
    <g id="xtick_18">
     <g id="line2d_18">
      <g>
       <use style="fill-opacity:0;stroke:#000000;stroke-width:0.6;" x="149.647314" xlink:href="#m3674d2e9be" y="274.912"/>
      </g>
     </g>
    </g>
    <g id="xtick_19">
     <g id="line2d_19">
      <g>
       <use style="fill-opacity:0;stroke:#000000;stroke-width:0.6;" x="153.745416" xlink:href="#m3674d2e9be" y="274.912"/>
      </g>
     </g>
    </g>
    <g id="xtick_20">
     <g id="line2d_20">
      <g>
       <use style="fill-opacity:0;stroke:#000000;stroke-width:0.6;" x="157.295353" xlink:href="#m3674d2e9be" y="274.912"/>
      </g>
     </g>
    </g>
    <g id="xtick_21">
     <g id="line2d_21">
      <g>
       <use style="fill-opacity:0;stroke:#000000;stroke-width:0.6;" x="160.42662" xlink:href="#m3674d2e9be" y="274.912"/>
      </g>
     </g>
    </g>
    <g id="xtick_22">
     <g id="line2d_22">
      <g>
       <use style="fill-opacity:0;stroke:#000000;stroke-width:0.6;" x="181.654978" xlink:href="#m3674d2e9be" y="274.912"/>
      </g>
     </g>
    </g>
    <g id="xtick_23">
     <g id="line2d_23">
      <g>
       <use style="fill-opacity:0;stroke:#000000;stroke-width:0.6;" x="192.434284" xlink:href="#m3674d2e9be" y="274.912"/>
      </g>
     </g>
    </g>
    <g id="xtick_24">
     <g id="line2d_24">
      <g>
       <use style="fill-opacity:0;stroke:#000000;stroke-width:0.6;" x="200.082323" xlink:href="#m3674d2e9be" y="274.912"/>
      </g>
     </g>
    </g>
    <g id="xtick_25">
     <g id="line2d_25">
      <g>
       <use style="fill-opacity:0;stroke:#000000;stroke-width:0.6;" x="206.014603" xlink:href="#m3674d2e9be" y="274.912"/>
      </g>
     </g>
    </g>
    <g id="xtick_26">
     <g id="line2d_26">
      <g>
       <use style="fill-opacity:0;stroke:#000000;stroke-width:0.6;" x="210.861629" xlink:href="#m3674d2e9be" y="274.912"/>
      </g>
     </g>
    </g>
    <g id="xtick_27">
     <g id="line2d_27">
      <g>
       <use style="fill-opacity:0;stroke:#000000;stroke-width:0.6;" x="214.959731" xlink:href="#m3674d2e9be" y="274.912"/>
      </g>
     </g>
    </g>
    <g id="xtick_28">
     <g id="line2d_28">
      <g>
       <use style="fill-opacity:0;stroke:#000000;stroke-width:0.6;" x="218.509668" xlink:href="#m3674d2e9be" y="274.912"/>
      </g>
     </g>
    </g>
    <g id="xtick_29">
     <g id="line2d_29">
      <g>
       <use style="fill-opacity:0;stroke:#000000;stroke-width:0.6;" x="221.640935" xlink:href="#m3674d2e9be" y="274.912"/>
      </g>
     </g>
    </g>
    <g id="xtick_30">
     <g id="line2d_30">
      <g>
       <use style="fill-opacity:0;stroke:#000000;stroke-width:0.6;" x="242.869293" xlink:href="#m3674d2e9be" y="274.912"/>
      </g>
     </g>
    </g>
    <g id="xtick_31">
     <g id="line2d_31">
      <g>
       <use style="fill-opacity:0;stroke:#000000;stroke-width:0.6;" x="253.648599" xlink:href="#m3674d2e9be" y="274.912"/>
      </g>
     </g>
    </g>
    <g id="xtick_32">
     <g id="line2d_32">
      <g>
       <use style="fill-opacity:0;stroke:#000000;stroke-width:0.6;" x="261.296638" xlink:href="#m3674d2e9be" y="274.912"/>
      </g>
     </g>
    </g>
    <g id="xtick_33">
     <g id="line2d_33">
      <g>
       <use style="fill-opacity:0;stroke:#000000;stroke-width:0.6;" x="267.228918" xlink:href="#m3674d2e9be" y="274.912"/>
      </g>
     </g>
    </g>
    <g id="xtick_34">
     <g id="line2d_34">
      <g>
       <use style="fill-opacity:0;stroke:#000000;stroke-width:0.6;" x="272.075944" xlink:href="#m3674d2e9be" y="274.912"/>
      </g>
     </g>
    </g>
    <g id="xtick_35">
     <g id="line2d_35">
      <g>
       <use style="fill-opacity:0;stroke:#000000;stroke-width:0.6;" x="276.174046" xlink:href="#m3674d2e9be" y="274.912"/>
      </g>
     </g>
    </g>
    <g id="xtick_36">
     <g id="line2d_36">
      <g>
       <use style="fill-opacity:0;stroke:#000000;stroke-width:0.6;" x="279.723983" xlink:href="#m3674d2e9be" y="274.912"/>
      </g>
     </g>
    </g>
    <g id="xtick_37">
     <g id="line2d_37">
      <g>
       <use style="fill-opacity:0;stroke:#000000;stroke-width:0.6;" x="282.85525" xlink:href="#m3674d2e9be" y="274.912"/>
      </g>
     </g>
    </g>
    <g id="xtick_38">
     <g id="line2d_38">
      <g>
       <use style="fill-opacity:0;stroke:#000000;stroke-width:0.6;" x="304.083608" xlink:href="#m3674d2e9be" y="274.912"/>
      </g>
     </g>
    </g>
    <g id="xtick_39">
     <g id="line2d_39">
      <g>
       <use style="fill-opacity:0;stroke:#000000;stroke-width:0.6;" x="314.862914" xlink:href="#m3674d2e9be" y="274.912"/>
      </g>
     </g>
    </g>
    <g id="xtick_40">
     <g id="line2d_40">
      <g>
       <use style="fill-opacity:0;stroke:#000000;stroke-width:0.6;" x="322.510953" xlink:href="#m3674d2e9be" y="274.912"/>
      </g>
     </g>
    </g>
    <g id="xtick_41">
     <g id="line2d_41">
      <g>
       <use style="fill-opacity:0;stroke:#000000;stroke-width:0.6;" x="328.443233" xlink:href="#m3674d2e9be" y="274.912"/>
      </g>
     </g>
    </g>
    <g id="xtick_42">
     <g id="line2d_42">
      <g>
       <use style="fill-opacity:0;stroke:#000000;stroke-width:0.6;" x="333.290259" xlink:href="#m3674d2e9be" y="274.912"/>
      </g>
     </g>
    </g>
    <g id="xtick_43">
     <g id="line2d_43">
      <g>
       <use style="fill-opacity:0;stroke:#000000;stroke-width:0.6;" x="337.388361" xlink:href="#m3674d2e9be" y="274.912"/>
      </g>
     </g>
    </g>
    <g id="xtick_44">
     <g id="line2d_44">
      <g>
       <use style="fill-opacity:0;stroke:#000000;stroke-width:0.6;" x="340.938298" xlink:href="#m3674d2e9be" y="274.912"/>
      </g>
     </g>
    </g>
    <g id="xtick_45">
     <g id="line2d_45">
      <g>
       <use style="fill-opacity:0;stroke:#000000;stroke-width:0.6;" x="344.069564" xlink:href="#m3674d2e9be" y="274.912"/>
      </g>
     </g>
    </g>
    <g id="xtick_46">
     <g id="line2d_46">
      <g>
       <use style="fill-opacity:0;stroke:#000000;stroke-width:0.6;" x="365.297923" xlink:href="#m3674d2e9be" y="274.912"/>
      </g>
     </g>
    </g>
    <g id="xtick_47">
     <g id="line2d_47">
      <g>
       <use style="fill-opacity:0;stroke:#000000;stroke-width:0.6;" x="376.077229" xlink:href="#m3674d2e9be" y="274.912"/>
      </g>
     </g>
    </g>
    <g id="xtick_48">
     <g id="line2d_48">
      <g>
       <use style="fill-opacity:0;stroke:#000000;stroke-width:0.6;" x="383.725268" xlink:href="#m3674d2e9be" y="274.912"/>
      </g>
     </g>
    </g>
    <g id="xtick_49">
     <g id="line2d_49">
      <g>
       <use style="fill-opacity:0;stroke:#000000;stroke-width:0.6;" x="389.657548" xlink:href="#m3674d2e9be" y="274.912"/>
      </g>
     </g>
    </g>
    <g id="xtick_50">
     <g id="line2d_50">
      <g>
       <use style="fill-opacity:0;stroke:#000000;stroke-width:0.6;" x="394.504574" xlink:href="#m3674d2e9be" y="274.912"/>
      </g>
     </g>
    </g>
    <g id="xtick_51">
     <g id="line2d_51">
      <g>
       <use style="fill-opacity:0;stroke:#000000;stroke-width:0.6;" x="398.602675" xlink:href="#m3674d2e9be" y="274.912"/>
      </g>
     </g>
    </g>
    <g id="xtick_52">
     <g id="line2d_52">
      <g>
       <use style="fill-opacity:0;stroke:#000000;stroke-width:0.6;" x="402.152613" xlink:href="#m3674d2e9be" y="274.912"/>
      </g>
     </g>
    </g>
    <g id="xtick_53">
     <g id="line2d_53">
      <g>
       <use style="fill-opacity:0;stroke:#000000;stroke-width:0.6;" x="405.283879" xlink:href="#m3674d2e9be" y="274.912"/>
      </g>
     </g>
    </g>
    <g id="text_7">
     <!-- Frequency (Hz) -->
     <defs>
      <path d="M 9.8125 72.90625 
L 51.703125 72.90625 
L 51.703125 64.59375 
L 19.671875 64.59375 
L 19.671875 43.109375 
L 48.578125 43.109375 
L 48.578125 34.8125 
L 19.671875 34.8125 
L 19.671875 0 
L 9.8125 0 
z
" id="DejaVuSans-46"/>
      <path d="M 41.109375 46.296875 
Q 39.59375 47.171875 37.8125 47.578125 
Q 36.03125 48 33.890625 48 
Q 26.265625 48 22.1875 43.046875 
Q 18.109375 38.09375 18.109375 28.8125 
L 18.109375 0 
L 9.078125 0 
L 9.078125 54.6875 
L 18.109375 54.6875 
L 18.109375 46.1875 
Q 20.953125 51.171875 25.484375 53.578125 
Q 30.03125 56 36.53125 56 
Q 37.453125 56 38.578125 55.875 
Q 39.703125 55.765625 41.0625 55.515625 
z
" id="DejaVuSans-72"/>
      <path d="M 56.203125 29.59375 
L 56.203125 25.203125 
L 14.890625 25.203125 
Q 15.484375 15.921875 20.484375 11.0625 
Q 25.484375 6.203125 34.421875 6.203125 
Q 39.59375 6.203125 44.453125 7.46875 
Q 49.3125 8.734375 54.109375 11.28125 
L 54.109375 2.78125 
Q 49.265625 0.734375 44.1875 -0.34375 
Q 39.109375 -1.421875 33.890625 -1.421875 
Q 20.796875 -1.421875 13.15625 6.1875 
Q 5.515625 13.8125 5.515625 26.8125 
Q 5.515625 40.234375 12.765625 48.109375 
Q 20.015625 56 32.328125 56 
Q 43.359375 56 49.78125 48.890625 
Q 56.203125 41.796875 56.203125 29.59375 
z
M 47.21875 32.234375 
Q 47.125 39.59375 43.09375 43.984375 
Q 39.0625 48.390625 32.421875 48.390625 
Q 24.90625 48.390625 20.390625 44.140625 
Q 15.875 39.890625 15.1875 32.171875 
z
" id="DejaVuSans-65"/>
      <path d="M 14.796875 27.296875 
Q 14.796875 17.390625 18.875 11.75 
Q 22.953125 6.109375 30.078125 6.109375 
Q 37.203125 6.109375 41.296875 11.75 
Q 45.40625 17.390625 45.40625 27.296875 
Q 45.40625 37.203125 41.296875 42.84375 
Q 37.203125 48.484375 30.078125 48.484375 
Q 22.953125 48.484375 18.875 42.84375 
Q 14.796875 37.203125 14.796875 27.296875 
z
M 45.40625 8.203125 
Q 42.578125 3.328125 38.25 0.953125 
Q 33.9375 -1.421875 27.875 -1.421875 
Q 17.96875 -1.421875 11.734375 6.484375 
Q 5.515625 14.40625 5.515625 27.296875 
Q 5.515625 40.1875 11.734375 48.09375 
Q 17.96875 56 27.875 56 
Q 33.9375 56 38.25 53.625 
Q 42.578125 51.265625 45.40625 46.390625 
L 45.40625 54.6875 
L 54.390625 54.6875 
L 54.390625 -20.796875 
L 45.40625 -20.796875 
z
" id="DejaVuSans-71"/>
      <path d="M 8.5 21.578125 
L 8.5 54.6875 
L 17.484375 54.6875 
L 17.484375 21.921875 
Q 17.484375 14.15625 20.5 10.265625 
Q 23.53125 6.390625 29.59375 6.390625 
Q 36.859375 6.390625 41.078125 11.03125 
Q 45.3125 15.671875 45.3125 23.6875 
L 45.3125 54.6875 
L 54.296875 54.6875 
L 54.296875 0 
L 45.3125 0 
L 45.3125 8.40625 
Q 42.046875 3.421875 37.71875 1 
Q 33.40625 -1.421875 27.6875 -1.421875 
Q 18.265625 -1.421875 13.375 4.4375 
Q 8.5 10.296875 8.5 21.578125 
z
M 31.109375 56 
z
" id="DejaVuSans-75"/>
      <path d="M 54.890625 33.015625 
L 54.890625 0 
L 45.90625 0 
L 45.90625 32.71875 
Q 45.90625 40.484375 42.875 44.328125 
Q 39.84375 48.1875 33.796875 48.1875 
Q 26.515625 48.1875 22.3125 43.546875 
Q 18.109375 38.921875 18.109375 30.90625 
L 18.109375 0 
L 9.078125 0 
L 9.078125 54.6875 
L 18.109375 54.6875 
L 18.109375 46.1875 
Q 21.34375 51.125 25.703125 53.5625 
Q 30.078125 56 35.796875 56 
Q 45.21875 56 50.046875 50.171875 
Q 54.890625 44.34375 54.890625 33.015625 
z
" id="DejaVuSans-6e"/>
      <path d="M 48.78125 52.59375 
L 48.78125 44.1875 
Q 44.96875 46.296875 41.140625 47.34375 
Q 37.3125 48.390625 33.40625 48.390625 
Q 24.65625 48.390625 19.8125 42.84375 
Q 14.984375 37.3125 14.984375 27.296875 
Q 14.984375 17.28125 19.8125 11.734375 
Q 24.65625 6.203125 33.40625 6.203125 
Q 37.3125 6.203125 41.140625 7.25 
Q 44.96875 8.296875 48.78125 10.40625 
L 48.78125 2.09375 
Q 45.015625 0.34375 40.984375 -0.53125 
Q 36.96875 -1.421875 32.421875 -1.421875 
Q 20.0625 -1.421875 12.78125 6.34375 
Q 5.515625 14.109375 5.515625 27.296875 
Q 5.515625 40.671875 12.859375 48.328125 
Q 20.21875 56 33.015625 56 
Q 37.15625 56 41.109375 55.140625 
Q 45.0625 54.296875 48.78125 52.59375 
z
" id="DejaVuSans-63"/>
      <path d="M 32.171875 -5.078125 
Q 28.375 -14.84375 24.75 -17.8125 
Q 21.140625 -20.796875 15.09375 -20.796875 
L 7.90625 -20.796875 
L 7.90625 -13.28125 
L 13.1875 -13.28125 
Q 16.890625 -13.28125 18.9375 -11.515625 
Q 21 -9.765625 23.484375 -3.21875 
L 25.09375 0.875 
L 2.984375 54.6875 
L 12.5 54.6875 
L 29.59375 11.921875 
L 46.6875 54.6875 
L 56.203125 54.6875 
z
" id="DejaVuSans-79"/>
      <path id="DejaVuSans-20"/>
      <path d="M 31 75.875 
Q 24.46875 64.65625 21.28125 53.65625 
Q 18.109375 42.671875 18.109375 31.390625 
Q 18.109375 20.125 21.3125 9.0625 
Q 24.515625 -2 31 -13.1875 
L 23.1875 -13.1875 
Q 15.875 -1.703125 12.234375 9.375 
Q 8.59375 20.453125 8.59375 31.390625 
Q 8.59375 42.28125 12.203125 53.3125 
Q 15.828125 64.359375 23.1875 75.875 
z
" id="DejaVuSans-28"/>
      <path d="M 9.8125 72.90625 
L 19.671875 72.90625 
L 19.671875 43.015625 
L 55.515625 43.015625 
L 55.515625 72.90625 
L 65.375 72.90625 
L 65.375 0 
L 55.515625 0 
L 55.515625 34.71875 
L 19.671875 34.71875 
L 19.671875 0 
L 9.8125 0 
z
" id="DejaVuSans-48"/>
      <path d="M 5.515625 54.6875 
L 48.1875 54.6875 
L 48.1875 46.484375 
L 14.40625 7.171875 
L 48.1875 7.171875 
L 48.1875 0 
L 4.296875 0 
L 4.296875 8.203125 
L 38.09375 47.515625 
L 5.515625 47.515625 
z
" id="DejaVuSans-7a"/>
      <path d="M 8.015625 75.875 
L 15.828125 75.875 
Q 23.140625 64.359375 26.78125 53.3125 
Q 30.421875 42.28125 30.421875 31.390625 
Q 30.421875 20.453125 26.78125 9.375 
Q 23.140625 -1.703125 15.828125 -13.1875 
L 8.015625 -13.1875 
Q 14.5 -2 17.703125 9.0625 
Q 20.90625 20.125 20.90625 31.390625 
Q 20.90625 42.671875 17.703125 53.65625 
Q 14.5 64.65625 8.015625 75.875 
z
" id="DejaVuSans-29"/>
     </defs>
     <g transform="translate(195.479975 306.643875)scale(0.12 -0.12)">
      <use xlink:href="#DejaVuSans-46"/>
      <use x="57.410156" xlink:href="#DejaVuSans-72"/>
      <use x="98.492188" xlink:href="#DejaVuSans-65"/>
      <use x="160.015625" xlink:href="#DejaVuSans-71"/>
      <use x="223.492188" xlink:href="#DejaVuSans-75"/>
      <use x="286.871094" xlink:href="#DejaVuSans-65"/>
      <use x="348.394531" xlink:href="#DejaVuSans-6e"/>
      <use x="411.773438" xlink:href="#DejaVuSans-63"/>
      <use x="466.753906" xlink:href="#DejaVuSans-79"/>
      <use x="525.933594" xlink:href="#DejaVuSans-20"/>
      <use x="557.720703" xlink:href="#DejaVuSans-28"/>
      <use x="596.734375" xlink:href="#DejaVuSans-48"/>
      <use x="671.929688" xlink:href="#DejaVuSans-7a"/>
      <use x="724.419922" xlink:href="#DejaVuSans-29"/>
     </g>
    </g>
   </g>
   <g id="matplotlib.axis_2">
    <g id="ytick_1">
     <g id="line2d_54">
      <defs>
       <path d="M 0 0 
L -3.5 0 
" id="m327dfb4436" style="stroke:#000000;stroke-width:0.8;"/>
      </defs>
      <g>
       <use style="fill-opacity:0;stroke:#000000;stroke-width:0.8;" x="68.24" xlink:href="#m327dfb4436" y="264.549022"/>
      </g>
     </g>
     <g id="text_8">
      <!-- 0 -->
      <g transform="translate(53.605 269.108085)scale(0.12 -0.12)">
       <use xlink:href="#DejaVuSans-30"/>
      </g>
     </g>
    </g>
    <g id="ytick_2">
     <g id="line2d_55">
      <g>
       <use style="fill-opacity:0;stroke:#000000;stroke-width:0.8;" x="68.24" xlink:href="#m327dfb4436" y="223.483752"/>
      </g>
     </g>
     <g id="text_9">
      <!-- 1000 -->
      <g transform="translate(30.7 228.042814)scale(0.12 -0.12)">
       <use xlink:href="#DejaVuSans-31"/>
       <use x="63.623047" xlink:href="#DejaVuSans-30"/>
       <use x="127.246094" xlink:href="#DejaVuSans-30"/>
       <use x="190.869141" xlink:href="#DejaVuSans-30"/>
      </g>
     </g>
    </g>
    <g id="ytick_3">
     <g id="line2d_56">
      <g>
       <use style="fill-opacity:0;stroke:#000000;stroke-width:0.8;" x="68.24" xlink:href="#m327dfb4436" y="182.418481"/>
      </g>
     </g>
     <g id="text_10">
      <!-- 2000 -->
      <g transform="translate(30.7 186.977543)scale(0.12 -0.12)">
       <use xlink:href="#DejaVuSans-32"/>
       <use x="63.623047" xlink:href="#DejaVuSans-30"/>
       <use x="127.246094" xlink:href="#DejaVuSans-30"/>
       <use x="190.869141" xlink:href="#DejaVuSans-30"/>
      </g>
     </g>
    </g>
    <g id="ytick_4">
     <g id="line2d_57">
      <g>
       <use style="fill-opacity:0;stroke:#000000;stroke-width:0.8;" x="68.24" xlink:href="#m327dfb4436" y="141.35321"/>
      </g>
     </g>
     <g id="text_11">
      <!-- 3000 -->
      <g transform="translate(30.7 145.912272)scale(0.12 -0.12)">
       <use xlink:href="#DejaVuSans-33"/>
       <use x="63.623047" xlink:href="#DejaVuSans-30"/>
       <use x="127.246094" xlink:href="#DejaVuSans-30"/>
       <use x="190.869141" xlink:href="#DejaVuSans-30"/>
      </g>
     </g>
    </g>
    <g id="ytick_5">
     <g id="line2d_58">
      <g>
       <use style="fill-opacity:0;stroke:#000000;stroke-width:0.8;" x="68.24" xlink:href="#m327dfb4436" y="100.287939"/>
      </g>
     </g>
     <g id="text_12">
      <!-- 4000 -->
      <g transform="translate(30.7 104.847002)scale(0.12 -0.12)">
       <use xlink:href="#DejaVuSans-34"/>
       <use x="63.623047" xlink:href="#DejaVuSans-30"/>
       <use x="127.246094" xlink:href="#DejaVuSans-30"/>
       <use x="190.869141" xlink:href="#DejaVuSans-30"/>
      </g>
     </g>
    </g>
    <g id="ytick_6">
     <g id="line2d_59">
      <g>
       <use style="fill-opacity:0;stroke:#000000;stroke-width:0.8;" x="68.24" xlink:href="#m327dfb4436" y="59.222668"/>
      </g>
     </g>
     <g id="text_13">
      <!-- 5000 -->
      <g transform="translate(30.7 63.781731)scale(0.12 -0.12)">
       <use xlink:href="#DejaVuSans-35"/>
       <use x="63.623047" xlink:href="#DejaVuSans-30"/>
       <use x="127.246094" xlink:href="#DejaVuSans-30"/>
       <use x="190.869141" xlink:href="#DejaVuSans-30"/>
      </g>
     </g>
    </g>
    <g id="ytick_7">
     <g id="line2d_60">
      <g>
       <use style="fill-opacity:0;stroke:#000000;stroke-width:0.8;" x="68.24" xlink:href="#m327dfb4436" y="18.157397"/>
      </g>
     </g>
     <g id="text_14">
      <!-- 6000 -->
      <g transform="translate(30.7 22.71646)scale(0.12 -0.12)">
       <use xlink:href="#DejaVuSans-36"/>
       <use x="63.623047" xlink:href="#DejaVuSans-30"/>
       <use x="127.246094" xlink:href="#DejaVuSans-30"/>
       <use x="190.869141" xlink:href="#DejaVuSans-30"/>
      </g>
     </g>
    </g>
    <g id="text_15">
     <!-- Impedance, Z $(\Omega)$ -->
     <defs>
      <path d="M 9.8125 72.90625 
L 19.671875 72.90625 
L 19.671875 0 
L 9.8125 0 
z
" id="DejaVuSans-49"/>
      <path d="M 52 44.1875 
Q 55.375 50.25 60.0625 53.125 
Q 64.75 56 71.09375 56 
Q 79.640625 56 84.28125 50.015625 
Q 88.921875 44.046875 88.921875 33.015625 
L 88.921875 0 
L 79.890625 0 
L 79.890625 32.71875 
Q 79.890625 40.578125 77.09375 44.375 
Q 74.3125 48.1875 68.609375 48.1875 
Q 61.625 48.1875 57.5625 43.546875 
Q 53.515625 38.921875 53.515625 30.90625 
L 53.515625 0 
L 44.484375 0 
L 44.484375 32.71875 
Q 44.484375 40.625 41.703125 44.40625 
Q 38.921875 48.1875 33.109375 48.1875 
Q 26.21875 48.1875 22.15625 43.53125 
Q 18.109375 38.875 18.109375 30.90625 
L 18.109375 0 
L 9.078125 0 
L 9.078125 54.6875 
L 18.109375 54.6875 
L 18.109375 46.1875 
Q 21.1875 51.21875 25.484375 53.609375 
Q 29.78125 56 35.6875 56 
Q 41.65625 56 45.828125 52.96875 
Q 50 49.953125 52 44.1875 
z
" id="DejaVuSans-6d"/>
      <path d="M 18.109375 8.203125 
L 18.109375 -20.796875 
L 9.078125 -20.796875 
L 9.078125 54.6875 
L 18.109375 54.6875 
L 18.109375 46.390625 
Q 20.953125 51.265625 25.265625 53.625 
Q 29.59375 56 35.59375 56 
Q 45.5625 56 51.78125 48.09375 
Q 58.015625 40.1875 58.015625 27.296875 
Q 58.015625 14.40625 51.78125 6.484375 
Q 45.5625 -1.421875 35.59375 -1.421875 
Q 29.59375 -1.421875 25.265625 0.953125 
Q 20.953125 3.328125 18.109375 8.203125 
z
M 48.6875 27.296875 
Q 48.6875 37.203125 44.609375 42.84375 
Q 40.53125 48.484375 33.40625 48.484375 
Q 26.265625 48.484375 22.1875 42.84375 
Q 18.109375 37.203125 18.109375 27.296875 
Q 18.109375 17.390625 22.1875 11.75 
Q 26.265625 6.109375 33.40625 6.109375 
Q 40.53125 6.109375 44.609375 11.75 
Q 48.6875 17.390625 48.6875 27.296875 
z
" id="DejaVuSans-70"/>
      <path d="M 45.40625 46.390625 
L 45.40625 75.984375 
L 54.390625 75.984375 
L 54.390625 0 
L 45.40625 0 
L 45.40625 8.203125 
Q 42.578125 3.328125 38.25 0.953125 
Q 33.9375 -1.421875 27.875 -1.421875 
Q 17.96875 -1.421875 11.734375 6.484375 
Q 5.515625 14.40625 5.515625 27.296875 
Q 5.515625 40.1875 11.734375 48.09375 
Q 17.96875 56 27.875 56 
Q 33.9375 56 38.25 53.625 
Q 42.578125 51.265625 45.40625 46.390625 
z
M 14.796875 27.296875 
Q 14.796875 17.390625 18.875 11.75 
Q 22.953125 6.109375 30.078125 6.109375 
Q 37.203125 6.109375 41.296875 11.75 
Q 45.40625 17.390625 45.40625 27.296875 
Q 45.40625 37.203125 41.296875 42.84375 
Q 37.203125 48.484375 30.078125 48.484375 
Q 22.953125 48.484375 18.875 42.84375 
Q 14.796875 37.203125 14.796875 27.296875 
z
" id="DejaVuSans-64"/>
      <path d="M 34.28125 27.484375 
Q 23.390625 27.484375 19.1875 25 
Q 14.984375 22.515625 14.984375 16.5 
Q 14.984375 11.71875 18.140625 8.90625 
Q 21.296875 6.109375 26.703125 6.109375 
Q 34.1875 6.109375 38.703125 11.40625 
Q 43.21875 16.703125 43.21875 25.484375 
L 43.21875 27.484375 
z
M 52.203125 31.203125 
L 52.203125 0 
L 43.21875 0 
L 43.21875 8.296875 
Q 40.140625 3.328125 35.546875 0.953125 
Q 30.953125 -1.421875 24.3125 -1.421875 
Q 15.921875 -1.421875 10.953125 3.296875 
Q 6 8.015625 6 15.921875 
Q 6 25.140625 12.171875 29.828125 
Q 18.359375 34.515625 30.609375 34.515625 
L 43.21875 34.515625 
L 43.21875 35.40625 
Q 43.21875 41.609375 39.140625 45 
Q 35.0625 48.390625 27.6875 48.390625 
Q 23 48.390625 18.546875 47.265625 
Q 14.109375 46.140625 10.015625 43.890625 
L 10.015625 52.203125 
Q 14.9375 54.109375 19.578125 55.046875 
Q 24.21875 56 28.609375 56 
Q 40.484375 56 46.34375 49.84375 
Q 52.203125 43.703125 52.203125 31.203125 
z
" id="DejaVuSans-61"/>
      <path d="M 11.71875 12.40625 
L 22.015625 12.40625 
L 22.015625 4 
L 14.015625 -11.625 
L 7.71875 -11.625 
L 11.71875 4 
z
" id="DejaVuSans-2c"/>
      <path d="M 5.609375 72.90625 
L 62.890625 72.90625 
L 62.890625 65.375 
L 16.796875 8.296875 
L 64.015625 8.296875 
L 64.015625 0 
L 4.5 0 
L 4.5 7.515625 
L 50.59375 64.59375 
L 5.609375 64.59375 
z
" id="DejaVuSans-5a"/>
      <path d="M 72.609375 8.6875 
L 72.609375 0 
L 43.3125 0 
L 43.3125 8.6875 
Q 51.953125 13.421875 56.78125 21.53125 
Q 61.625 29.640625 61.625 39.5 
Q 61.625 51.21875 55.171875 58.296875 
Q 48.734375 65.375 38.1875 65.375 
Q 27.640625 65.375 21.171875 58.265625 
Q 14.703125 51.171875 14.703125 39.5 
Q 14.703125 29.640625 19.53125 21.53125 
Q 24.421875 13.421875 33.109375 8.6875 
L 33.109375 0 
L 3.8125 0 
L 3.8125 8.6875 
L 19.390625 8.6875 
Q 11.671875 15.484375 8.109375 22.75 
Q 4.59375 30.03125 4.59375 39.015625 
Q 4.59375 54.546875 13.96875 64.15625 
Q 23.296875 73.78125 38.1875 73.78125 
Q 52.984375 73.78125 62.40625 64.15625 
Q 71.78125 54.59375 71.78125 39.5 
Q 71.78125 30.03125 68.3125 22.796875 
Q 64.84375 15.578125 56.984375 8.6875 
z
" id="DejaVuSans-3a9"/>
     </defs>
     <g transform="translate(24.18 197.696)rotate(-90)scale(0.12 -0.12)">
      <use transform="translate(0 0.015625)" xlink:href="#DejaVuSans-49"/>
      <use transform="translate(29.445312 0.015625)" xlink:href="#DejaVuSans-6d"/>
      <use transform="translate(126.857422 0.015625)" xlink:href="#DejaVuSans-70"/>
      <use transform="translate(190.333984 0.015625)" xlink:href="#DejaVuSans-65"/>
      <use transform="translate(251.857422 0.015625)" xlink:href="#DejaVuSans-64"/>
      <use transform="translate(315.333984 0.015625)" xlink:href="#DejaVuSans-61"/>
      <use transform="translate(376.613281 0.015625)" xlink:href="#DejaVuSans-6e"/>
      <use transform="translate(439.992188 0.015625)" xlink:href="#DejaVuSans-63"/>
      <use transform="translate(494.972656 0.015625)" xlink:href="#DejaVuSans-65"/>
      <use transform="translate(556.496094 0.015625)" xlink:href="#DejaVuSans-2c"/>
      <use transform="translate(588.283203 0.015625)" xlink:href="#DejaVuSans-20"/>
      <use transform="translate(620.070312 0.015625)" xlink:href="#DejaVuSans-5a"/>
      <use transform="translate(688.576172 0.015625)" xlink:href="#DejaVuSans-20"/>
      <use transform="translate(720.363281 0.015625)" xlink:href="#DejaVuSans-28"/>
      <use transform="translate(759.376953 0.015625)" xlink:href="#DejaVuSans-3a9"/>
      <use transform="translate(835.792969 0.015625)" xlink:href="#DejaVuSans-29"/>
     </g>
    </g>
   </g>
   <g id="line2d_61">
    <path clip-path="url(#p8f6d165a84)" d="M 398.602765 257.099671 
L 392.433656 255.457669 
L 386.264621 253.4674 
L 380.09556 251.063167 
L 373.926497 248.172177 
L 367.75759 244.717583 
L 361.588581 240.624419 
L 355.419393 235.831266 
L 349.250542 230.309641 
L 343.081457 224.091065 
L 336.912165 217.306732 
L 330.743552 210.230812 
L 324.574656 203.308924 
L 318.40541 197.154318 
L 312.236327 192.470801 
L 306.066862 189.896392 
L 299.897465 189.81468 
L 293.730053 192.218129 
L 287.559581 196.713771 
L 281.392134 202.647524 
L 275.223547 209.308211 
L 269.053571 216.070751 
L 262.88084 222.474862 
L 256.714396 228.220479 
L 250.547334 233.161693 
L 244.376942 237.240876 
L 238.209828 240.450341 
L 232.034761 242.819366 
L 226.273886 244.298624 
L 220.180573 245.132477 
L 213.997041 245.258364 
L 207.352253 244.670371 
L 201.19734 243.594395 
L 195.01689 242.222413 
L 188.842166 240.877572 
L 182.67214 239.928684 
L 176.515271 239.673657 
L 170.347246 240.202492 
L 164.18477 241.351915 
L 157.994396 242.79883 
L 151.851924 244.171566 
L 145.662792 245.211119 
L 139.498957 245.723282 
L 133.32238 245.608002 
L 127.153175 244.801626 
L 121.00368 243.259999 
L 114.824971 240.911716 
L 108.658501 237.692807 
L 102.502638 233.504126 
L 96.328911 228.187808 
L 90.164058 221.588688 
L 83.97156 213.438629 
" style="fill:none;stroke:#1f77b4;stroke-linecap:square;stroke-width:1.5;"/>
   </g>
   <g id="line2d_62">
    <path clip-path="url(#p8f6d165a84)" d="M 398.602765 262.777968 
L 392.433656 262.298721 
L 386.264621 261.67329 
L 380.09556 260.851257 
L 373.926497 259.763617 
L 367.75759 258.316356 
L 361.588581 256.382505 
L 355.419393 253.793769 
L 349.250542 250.333804 
L 343.081457 245.73605 
L 336.912165 239.696442 
L 330.743552 231.910238 
L 324.574656 222.138103 
L 318.40541 210.310605 
L 312.236327 196.637215 
L 306.066862 181.661964 
L 299.897465 166.217101 
L 293.730053 151.251061 
L 287.559581 137.580987 
L 281.392134 125.762087 
L 275.223547 115.990271 
L 269.053571 108.193482 
L 262.88084 102.129084 
L 256.714396 97.493174 
L 250.547334 93.966714 
L 244.376942 91.270313 
L 238.209828 89.170621 
L 232.034761 87.465313 
L 226.273886 86.079078 
L 220.180573 84.676938 
L 213.997041 83.159195 
L 207.352253 81.215263 
L 201.19734 78.923016 
L 195.01689 75.969993 
L 188.842166 72.28315 
L 182.67214 67.94759 
L 176.515271 63.262658 
L 170.347246 58.637515 
L 164.18477 54.484215 
L 157.994396 51.013259 
L 151.851924 48.291004 
L 145.662792 46.163454 
L 139.498957 44.491475 
L 133.32238 43.096652 
L 127.153175 41.842063 
L 121.00368 40.615846 
L 114.824971 39.316075 
L 108.658501 37.872908 
L 102.502638 36.215167 
L 96.328911 34.263214 
L 90.164058 31.948461 
L 83.97156 29.169096 
" style="fill:none;stroke:#ff7f0e;stroke-linecap:square;stroke-width:1.5;"/>
   </g>
   <g id="line2d_63">
    <defs>
     <path d="M 0 1.5 
C 0.397805 1.5 0.77937 1.341951 1.06066 1.06066 
C 1.341951 0.77937 1.5 0.397805 1.5 0 
C 1.5 -0.397805 1.341951 -0.77937 1.06066 -1.06066 
C 0.77937 -1.341951 0.397805 -1.5 0 -1.5 
C -0.397805 -1.5 -0.77937 -1.341951 -1.06066 -1.06066 
C -1.341951 -0.77937 -1.5 -0.397805 -1.5 0 
C -1.5 0.397805 -1.341951 0.77937 -1.06066 1.06066 
C -0.77937 1.341951 -0.397805 1.5 0 1.5 
z
" id="m350726cd29" style="stroke:#2ca02c;"/>
    </defs>
    <g clip-path="url(#p8f6d165a84)">
     <use style="fill-opacity:0;stroke:#2ca02c;" x="398.602765" xlink:href="#m350726cd29" y="263.119636"/>
     <use style="fill-opacity:0;stroke:#2ca02c;" x="392.433656" xlink:href="#m350726cd29" y="262.638197"/>
     <use style="fill-opacity:0;stroke:#2ca02c;" x="386.264621" xlink:href="#m350726cd29" y="262.331263"/>
     <use style="fill-opacity:0;stroke:#2ca02c;" x="380.09556" xlink:href="#m350726cd29" y="262.228791"/>
     <use style="fill-opacity:0;stroke:#2ca02c;" x="373.926497" xlink:href="#m350726cd29" y="261.151124"/>
     <use style="fill-opacity:0;stroke:#2ca02c;" x="367.75759" xlink:href="#m350726cd29" y="259.074539"/>
     <use style="fill-opacity:0;stroke:#2ca02c;" x="361.588581" xlink:href="#m350726cd29" y="258.147994"/>
     <use style="fill-opacity:0;stroke:#2ca02c;" x="355.419393" xlink:href="#m350726cd29" y="252.511789"/>
     <use style="fill-opacity:0;stroke:#2ca02c;" x="349.250542" xlink:href="#m350726cd29" y="248.640274"/>
     <use style="fill-opacity:0;stroke:#2ca02c;" x="343.081457" xlink:href="#m350726cd29" y="243.370063"/>
     <use style="fill-opacity:0;stroke:#2ca02c;" x="336.912165" xlink:href="#m350726cd29" y="236.63116"/>
     <use style="fill-opacity:0;stroke:#2ca02c;" x="330.743552" xlink:href="#m350726cd29" y="228.62854"/>
     <use style="fill-opacity:0;stroke:#2ca02c;" x="324.574656" xlink:href="#m350726cd29" y="219.076669"/>
     <use style="fill-opacity:0;stroke:#2ca02c;" x="318.40541" xlink:href="#m350726cd29" y="208.15437"/>
     <use style="fill-opacity:0;stroke:#2ca02c;" x="312.236327" xlink:href="#m350726cd29" y="195.833946"/>
     <use style="fill-opacity:0;stroke:#2ca02c;" x="306.066862" xlink:href="#m350726cd29" y="182.558505"/>
     <use style="fill-opacity:0;stroke:#2ca02c;" x="299.897465" xlink:href="#m350726cd29" y="168.123917"/>
     <use style="fill-opacity:0;stroke:#2ca02c;" x="293.730053" xlink:href="#m350726cd29" y="153.938903"/>
     <use style="fill-opacity:0;stroke:#2ca02c;" x="287.559581" xlink:href="#m350726cd29" y="139.960039"/>
     <use style="fill-opacity:0;stroke:#2ca02c;" x="281.392134" xlink:href="#m350726cd29" y="127.499085"/>
     <use style="fill-opacity:0;stroke:#2ca02c;" x="275.223547" xlink:href="#m350726cd29" y="116.714208"/>
     <use style="fill-opacity:0;stroke:#2ca02c;" x="269.053571" xlink:href="#m350726cd29" y="107.601016"/>
     <use style="fill-opacity:0;stroke:#2ca02c;" x="262.88084" xlink:href="#m350726cd29" y="100.673257"/>
     <use style="fill-opacity:0;stroke:#2ca02c;" x="256.714396" xlink:href="#m350726cd29" y="95.175915"/>
     <use style="fill-opacity:0;stroke:#2ca02c;" x="250.547334" xlink:href="#m350726cd29" y="90.937028"/>
     <use style="fill-opacity:0;stroke:#2ca02c;" x="244.376942" xlink:href="#m350726cd29" y="88.041766"/>
     <use style="fill-opacity:0;stroke:#2ca02c;" x="238.209828" xlink:href="#m350726cd29" y="86.412469"/>
     <use style="fill-opacity:0;stroke:#2ca02c;" x="232.034761" xlink:href="#m350726cd29" y="82.789782"/>
     <use style="fill-opacity:0;stroke:#2ca02c;" x="226.273886" xlink:href="#m350726cd29" y="82.036171"/>
     <use style="fill-opacity:0;stroke:#2ca02c;" x="220.180573" xlink:href="#m350726cd29" y="81.150982"/>
     <use style="fill-opacity:0;stroke:#2ca02c;" x="213.997041" xlink:href="#m350726cd29" y="80.397811"/>
     <use style="fill-opacity:0;stroke:#2ca02c;" x="207.352253" xlink:href="#m350726cd29" y="79.329252"/>
     <use style="fill-opacity:0;stroke:#2ca02c;" x="201.19734" xlink:href="#m350726cd29" y="77.992705"/>
     <use style="fill-opacity:0;stroke:#2ca02c;" x="195.01689" xlink:href="#m350726cd29" y="76.266981"/>
     <use style="fill-opacity:0;stroke:#2ca02c;" x="188.842166" xlink:href="#m350726cd29" y="74.39005"/>
     <use style="fill-opacity:0;stroke:#2ca02c;" x="182.67214" xlink:href="#m350726cd29" y="71.793213"/>
     <use style="fill-opacity:0;stroke:#2ca02c;" x="176.515271" xlink:href="#m350726cd29" y="68.662186"/>
     <use style="fill-opacity:0;stroke:#2ca02c;" x="170.347246" xlink:href="#m350726cd29" y="65.006034"/>
     <use style="fill-opacity:0;stroke:#2ca02c;" x="164.18477" xlink:href="#m350726cd29" y="60.855434"/>
     <use style="fill-opacity:0;stroke:#2ca02c;" x="157.994396" xlink:href="#m350726cd29" y="56.637782"/>
     <use style="fill-opacity:0;stroke:#2ca02c;" x="151.851924" xlink:href="#m350726cd29" y="52.559407"/>
     <use style="fill-opacity:0;stroke:#2ca02c;" x="145.662792" xlink:href="#m350726cd29" y="48.81567"/>
     <use style="fill-opacity:0;stroke:#2ca02c;" x="139.498957" xlink:href="#m350726cd29" y="45.67163"/>
     <use style="fill-opacity:0;stroke:#2ca02c;" x="133.32238" xlink:href="#m350726cd29" y="42.909871"/>
     <use style="fill-opacity:0;stroke:#2ca02c;" x="127.153175" xlink:href="#m350726cd29" y="40.775639"/>
     <use style="fill-opacity:0;stroke:#2ca02c;" x="121.00368" xlink:href="#m350726cd29" y="38.947814"/>
     <use style="fill-opacity:0;stroke:#2ca02c;" x="114.824971" xlink:href="#m350726cd29" y="37.163399"/>
     <use style="fill-opacity:0;stroke:#2ca02c;" x="108.658501" xlink:href="#m350726cd29" y="35.628906"/>
     <use style="fill-opacity:0;stroke:#2ca02c;" x="102.502638" xlink:href="#m350726cd29" y="33.98822"/>
     <use style="fill-opacity:0;stroke:#2ca02c;" x="96.328911" xlink:href="#m350726cd29" y="32.095508"/>
     <use style="fill-opacity:0;stroke:#2ca02c;" x="90.164058" xlink:href="#m350726cd29" y="29.566064"/>
     <use style="fill-opacity:0;stroke:#2ca02c;" x="83.97156" xlink:href="#m350726cd29" y="27.272364"/>
    </g>
   </g>
   <g id="line2d_64">
    <defs>
     <path d="M 0 1.5 
C 0.397805 1.5 0.77937 1.341951 1.06066 1.06066 
C 1.341951 0.77937 1.5 0.397805 1.5 0 
C 1.5 -0.397805 1.341951 -0.77937 1.06066 -1.06066 
C 0.77937 -1.341951 0.397805 -1.5 0 -1.5 
C -0.397805 -1.5 -0.77937 -1.341951 -1.06066 -1.06066 
C -1.341951 -0.77937 -1.5 -0.397805 -1.5 0 
C -1.5 0.397805 -1.341951 0.77937 -1.06066 1.06066 
C -0.77937 1.341951 -0.397805 1.5 0 1.5 
z
" id="m97283c59f0" style="stroke:#d62728;"/>
    </defs>
    <g clip-path="url(#p8f6d165a84)">
     <use style="fill-opacity:0;stroke:#d62728;" x="398.602765" xlink:href="#m97283c59f0" y="262.361607"/>
     <use style="fill-opacity:0;stroke:#d62728;" x="392.433656" xlink:href="#m97283c59f0" y="260.14634"/>
     <use style="fill-opacity:0;stroke:#d62728;" x="386.264621" xlink:href="#m97283c59f0" y="257.758036"/>
     <use style="fill-opacity:0;stroke:#d62728;" x="380.09556" xlink:href="#m97283c59f0" y="255.181061"/>
     <use style="fill-opacity:0;stroke:#d62728;" x="373.926497" xlink:href="#m97283c59f0" y="250.091279"/>
     <use style="fill-opacity:0;stroke:#d62728;" x="367.75759" xlink:href="#m97283c59f0" y="247.049203"/>
     <use style="fill-opacity:0;stroke:#d62728;" x="361.588581" xlink:href="#m97283c59f0" y="239.597183"/>
     <use style="fill-opacity:0;stroke:#d62728;" x="355.419393" xlink:href="#m97283c59f0" y="233.479004"/>
     <use style="fill-opacity:0;stroke:#d62728;" x="349.250542" xlink:href="#m97283c59f0" y="228.575823"/>
     <use style="fill-opacity:0;stroke:#d62728;" x="343.081457" xlink:href="#m97283c59f0" y="222.744983"/>
     <use style="fill-opacity:0;stroke:#d62728;" x="336.912165" xlink:href="#m97283c59f0" y="216.621711"/>
     <use style="fill-opacity:0;stroke:#d62728;" x="330.743552" xlink:href="#m97283c59f0" y="210.688922"/>
     <use style="fill-opacity:0;stroke:#d62728;" x="324.574656" xlink:href="#m97283c59f0" y="205.029504"/>
     <use style="fill-opacity:0;stroke:#d62728;" x="318.40541" xlink:href="#m97283c59f0" y="199.899248"/>
     <use style="fill-opacity:0;stroke:#d62728;" x="312.236327" xlink:href="#m97283c59f0" y="195.65966"/>
     <use style="fill-opacity:0;stroke:#d62728;" x="306.066862" xlink:href="#m97283c59f0" y="192.805553"/>
     <use style="fill-opacity:0;stroke:#d62728;" x="299.897465" xlink:href="#m97283c59f0" y="191.842329"/>
     <use style="fill-opacity:0;stroke:#d62728;" x="293.730053" xlink:href="#m97283c59f0" y="192.764057"/>
     <use style="fill-opacity:0;stroke:#d62728;" x="287.559581" xlink:href="#m97283c59f0" y="195.704399"/>
     <use style="fill-opacity:0;stroke:#d62728;" x="281.392134" xlink:href="#m97283c59f0" y="200.636212"/>
     <use style="fill-opacity:0;stroke:#d62728;" x="275.223547" xlink:href="#m97283c59f0" y="206.686442"/>
     <use style="fill-opacity:0;stroke:#d62728;" x="269.053571" xlink:href="#m97283c59f0" y="213.22937"/>
     <use style="fill-opacity:0;stroke:#d62728;" x="262.88084" xlink:href="#m97283c59f0" y="220.129373"/>
     <use style="fill-opacity:0;stroke:#d62728;" x="256.714396" xlink:href="#m97283c59f0" y="226.646131"/>
     <use style="fill-opacity:0;stroke:#d62728;" x="250.547334" xlink:href="#m97283c59f0" y="231.473574"/>
     <use style="fill-opacity:0;stroke:#d62728;" x="244.376942" xlink:href="#m97283c59f0" y="237.004557"/>
     <use style="fill-opacity:0;stroke:#d62728;" x="238.209828" xlink:href="#m97283c59f0" y="240.701214"/>
     <use style="fill-opacity:0;stroke:#d62728;" x="232.034761" xlink:href="#m97283c59f0" y="249.014599"/>
     <use style="fill-opacity:0;stroke:#d62728;" x="226.273886" xlink:href="#m97283c59f0" y="249.95709"/>
     <use style="fill-opacity:0;stroke:#d62728;" x="220.180573" xlink:href="#m97283c59f0" y="250.732005"/>
     <use style="fill-opacity:0;stroke:#d62728;" x="213.997041" xlink:href="#m97283c59f0" y="251.037954"/>
     <use style="fill-opacity:0;stroke:#d62728;" x="207.352253" xlink:href="#m97283c59f0" y="250.653279"/>
     <use style="fill-opacity:0;stroke:#d62728;" x="201.19734" xlink:href="#m97283c59f0" y="249.863469"/>
     <use style="fill-opacity:0;stroke:#d62728;" x="195.01689" xlink:href="#m97283c59f0" y="248.622415"/>
     <use style="fill-opacity:0;stroke:#d62728;" x="188.842166" xlink:href="#m97283c59f0" y="247.086827"/>
     <use style="fill-opacity:0;stroke:#d62728;" x="182.67214" xlink:href="#m97283c59f0" y="245.344474"/>
     <use style="fill-opacity:0;stroke:#d62728;" x="176.515271" xlink:href="#m97283c59f0" y="243.766688"/>
     <use style="fill-opacity:0;stroke:#d62728;" x="170.347246" xlink:href="#m97283c59f0" y="242.361878"/>
     <use style="fill-opacity:0;stroke:#d62728;" x="164.18477" xlink:href="#m97283c59f0" y="241.529707"/>
     <use style="fill-opacity:0;stroke:#d62728;" x="157.994396" xlink:href="#m97283c59f0" y="240.966408"/>
     <use style="fill-opacity:0;stroke:#d62728;" x="151.851924" xlink:href="#m97283c59f0" y="241.138384"/>
     <use style="fill-opacity:0;stroke:#d62728;" x="145.662792" xlink:href="#m97283c59f0" y="241.784616"/>
     <use style="fill-opacity:0;stroke:#d62728;" x="139.498957" xlink:href="#m97283c59f0" y="242.303561"/>
     <use style="fill-opacity:0;stroke:#d62728;" x="133.32238" xlink:href="#m97283c59f0" y="242.739534"/>
     <use style="fill-opacity:0;stroke:#d62728;" x="127.153175" xlink:href="#m97283c59f0" y="242.800976"/>
     <use style="fill-opacity:0;stroke:#d62728;" x="121.00368" xlink:href="#m97283c59f0" y="242.215373"/>
     <use style="fill-opacity:0;stroke:#d62728;" x="114.824971" xlink:href="#m97283c59f0" y="241.08104"/>
     <use style="fill-opacity:0;stroke:#d62728;" x="108.658501" xlink:href="#m97283c59f0" y="239.213578"/>
     <use style="fill-opacity:0;stroke:#d62728;" x="102.502638" xlink:href="#m97283c59f0" y="235.750553"/>
     <use style="fill-opacity:0;stroke:#d62728;" x="96.328911" xlink:href="#m97283c59f0" y="231.993424"/>
     <use style="fill-opacity:0;stroke:#d62728;" x="90.164058" xlink:href="#m97283c59f0" y="227.005119"/>
     <use style="fill-opacity:0;stroke:#d62728;" x="83.97156" xlink:href="#m97283c59f0" y="220.524736"/>
    </g>
   </g>
   <g id="line2d_65">
    <path clip-path="url(#p8f6d165a84)" d="M 68.24 264.549022 
L 414.334325 264.549022 
" style="fill:none;stroke:#000000;stroke-linecap:square;stroke-width:1.5;"/>
   </g>
   <g id="patch_3">
    <path d="M 68.24 274.912 
L 68.24 15.48 
" style="fill:none;stroke:#000000;stroke-linecap:square;stroke-linejoin:miter;stroke-width:0.8;"/>
   </g>
   <g id="patch_4">
    <path d="M 414.334325 274.912 
L 414.334325 15.48 
" style="fill:none;stroke:#000000;stroke-linecap:square;stroke-linejoin:miter;stroke-width:0.8;"/>
   </g>
   <g id="patch_5">
    <path d="M 68.24 274.912 
L 414.334325 274.912 
" style="fill:none;stroke:#000000;stroke-linecap:square;stroke-linejoin:miter;stroke-width:0.8;"/>
   </g>
   <g id="patch_6">
    <path d="M 68.24 15.48 
L 414.334325 15.48 
" style="fill:none;stroke:#000000;stroke-linecap:square;stroke-linejoin:miter;stroke-width:0.8;"/>
   </g>
  </g>
 </g>
 <defs>
  <clipPath id="p8f6d165a84">
   <rect height="259.432" width="346.094325" x="68.24" y="15.48"/>
  </clipPath>
 </defs>
</svg>
