<?xml version="1.0" encoding="UTF-8" standalone="no"?>
<!-- Created with Inkscape (http://www.inkscape.org/) -->

<svg
   xmlns:dc="http://purl.org/dc/elements/1.1/"
   xmlns:cc="http://creativecommons.org/ns#"
   xmlns:rdf="http://www.w3.org/1999/02/22-rdf-syntax-ns#"
   xmlns:svg="http://www.w3.org/2000/svg"
   xmlns="http://www.w3.org/2000/svg"
   xmlns:sodipodi="http://sodipodi.sourceforge.net/DTD/sodipodi-0.dtd"
   xmlns:inkscape="http://www.inkscape.org/namespaces/inkscape"
   width="600.29938"
   height="625.18884"
   id="svg5844"
   version="1.1"
   inkscape:version="0.48.5 r10040"
   sodipodi:docname="New document 20">
  <defs
     id="defs5846">
    <marker
       inkscape:stockid="Arrow1Mend"
       orient="auto"
       refY="0"
       refX="0"
       id="Arrow1Mend"
       style="overflow:visible">
      <path
         inkscape:connector-curvature="0"
         id="path6165"
         d="M 0,0 5,-5 -12.5,0 5,5 0,0 z"
         style="fill-rule:evenodd;stroke:#000000;stroke-width:1pt"
         transform="matrix(-0.4,0,0,-0.4,-4,0)" />
    </marker>
    <marker
       inkscape:stockid="Arrow1Mend"
       orient="auto"
       refY="0"
       refX="0"
       id="marker5806"
       style="overflow:visible">
      <path
         inkscape:connector-curvature="0"
         id="path5808"
         d="M 0,0 5,-5 -12.5,0 5,5 0,0 z"
         style="fill-rule:evenodd;stroke:#000000;stroke-width:1pt"
         transform="matrix(-0.4,0,0,-0.4,-4,0)" />
    </marker>
    <marker
       inkscape:stockid="Arrow1Mend"
       orient="auto"
       refY="0"
       refX="0"
       id="marker5810"
       style="overflow:visible">
      <path
         inkscape:connector-curvature="0"
         id="path5812"
         d="M 0,0 5,-5 -12.5,0 5,5 0,0 z"
         style="fill-rule:evenodd;stroke:#000000;stroke-width:1pt"
         transform="matrix(-0.4,0,0,-0.4,-4,0)" />
    </marker>
  </defs>
  <sodipodi:namedview
     id="base"
     pagecolor="#ffffff"
     bordercolor="#666666"
     borderopacity="1.0"
     inkscape:pageopacity="0.0"
     inkscape:pageshadow="2"
     inkscape:zoom="0.35"
     inkscape:cx="300.1497"
     inkscape:cy="312.59686"
     inkscape:document-units="px"
     inkscape:current-layer="layer1"
     showgrid="false"
     units="in"
     fit-margin-top="0.5"
     fit-margin-left="0.5"
     fit-margin-bottom="0.5"
     fit-margin-right="0.5"
     inkscape:window-width="459"
     inkscape:window-height="409"
     inkscape:window-x="1929"
     inkscape:window-y="232"
     inkscape:window-maximized="0" />
  <metadata
     id="metadata5849">
    <rdf:RDF>
      <cc:Work
         rdf:about="">
        <dc:format>image/svg+xml</dc:format>
        <dc:type
           rdf:resource="http://purl.org/dc/dcmitype/StillImage" />
        <dc:title></dc:title>
      </cc:Work>
    </rdf:RDF>
  </metadata>
  <g
     inkscape:label="Layer 1"
     inkscape:groupmode="layer"
     id="layer1"
     transform="translate(-74.850304,-219.76776)">
    <path
       sodipodi:type="arc"
       style="fill:#000000;fill-opacity:1"
       id="path3763"
       sodipodi:cx="416.18286"
       sodipodi:cy="321.01175"
       sodipodi:rx="66.670067"
       sodipodi:ry="66.670067"
       d="m 482.85293,321.01175 c 0,36.82086 -29.84921,66.67007 -66.67007,66.67007 -36.82086,0 -66.67007,-29.84921 -66.67007,-66.67007 0,-36.82086 29.84921,-66.67007 66.67007,-66.67007 36.82086,0 66.67007,29.84921 66.67007,66.67007 z"
       transform="matrix(0.68939393,0,0,0.68939393,-93.150099,137.2164)" />
    <path
       sodipodi:type="arc"
       style="fill:#000000;fill-opacity:1"
       id="path3763-8"
       sodipodi:cx="416.18286"
       sodipodi:cy="321.01175"
       sodipodi:rx="66.670067"
       sodipodi:ry="66.670067"
       d="m 482.85293,321.01175 c 0,36.82086 -29.84921,66.67007 -66.67007,66.67007 -36.82086,0 -66.67007,-29.84921 -66.67007,-66.67007 0,-36.82086 29.84921,-66.67007 66.67007,-66.67007 36.82086,0 66.67007,29.84921 66.67007,66.67007 z"
       transform="matrix(0.68939393,0,0,0.68939393,206.86522,136.71132)" />
    <path
       sodipodi:type="arc"
       style="fill:#000000;fill-opacity:1"
       id="path3763-7"
       sodipodi:cx="416.18286"
       sodipodi:cy="321.01175"
       sodipodi:rx="66.670067"
       sodipodi:ry="66.670067"
       d="m 482.85293,321.01175 c 0,36.82086 -29.84921,66.67007 -66.67007,66.67007 -36.82086,0 -66.67007,-29.84921 -66.67007,-66.67007 0,-36.82086 29.84921,-66.67007 66.67007,-66.67007 36.82086,0 66.67007,29.84921 66.67007,66.67007 z"
       transform="matrix(0.68939393,0,0,0.68939393,-93.150099,435.71648)" />
    <path
       sodipodi:type="arc"
       style="fill:#000000;fill-opacity:1"
       id="path3763-8-0"
       sodipodi:cx="416.18286"
       sodipodi:cy="321.01175"
       sodipodi:rx="66.670067"
       sodipodi:ry="66.670067"
       d="m 482.85293,321.01175 c 0,36.82086 -29.84921,66.67007 -66.67007,66.67007 -36.82086,0 -66.67007,-29.84921 -66.67007,-66.67007 0,-36.82086 29.84921,-66.67007 66.67007,-66.67007 36.82086,0 66.67007,29.84921 66.67007,66.67007 z"
       transform="matrix(0.68939393,0,0,0.68939393,206.86522,435.2114)" />
    <path
       sodipodi:type="arc"
       style="fill:#ffffff;fill-opacity:1;stroke:#000000;stroke-opacity:1"
       id="path5305"
       sodipodi:cx="33.57143"
       sodipodi:cy="199.1479"
       sodipodi:rx="20.714285"
       sodipodi:ry="20.357143"
       d="m 54.285715,199.1479 c 0,11.24294 -9.274101,20.35715 -20.714285,20.35715 -11.440183,0 -20.714285,-9.11421 -20.714285,-20.35715 0,-11.24294 9.274102,-20.35714 20.714285,-20.35714 11.440184,0 20.714285,9.1142 20.714285,20.35714 z"
       transform="matrix(1.5108159,0,0,1.5108159,345.07412,101.58576)" />
    <path
       sodipodi:type="arc"
       style="fill:#ffffff;fill-opacity:1;stroke:#000000;stroke-opacity:1"
       id="path5305-7"
       sodipodi:cx="33.57143"
       sodipodi:cy="199.1479"
       sodipodi:rx="20.714285"
       sodipodi:ry="20.357143"
       d="m 54.285715,199.1479 c 0,11.24294 -9.274101,20.35715 -20.714285,20.35715 -11.440183,0 -20.714285,-9.11421 -20.714285,-20.35715 0,-11.24294 9.274102,-20.35714 20.714285,-20.35714 11.440184,0 20.714285,9.1142 20.714285,20.35714 z"
       transform="matrix(1.5108159,0,0,1.5108159,185.46992,254.11881)" />
    <path
       sodipodi:type="arc"
       style="fill:#ffffff;fill-opacity:1;stroke:#000000;stroke-opacity:1"
       id="path5305-4"
       sodipodi:cx="33.57143"
       sodipodi:cy="199.1479"
       sodipodi:rx="20.714285"
       sodipodi:ry="20.357143"
       d="m 54.285715,199.1479 c 0,11.24294 -9.274101,20.35715 -20.714285,20.35715 -11.440183,0 -20.714285,-9.11421 -20.714285,-20.35715 0,-11.24294 9.274102,-20.35714 20.714285,-20.35714 11.440184,0 20.714285,9.1142 20.714285,20.35714 z"
       transform="matrix(1.5108159,0,0,1.5108159,345.07412,403.62139)" />
    <path
       sodipodi:type="arc"
       style="fill:#ffffff;fill-opacity:1;stroke:#000000;stroke-opacity:1"
       id="path5305-3"
       sodipodi:cx="33.57143"
       sodipodi:cy="199.1479"
       sodipodi:rx="20.714285"
       sodipodi:ry="20.357143"
       d="m 54.285715,199.1479 c 0,11.24294 -9.274101,20.35715 -20.714285,20.35715 -11.440183,0 -20.714285,-9.11421 -20.714285,-20.35715 0,-11.24294 9.274102,-20.35714 20.714285,-20.35714 11.440184,0 20.714285,9.1142 20.714285,20.35714 z"
       transform="matrix(1.5108159,0,0,1.5108159,487.50562,254.11881)" />
    <path
       sodipodi:type="arc"
       style="fill:#ffffff;fill-opacity:1;stroke:#000000;stroke-opacity:1"
       id="path5305-3-2-1"
       sodipodi:cx="33.57143"
       sodipodi:cy="199.1479"
       sodipodi:rx="20.714285"
       sodipodi:ry="20.357143"
       d="m 54.285715,199.1479 c 0,11.24294 -9.274101,20.35715 -20.714285,20.35715 -11.440183,0 -20.714285,-9.11421 -20.714285,-20.35715 0,-11.24294 9.274102,-20.35714 20.714285,-20.35714 11.440184,0 20.714285,9.1142 20.714285,20.35714 z"
       transform="matrix(1.5108159,0,0,1.5108159,292.32412,203.32279)" />
    <path
       sodipodi:type="arc"
       style="fill:#ffffff;fill-opacity:1;fill-rule:evenodd;stroke:#000000;stroke-opacity:1"
       id="path3861-5"
       sodipodi:cx="326.27927"
       sodipodi:cy="274.54474"
       sodipodi:rx="24.243662"
       sodipodi:ry="24.243662"
       d="m 350.52293,274.54474 c 0,13.3894 -10.85426,24.24366 -24.24366,24.24366 -13.38941,0 -24.24367,-10.85426 -24.24367,-24.24366 0,-13.38941 10.85426,-24.24366 24.24367,-24.24366 13.3894,0 24.24366,10.85425 24.24366,24.24366 z"
       transform="translate(69.515079,281.08244)" />
    <path
       style="fill:none;stroke:#000000;stroke-width:1.01118517px;stroke-linecap:butt;stroke-linejoin:miter;stroke-opacity:1"
       d="m 285.92822,462.05499 -92.1588,-101.99412 300.7819,-1.03024 91.1461,103.95415 z"
       id="path5536"
       inkscape:connector-curvature="0"
       sodipodi:nodetypes="ccccc" />
    <path
       style="fill:none;stroke:#000000;stroke-width:1px;stroke-linecap:butt;stroke-linejoin:miter;stroke-opacity:1"
       d="m 194.77392,361.04534 0,297.99499 88.8935,98.99498 0,-299.00518"
       id="path5538"
       inkscape:connector-curvature="0" />
    <path
       style="fill:none;stroke:#000000;stroke-width:1px;stroke-linecap:butt;stroke-linejoin:miter;stroke-opacity:1"
       d="m 283.66742,758.03531 301.0254,-1.0102 1.0102,-296.98483"
       id="path5540"
       inkscape:connector-curvature="0" />
    <path
       style="fill:none;stroke:#000000;stroke-width:1px;stroke-linecap:butt;stroke-linejoin:miter;stroke-opacity:1"
       d="m 493.77912,359.02503 0,300.0153 88.8934,97.98478"
       id="path5542"
       inkscape:connector-curvature="0" />
    <path
       style="fill:none;stroke:#000000;stroke-width:1px;stroke-linecap:butt;stroke-linejoin:miter;stroke-opacity:1"
       d="m 193.76382,660.05049 297.995,0"
       id="path5544"
       inkscape:connector-curvature="0" />
    <path
       sodipodi:type="arc"
       style="fill:#000000;fill-opacity:1"
       id="path3763-0"
       sodipodi:cx="416.18286"
       sodipodi:cy="321.01175"
       sodipodi:rx="66.670067"
       sodipodi:ry="66.670067"
       d="m 482.85293,321.01175 c 0,36.82086 -29.84921,66.67007 -66.67007,66.67007 -36.82086,0 -66.67007,-29.84921 -66.67007,-66.67007 0,-36.82086 29.84921,-66.67007 66.67007,-66.67007 36.82086,0 66.67007,29.84921 66.67007,66.67007 z"
       transform="matrix(0.68939393,0,0,0.68939393,-2.7414489,234.19105)" />
    <path
       sodipodi:type="arc"
       style="fill:#000000;fill-opacity:1"
       id="path3763-8-00"
       sodipodi:cx="416.18286"
       sodipodi:cy="321.01175"
       sodipodi:rx="66.670067"
       sodipodi:ry="66.670067"
       d="m 482.85293,321.01175 c 0,36.82086 -29.84921,66.67007 -66.67007,66.67007 -36.82086,0 -66.67007,-29.84921 -66.67007,-66.67007 0,-36.82086 29.84921,-66.67007 66.67007,-66.67007 36.82086,0 66.67007,29.84921 66.67007,66.67007 z"
       transform="matrix(0.68939393,0,0,0.68939393,297.27382,233.68597)" />
    <path
       sodipodi:type="arc"
       style="fill:#000000;fill-opacity:1"
       id="path3763-7-8"
       sodipodi:cx="416.18286"
       sodipodi:cy="321.01175"
       sodipodi:rx="66.670067"
       sodipodi:ry="66.670067"
       d="m 482.85293,321.01175 c 0,36.82086 -29.84921,66.67007 -66.67007,66.67007 -36.82086,0 -66.67007,-29.84921 -66.67007,-66.67007 0,-36.82086 29.84921,-66.67007 66.67007,-66.67007 36.82086,0 66.67007,29.84921 66.67007,66.67007 z"
       transform="matrix(0.68939393,0,0,0.68939393,-2.7414489,532.69112)" />
    <path
       sodipodi:type="arc"
       style="fill:#000000;fill-opacity:1"
       id="path3763-8-0-7"
       sodipodi:cx="416.18286"
       sodipodi:cy="321.01175"
       sodipodi:rx="66.670067"
       sodipodi:ry="66.670067"
       d="m 482.85293,321.01175 c 0,36.82086 -29.84921,66.67007 -66.67007,66.67007 -36.82086,0 -66.67007,-29.84921 -66.67007,-66.67007 0,-36.82086 29.84921,-66.67007 66.67007,-66.67007 36.82086,0 66.67007,29.84921 66.67007,66.67007 z"
       transform="matrix(0.68939393,0,0,0.68939393,297.27382,532.18604)" />
    <path
       sodipodi:type="arc"
       style="fill:#000000;fill-opacity:0.45251399;fill-rule:evenodd;stroke:#000000;stroke-opacity:1"
       id="path3861"
       sodipodi:cx="326.27927"
       sodipodi:cy="274.54474"
       sodipodi:rx="24.243662"
       sodipodi:ry="24.243662"
       d="m 350.52293,274.54474 c 0,13.3894 -10.85426,24.24366 -24.24366,24.24366 -13.38941,0 -24.24367,-10.85426 -24.24367,-24.24366 0,-13.38941 10.85426,-24.24366 24.24367,-24.24366 13.3894,0 24.24366,10.85425 24.24366,24.24366 z"
       transform="translate(69.515079,280.44989)" />
    <path
       sodipodi:type="arc"
       style="fill:#ffffff;fill-opacity:1;stroke:#000000;stroke-opacity:1"
       id="path5305-3-2"
       sodipodi:cx="33.57143"
       sodipodi:cy="199.1479"
       sodipodi:rx="20.714285"
       sodipodi:ry="20.357143"
       d="m 54.285715,199.1479 c 0,11.24294 -9.274101,20.35715 -20.714285,20.35715 -11.440183,0 -20.714285,-9.11421 -20.714285,-20.35715 0,-11.24294 9.274102,-20.35714 20.714285,-20.35714 11.440184,0 20.714285,9.1142 20.714285,20.35714 z"
       transform="matrix(1.5108159,0,0,1.5108159,386.49032,301.59598)" />
    <text
       xml:space="preserve"
       style="font-size:40px;font-style:normal;font-weight:normal;line-height:125%;letter-spacing:0px;word-spacing:0px;fill:#000000;fill-opacity:1;stroke:none;font-family:Sans"
       x="411.35092"
       y="503.69028"
       id="text6140-5"
       sodipodi:linespacing="125%"><tspan
         sodipodi:role="line"
         x="411.35092"
         y="503.69028"
         id="tspan6144-8">Zr</tspan></text>
    <path
       style="fill:none;stroke:#000000;stroke-width:1px;stroke-linecap:butt;stroke-linejoin:miter;stroke-opacity:1;marker-end:url(#Arrow1Mend)"
       d="m 426.70792,510.11884 -14.6427,22.14286"
       id="path6150-6"
       inkscape:connector-curvature="0"
       sodipodi:nodetypes="cc" />
    <text
       xml:space="preserve"
       style="font-size:40px;font-style:normal;font-weight:normal;line-height:125%;letter-spacing:0px;word-spacing:0px;fill:#000000;fill-opacity:1;stroke:none;font-family:Sans"
       x="339.22678"
       y="300.59955"
       id="text6784-5"
       sodipodi:linespacing="125%"><tspan
         sodipodi:role="line"
         id="tspan6786-0"
         x="339.22678"
         y="300.59955">O</tspan></text>
    <path
       style="fill:none;stroke:#000000;stroke-width:1px;stroke-linecap:butt;stroke-linejoin:miter;stroke-opacity:1;marker-end:url(#Arrow1Mend)"
       d="m 359.81222,307.95161 20.161,60.51378"
       id="path6790-9"
       inkscape:connector-curvature="0"
       sodipodi:nodetypes="cc" />
    <text
       xml:space="preserve"
       style="font-size:40px;font-style:normal;font-weight:normal;line-height:125%;letter-spacing:0px;word-spacing:0px;fill:#000000;fill-opacity:1;stroke:none;font-family:Sans"
       x="116.56905"
       y="292.28729"
       id="text6596-9"
       sodipodi:linespacing="125%"><tspan
         sodipodi:role="line"
         id="tspan6598-8"
         x="116.56905"
         y="292.28729">Ba</tspan></text>
    <path
       style="fill:none;stroke:#000000;stroke-width:1px;stroke-linecap:butt;stroke-linejoin:miter;stroke-opacity:1;marker-end:url(#Arrow1Mend)"
       d="m 141.56907,302.28728 17.14286,18.57143"
       id="path6600-1"
       inkscape:connector-curvature="0" />
  </g>
</svg>
