<?xml version="1.0" encoding="UTF-8" standalone="no"?>
<!-- Created with Inkscape (http://www.inkscape.org/) -->

<svg
   xmlns:dc="http://purl.org/dc/elements/1.1/"
   xmlns:cc="http://creativecommons.org/ns#"
   xmlns:rdf="http://www.w3.org/1999/02/22-rdf-syntax-ns#"
   xmlns:svg="http://www.w3.org/2000/svg"
   xmlns="http://www.w3.org/2000/svg"
   xmlns:sodipodi="http://sodipodi.sourceforge.net/DTD/sodipodi-0.dtd"
   xmlns:inkscape="http://www.inkscape.org/namespaces/inkscape"
   width="1596.1755"
   height="483.03833"
   id="svg5844"
   version="1.1"
   inkscape:version="0.48.4 r9939"
   sodipodi:docname="protonHopping.svg">
  <defs
     id="defs5846">
    <marker
       inkscape:stockid="Arrow1Mend"
       orient="auto"
       refY="0"
       refX="0"
       id="Arrow1Mend"
       style="overflow:visible">
      <path
         inkscape:connector-curvature="0"
         id="path6165"
         d="M 0,0 5,-5 -12.5,0 5,5 0,0 z"
         style="fill-rule:evenodd;stroke:#000000;stroke-width:1pt"
         transform="matrix(-0.4,0,0,-0.4,-4,0)" />
    </marker>
    <marker
       inkscape:stockid="Arrow1Mend"
       orient="auto"
       refY="0"
       refX="0"
       id="marker5806"
       style="overflow:visible">
      <path
         inkscape:connector-curvature="0"
         id="path5808"
         d="M 0,0 5,-5 -12.5,0 5,5 0,0 z"
         style="fill-rule:evenodd;stroke:#000000;stroke-width:1pt"
         transform="matrix(-0.4,0,0,-0.4,-4,0)" />
    </marker>
    <marker
       inkscape:stockid="Arrow1Mend"
       orient="auto"
       refY="0"
       refX="0"
       id="marker5810"
       style="overflow:visible">
      <path
         inkscape:connector-curvature="0"
         id="path5812"
         d="M 0,0 5,-5 -12.5,0 5,5 0,0 z"
         style="fill-rule:evenodd;stroke:#000000;stroke-width:1pt"
         transform="matrix(-0.4,0,0,-0.4,-4,0)" />
    </marker>
    <marker
       inkscape:stockid="Arrow1Mend"
       orient="auto"
       refY="0"
       refX="0"
       id="Arrow1Mend-7"
       style="overflow:visible">
      <path
         inkscape:connector-curvature="0"
         id="path6165-5"
         d="M 0,0 5,-5 -12.5,0 5,5 0,0 z"
         style="fill-rule:evenodd;stroke:#000000;stroke-width:1pt"
         transform="matrix(-0.4,0,0,-0.4,-4,0)" />
    </marker>
    <marker
       inkscape:stockid="Arrow1Mend"
       orient="auto"
       refY="0"
       refX="0"
       id="marker3063"
       style="overflow:visible">
      <path
         inkscape:connector-curvature="0"
         id="path3065"
         d="M 0,0 5,-5 -12.5,0 5,5 0,0 z"
         style="fill-rule:evenodd;stroke:#000000;stroke-width:1pt"
         transform="matrix(-0.4,0,0,-0.4,-4,0)" />
    </marker>
    <marker
       inkscape:stockid="Arrow1Mend"
       orient="auto"
       refY="0"
       refX="0"
       id="Arrow1Mend-4"
       style="overflow:visible">
      <path
         inkscape:connector-curvature="0"
         id="path6165-0"
         d="M 0,0 5,-5 -12.5,0 5,5 0,0 z"
         style="fill-rule:evenodd;stroke:#000000;stroke-width:1pt"
         transform="matrix(-0.4,0,0,-0.4,-4,0)" />
    </marker>
    <marker
       inkscape:stockid="Arrow1Mend"
       orient="auto"
       refY="0"
       refX="0"
       id="marker3202"
       style="overflow:visible">
      <path
         inkscape:connector-curvature="0"
         id="path3204"
         d="M 0,0 5,-5 -12.5,0 5,5 0,0 z"
         style="fill-rule:evenodd;stroke:#000000;stroke-width:1pt"
         transform="matrix(-0.4,0,0,-0.4,-4,0)" />
    </marker>
    <marker
       inkscape:stockid="Arrow1Mend"
       orient="auto"
       refY="0"
       refX="0"
       id="Arrow1Mend-79"
       style="overflow:visible">
      <path
         inkscape:connector-curvature="0"
         id="path6165-04"
         d="M 0,0 5,-5 -12.5,0 5,5 0,0 z"
         style="fill-rule:evenodd;stroke:#000000;stroke-width:1pt"
         transform="matrix(-0.4,0,0,-0.4,-4,0)" />
    </marker>
    <marker
       inkscape:stockid="Arrow1Mend"
       orient="auto"
       refY="0"
       refX="0"
       id="Arrow1Mend-1"
       style="overflow:visible">
      <path
         inkscape:connector-curvature="0"
         id="path6165-4"
         d="M 0,0 5,-5 -12.5,0 5,5 0,0 z"
         style="fill-rule:evenodd;stroke:#000000;stroke-width:1pt"
         transform="matrix(-0.4,0,0,-0.4,-4,0)" />
    </marker>
    <marker
       inkscape:stockid="Arrow1Mend"
       orient="auto"
       refY="0"
       refX="0"
       id="marker4153"
       style="overflow:visible">
      <path
         inkscape:connector-curvature="0"
         id="path4155"
         d="M 0,0 5,-5 -12.5,0 5,5 0,0 z"
         style="fill-rule:evenodd;stroke:#000000;stroke-width:1pt"
         transform="matrix(-0.4,0,0,-0.4,-4,0)" />
    </marker>
    <marker
       inkscape:stockid="Arrow1Mend"
       orient="auto"
       refY="0"
       refX="0"
       id="marker4157"
       style="overflow:visible">
      <path
         inkscape:connector-curvature="0"
         id="path4159"
         d="M 0,0 5,-5 -12.5,0 5,5 0,0 z"
         style="fill-rule:evenodd;stroke:#000000;stroke-width:1pt"
         transform="matrix(-0.4,0,0,-0.4,-4,0)" />
    </marker>
    <marker
       inkscape:stockid="Arrow1Mend"
       orient="auto"
       refY="0"
       refX="0"
       id="Arrow1Mend-13"
       style="overflow:visible">
      <path
         inkscape:connector-curvature="0"
         id="path6165-2"
         d="M 0,0 5,-5 -12.5,0 5,5 0,0 z"
         style="fill-rule:evenodd;stroke:#000000;stroke-width:1pt"
         transform="matrix(-0.4,0,0,-0.4,-4,0)" />
    </marker>
  </defs>
  <sodipodi:namedview
     id="base"
     pagecolor="#ffffff"
     bordercolor="#666666"
     borderopacity="1.0"
     inkscape:pageopacity="0.0"
     inkscape:pageshadow="2"
     inkscape:zoom="0.49497475"
     inkscape:cx="924.7575"
     inkscape:cy="228.57212"
     inkscape:document-units="px"
     inkscape:current-layer="layer1"
     showgrid="false"
     units="in"
     fit-margin-top="0.5"
     fit-margin-left="0.5"
     fit-margin-bottom="0.5"
     fit-margin-right="0.5"
     inkscape:window-width="1600"
     inkscape:window-height="878"
     inkscape:window-x="0"
     inkscape:window-y="0"
     inkscape:window-maximized="1"
     showguides="true"
     inkscape:guide-bbox="true">
    <sodipodi:guide
       orientation="0,1"
       position="612.85714,226.72706"
       id="guide4331" />
  </sodipodi:namedview>
  <metadata
     id="metadata5849">
    <rdf:RDF>
      <cc:Work
         rdf:about="">
        <dc:format>image/svg+xml</dc:format>
        <dc:type
           rdf:resource="http://purl.org/dc/dcmitype/StillImage" />
        <dc:title></dc:title>
      </cc:Work>
    </rdf:RDF>
  </metadata>
  <g
     inkscape:label="Layer 1"
     inkscape:groupmode="layer"
     id="layer1"
     transform="translate(-159.13929,-304.74589)">
    <path
       sodipodi:type="arc"
       style="fill:#ffffff;fill-opacity:1;stroke:#000000;stroke-opacity:1"
       id="path5305"
       sodipodi:cx="33.57143"
       sodipodi:cy="199.1479"
       sodipodi:rx="20.714285"
       sodipodi:ry="20.357143"
       d="m 54.285715,199.1479 c 0,11.24294 -9.274101,20.35715 -20.714285,20.35715 -11.440183,0 -20.714285,-9.11421 -20.714285,-20.35715 0,-11.24294 9.274102,-20.35714 20.714285,-20.35714 11.440184,0 20.714285,9.1142 20.714285,20.35714 z"
       transform="matrix(1.5108159,0,0,1.5108159,345.07412,101.58576)" />
    <path
       sodipodi:type="arc"
       style="fill:#ffffff;fill-opacity:1;stroke:#000000;stroke-opacity:1"
       id="path5305-7"
       sodipodi:cx="33.57143"
       sodipodi:cy="199.1479"
       sodipodi:rx="20.714285"
       sodipodi:ry="20.357143"
       d="m 54.285715,199.1479 c 0,11.24294 -9.274101,20.35715 -20.714285,20.35715 -11.440183,0 -20.714285,-9.11421 -20.714285,-20.35715 0,-11.24294 9.274102,-20.35714 20.714285,-20.35714 11.440184,0 20.714285,9.1142 20.714285,20.35714 z"
       transform="matrix(1.5108159,0,0,1.5108159,185.46992,254.11881)" />
    <path
       sodipodi:type="arc"
       style="fill:#ffffff;fill-opacity:1;stroke:#000000;stroke-opacity:1"
       id="path5305-4"
       sodipodi:cx="33.57143"
       sodipodi:cy="199.1479"
       sodipodi:rx="20.714285"
       sodipodi:ry="20.357143"
       d="m 54.285715,199.1479 c 0,11.24294 -9.274101,20.35715 -20.714285,20.35715 -11.440183,0 -20.714285,-9.11421 -20.714285,-20.35715 0,-11.24294 9.274102,-20.35714 20.714285,-20.35714 11.440184,0 20.714285,9.1142 20.714285,20.35714 z"
       transform="matrix(1.5108159,0,0,1.5108159,345.07412,403.62139)" />
    <path
       sodipodi:type="arc"
       style="fill:#ffffff;fill-opacity:1;stroke:#000000;stroke-opacity:1"
       id="path5305-3"
       sodipodi:cx="33.57143"
       sodipodi:cy="199.1479"
       sodipodi:rx="20.714285"
       sodipodi:ry="20.357143"
       d="m 54.285715,199.1479 c 0,11.24294 -9.274101,20.35715 -20.714285,20.35715 -11.440183,0 -20.714285,-9.11421 -20.714285,-20.35715 0,-11.24294 9.274102,-20.35714 20.714285,-20.35714 11.440184,0 20.714285,9.1142 20.714285,20.35714 z"
       transform="matrix(1.5108159,0,0,1.5108159,487.50562,254.11881)" />
    <path
       sodipodi:type="arc"
       style="fill:#ffffff;fill-opacity:1;stroke:#000000;stroke-opacity:1"
       id="path5305-3-2-1"
       sodipodi:cx="33.57143"
       sodipodi:cy="199.1479"
       sodipodi:rx="20.714285"
       sodipodi:ry="20.357143"
       d="m 54.285715,199.1479 c 0,11.24294 -9.274101,20.35715 -20.714285,20.35715 -11.440183,0 -20.714285,-9.11421 -20.714285,-20.35715 0,-11.24294 9.274102,-20.35714 20.714285,-20.35714 11.440184,0 20.714285,9.1142 20.714285,20.35714 z"
       transform="matrix(1.5108159,0,0,1.5108159,292.32412,203.32279)" />
    <path
       sodipodi:type="arc"
       style="fill:#ffffff;fill-opacity:1;fill-rule:evenodd;stroke:#000000;stroke-opacity:1"
       id="path3861-5"
       sodipodi:cx="326.27927"
       sodipodi:cy="274.54474"
       sodipodi:rx="24.243662"
       sodipodi:ry="24.243662"
       d="m 350.52293,274.54474 c 0,13.3894 -10.85426,24.24366 -24.24366,24.24366 -13.38941,0 -24.24367,-10.85426 -24.24367,-24.24366 0,-13.38941 10.85426,-24.24366 24.24367,-24.24366 13.3894,0 24.24366,10.85425 24.24366,24.24366 z"
       transform="translate(69.515079,281.08244)" />
    <path
       sodipodi:type="arc"
       style="fill:#000000;fill-opacity:0.45251399;fill-rule:evenodd;stroke:#000000;stroke-opacity:1"
       id="path3861"
       sodipodi:cx="326.27927"
       sodipodi:cy="274.54474"
       sodipodi:rx="24.243662"
       sodipodi:ry="24.243662"
       d="m 350.52293,274.54474 c 0,13.3894 -10.85426,24.24366 -24.24366,24.24366 -13.38941,0 -24.24367,-10.85426 -24.24367,-24.24366 0,-13.38941 10.85426,-24.24366 24.24367,-24.24366 13.3894,0 24.24366,10.85425 24.24366,24.24366 z"
       transform="translate(69.515079,280.44989)" />
    <path
       sodipodi:type="arc"
       style="fill:#ffffff;fill-opacity:1;stroke:#000000;stroke-opacity:1"
       id="path5305-3-2"
       sodipodi:cx="33.57143"
       sodipodi:cy="199.1479"
       sodipodi:rx="20.714285"
       sodipodi:ry="20.357143"
       d="m 54.285715,199.1479 c 0,11.24294 -9.274101,20.35715 -20.714285,20.35715 -11.440183,0 -20.714285,-9.11421 -20.714285,-20.35715 0,-11.24294 9.274102,-20.35714 20.714285,-20.35714 11.440184,0 20.714285,9.1142 20.714285,20.35714 z"
       transform="matrix(1.5108159,0,0,1.5108159,386.49032,301.59598)" />
    <text
       xml:space="preserve"
       style="font-size:40px;font-style:normal;font-weight:normal;line-height:125%;letter-spacing:0px;word-spacing:0px;fill:#000000;fill-opacity:1;stroke:none;font-family:Sans"
       x="234.51115"
       y="671.25488"
       id="text6140-5"
       sodipodi:linespacing="125%"><tspan
         sodipodi:role="line"
         x="234.51115"
         y="671.25488"
         id="tspan6144-8">Zr</tspan></text>
    <path
       style="fill:none;stroke:#000000;stroke-width:1px;stroke-linecap:butt;stroke-linejoin:miter;stroke-opacity:1;marker-end:url(#Arrow1Mend)"
       d="M 280.28476,642.7465 373.9858,573.0757"
       id="path6150-6"
       inkscape:connector-curvature="0"
       sodipodi:nodetypes="cc" />
    <text
       xml:space="preserve"
       style="font-size:40px;font-style:normal;font-weight:normal;line-height:125%;letter-spacing:0px;word-spacing:0px;fill:#000000;fill-opacity:1;stroke:none;font-family:Sans"
       x="271.54657"
       y="406.66556"
       id="text6784-5"
       sodipodi:linespacing="125%"><tspan
         sodipodi:role="line"
         id="tspan6786-0"
         x="271.54657"
         y="406.66556">O</tspan></text>
    <path
       style="fill:none;stroke:#000000;stroke-width:1px;stroke-linecap:butt;stroke-linejoin:miter;stroke-opacity:1;marker-end:url(#Arrow1Mend)"
       d="m 313.3452,390.78412 41.37421,0.91478"
       id="path6790-9"
       inkscape:connector-curvature="0"
       sodipodi:nodetypes="cc" />
    <path
       style="fill:none;stroke:#000000;stroke-width:1px;stroke-linecap:butt;stroke-linejoin:miter;stroke-opacity:1"
       d="m 173.74624,340.8309 158.08887,35.86042"
       id="path3122"
       inkscape:connector-curvature="0"
       sodipodi:nodetypes="cc"
       transform="translate(74.850304,219.76776)" />
    <path
       style="fill:none;stroke:#000000;stroke-width:1px;stroke-linecap:butt;stroke-linejoin:miter;stroke-opacity:1"
       d="m 391.43411,368.6101 64.64976,-29.29443"
       id="path3124"
       inkscape:connector-curvature="0"
       transform="translate(74.850304,219.76776)" />
    <path
       style="fill:none;stroke:#000000;stroke-width:1px;stroke-linecap:butt;stroke-linejoin:miter;stroke-opacity:1"
       d="m 189.90868,323.15323 70.2056,-34.34519"
       id="path3126"
       inkscape:connector-curvature="0"
       transform="translate(74.850304,219.76776)" />
    <path
       style="fill:none;stroke:#000000;stroke-width:1px;stroke-linecap:butt;stroke-linejoin:miter;stroke-opacity:1"
       d="m 284.86302,289.8182 147.98735,35.35534"
       id="path3128"
       inkscape:connector-curvature="0"
       sodipodi:nodetypes="cc"
       transform="translate(74.850304,219.76776)" />
    <path
       style="fill:none;stroke:#000000;stroke-width:1px;stroke-linecap:butt;stroke-linejoin:miter;stroke-opacity:1"
       d="m 273.75134,278.20144 33.33503,-69.19545"
       id="path3130"
       inkscape:connector-curvature="0"
       transform="translate(74.850304,219.76776)" />
    <path
       style="fill:none;stroke:#000000;stroke-width:1px;stroke-linecap:butt;stroke-linejoin:miter;stroke-opacity:1"
       d="m 322.23866,205.47046 34.34519,146.47212"
       id="path3132"
       inkscape:connector-curvature="0"
       transform="translate(74.850304,219.76776)" />
    <path
       style="fill:none;stroke:#000000;stroke-width:1px;stroke-linecap:butt;stroke-linejoin:miter;stroke-opacity:1"
       d="M 185.86807,315.57709 296.98485,201.93493"
       id="path3134"
       inkscape:connector-curvature="0"
       transform="translate(74.850304,219.76776)" />
    <path
       style="fill:none;stroke:#000000;stroke-width:1px;stroke-linecap:butt;stroke-linejoin:miter;stroke-opacity:1"
       d="m 343.45187,204.96538 100.0051,115.15739"
       id="path3136"
       inkscape:connector-curvature="0"
       transform="translate(74.850304,219.76776)" />
    <path
       style="fill:none;stroke:#000000;stroke-width:1px;stroke-linecap:butt;stroke-linejoin:miter;stroke-opacity:1"
       d="m 180.81731,359.01365 120.132,110.40249"
       id="path3138"
       inkscape:connector-curvature="0"
       sodipodi:nodetypes="cc"
       transform="translate(74.850304,219.76776)" />
    <path
       style="fill:none;stroke:#000000;stroke-width:1px;stroke-linecap:butt;stroke-linejoin:miter;stroke-opacity:1"
       d="m 274.25642,310.52632 35.86041,144.9569"
       id="path3140"
       inkscape:connector-curvature="0"
       transform="translate(74.850304,219.76776)" />
    <path
       style="fill:none;stroke:#000000;stroke-width:1px;stroke-linecap:butt;stroke-linejoin:miter;stroke-opacity:1"
       d="m 347.49248,409.0162 -20.70813,63.63961"
       id="path3144"
       inkscape:connector-curvature="0"
       transform="translate(74.850304,219.76776)" />
    <path
       style="fill:none;stroke:#000000;stroke-width:1px;stroke-linecap:butt;stroke-linejoin:miter;stroke-opacity:1"
       d="M 445.47727,360.52888 343.95694,464.06951"
       id="path3146"
       inkscape:connector-curvature="0"
       transform="translate(74.850304,219.76776)" />
    <path
       sodipodi:type="arc"
       style="fill:#ffffff;fill-opacity:1;stroke:#000000;stroke-opacity:1"
       id="path5305-1"
       sodipodi:cx="33.57143"
       sodipodi:cy="199.1479"
       sodipodi:rx="20.714285"
       sodipodi:ry="20.357143"
       d="m 54.285715,199.1479 c 0,11.24294 -9.274101,20.35715 -20.714285,20.35715 -11.440183,0 -20.714285,-9.11421 -20.714285,-20.35715 0,-11.24294 9.274102,-20.35714 20.714285,-20.35714 11.440184,0 20.714285,9.1142 20.714285,20.35714 z"
       transform="matrix(1.5108159,0,0,1.5108159,647.00211,101.63439)" />
    <path
       sodipodi:type="arc"
       style="fill:#ffffff;fill-opacity:1;stroke:#000000;stroke-opacity:1"
       id="path5305-4-2"
       sodipodi:cx="33.57143"
       sodipodi:cy="199.1479"
       sodipodi:rx="20.714285"
       sodipodi:ry="20.357143"
       d="m 54.285715,199.1479 c 0,11.24294 -9.274101,20.35715 -20.714285,20.35715 -11.440183,0 -20.714285,-9.11421 -20.714285,-20.35715 0,-11.24294 9.274102,-20.35714 20.714285,-20.35714 11.440184,0 20.714285,9.1142 20.714285,20.35714 z"
       transform="matrix(1.5108159,0,0,1.5108159,647.00211,403.67002)" />
    <path
       sodipodi:type="arc"
       style="fill:#ffffff;fill-opacity:1;stroke:#000000;stroke-opacity:1"
       id="path5305-3-1"
       sodipodi:cx="33.57143"
       sodipodi:cy="199.1479"
       sodipodi:rx="20.714285"
       sodipodi:ry="20.357143"
       d="m 54.285715,199.1479 c 0,11.24294 -9.274101,20.35715 -20.714285,20.35715 -11.440183,0 -20.714285,-9.11421 -20.714285,-20.35715 0,-11.24294 9.274102,-20.35714 20.714285,-20.35714 11.440184,0 20.714285,9.1142 20.714285,20.35714 z"
       transform="matrix(1.5108159,0,0,1.5108159,789.43361,254.16744)" />
    <path
       sodipodi:type="arc"
       style="fill:#ffffff;fill-opacity:1;stroke:#000000;stroke-opacity:1"
       id="path5305-3-2-1-5"
       sodipodi:cx="33.57143"
       sodipodi:cy="199.1479"
       sodipodi:rx="20.714285"
       sodipodi:ry="20.357143"
       d="m 54.285715,199.1479 c 0,11.24294 -9.274101,20.35715 -20.714285,20.35715 -11.440183,0 -20.714285,-9.11421 -20.714285,-20.35715 0,-11.24294 9.274102,-20.35714 20.714285,-20.35714 11.440184,0 20.714285,9.1142 20.714285,20.35714 z"
       transform="matrix(1.5108159,0,0,1.5108159,594.25211,203.37142)" />
    <path
       sodipodi:type="arc"
       style="fill:#ffffff;fill-opacity:1;fill-rule:evenodd;stroke:#000000;stroke-opacity:1"
       id="path3861-5-4"
       sodipodi:cx="326.27927"
       sodipodi:cy="274.54474"
       sodipodi:rx="24.243662"
       sodipodi:ry="24.243662"
       d="m 350.52293,274.54474 c 0,13.3894 -10.85426,24.24366 -24.24366,24.24366 -13.38941,0 -24.24367,-10.85426 -24.24367,-24.24366 0,-13.38941 10.85426,-24.24366 24.24367,-24.24366 13.3894,0 24.24366,10.85425 24.24366,24.24366 z"
       transform="translate(371.44307,281.13107)" />
    <path
       sodipodi:type="arc"
       style="fill:#000000;fill-opacity:0.45251399;fill-rule:evenodd;stroke:#000000;stroke-opacity:1"
       id="path3861-8"
       sodipodi:cx="326.27927"
       sodipodi:cy="274.54474"
       sodipodi:rx="24.243662"
       sodipodi:ry="24.243662"
       d="m 350.52293,274.54474 c 0,13.3894 -10.85426,24.24366 -24.24366,24.24366 -13.38941,0 -24.24367,-10.85426 -24.24367,-24.24366 0,-13.38941 10.85426,-24.24366 24.24367,-24.24366 13.3894,0 24.24366,10.85425 24.24366,24.24366 z"
       transform="translate(371.44307,280.49852)" />
    <path
       sodipodi:type="arc"
       style="fill:#ffffff;fill-opacity:1;stroke:#000000;stroke-opacity:1"
       id="path5305-3-2-4"
       sodipodi:cx="33.57143"
       sodipodi:cy="199.1479"
       sodipodi:rx="20.714285"
       sodipodi:ry="20.357143"
       d="m 54.285715,199.1479 c 0,11.24294 -9.274101,20.35715 -20.714285,20.35715 -11.440183,0 -20.714285,-9.11421 -20.714285,-20.35715 0,-11.24294 9.274102,-20.35714 20.714285,-20.35714 11.440184,0 20.714285,9.1142 20.714285,20.35714 z"
       transform="matrix(1.5108159,0,0,1.5108159,688.41831,301.64461)" />
    <path
       style="fill:none;stroke:#000000;stroke-width:1px;stroke-linecap:butt;stroke-linejoin:miter;stroke-opacity:1"
       d="M 550.52453,560.64729 708.6134,596.50771"
       id="path3122-9"
       inkscape:connector-curvature="0"
       sodipodi:nodetypes="cc" />
    <path
       style="fill:none;stroke:#000000;stroke-width:1px;stroke-linecap:butt;stroke-linejoin:miter;stroke-opacity:1"
       d="m 768.2124,588.42649 64.64976,-29.29443"
       id="path3124-7"
       inkscape:connector-curvature="0" />
    <path
       style="fill:none;stroke:#000000;stroke-width:1px;stroke-linecap:butt;stroke-linejoin:miter;stroke-opacity:1"
       d="m 566.68697,542.96962 70.2056,-34.34519"
       id="path3126-9"
       inkscape:connector-curvature="0" />
    <path
       style="fill:none;stroke:#000000;stroke-width:1px;stroke-linecap:butt;stroke-linejoin:miter;stroke-opacity:1"
       d="m 661.64131,509.63459 147.98735,35.35534"
       id="path3128-2"
       inkscape:connector-curvature="0"
       sodipodi:nodetypes="cc" />
    <path
       style="fill:none;stroke:#000000;stroke-width:1px;stroke-linecap:butt;stroke-linejoin:miter;stroke-opacity:1"
       d="m 650.52963,498.01783 33.33503,-69.19545"
       id="path3130-4"
       inkscape:connector-curvature="0" />
    <path
       style="fill:none;stroke:#000000;stroke-width:1px;stroke-linecap:butt;stroke-linejoin:miter;stroke-opacity:1"
       d="m 699.01695,425.28685 34.34519,146.47212"
       id="path3132-6"
       inkscape:connector-curvature="0" />
    <path
       style="fill:none;stroke:#000000;stroke-width:1px;stroke-linecap:butt;stroke-linejoin:miter;stroke-opacity:1"
       d="M 562.64636,535.39348 673.76314,421.75132"
       id="path3134-2"
       inkscape:connector-curvature="0" />
    <path
       style="fill:none;stroke:#000000;stroke-width:1px;stroke-linecap:butt;stroke-linejoin:miter;stroke-opacity:1"
       d="m 720.23016,424.78177 100.0051,115.15739"
       id="path3136-5"
       inkscape:connector-curvature="0" />
    <path
       style="fill:none;stroke:#000000;stroke-width:1px;stroke-linecap:butt;stroke-linejoin:miter;stroke-opacity:1"
       d="m 557.5956,578.83004 120.132,110.40249"
       id="path3138-9"
       inkscape:connector-curvature="0"
       sodipodi:nodetypes="cc" />
    <path
       style="fill:none;stroke:#000000;stroke-width:1px;stroke-linecap:butt;stroke-linejoin:miter;stroke-opacity:1"
       d="m 651.03471,530.34271 35.86041,144.9569"
       id="path3140-6"
       inkscape:connector-curvature="0" />
    <path
       style="fill:none;stroke:#000000;stroke-width:1px;stroke-linecap:butt;stroke-linejoin:miter;stroke-opacity:1"
       d="M 724.27077,628.83259 703.56264,692.4722"
       id="path3144-5"
       inkscape:connector-curvature="0" />
    <path
       style="fill:none;stroke:#000000;stroke-width:1px;stroke-linecap:butt;stroke-linejoin:miter;stroke-opacity:1"
       d="M 822.25556,580.34527 720.73523,683.8859"
       id="path3146-9"
       inkscape:connector-curvature="0" />
    <path
       style="fill:none;stroke:#000000;stroke-width:1px;stroke-linecap:butt;stroke-linejoin:miter;stroke-opacity:1"
       d="m 267.69042,76.299668 39.39595,1.010153"
       id="path3297"
       inkscape:connector-curvature="0"
       transform="translate(159.13929,325.95028)" />
    <path
       sodipodi:type="arc"
       style="fill:#000000;fill-opacity:1;stroke:#000000;stroke-opacity:1"
       id="path3299"
       sodipodi:cx="310.11682"
       sodipodi:cy="77.814896"
       sodipodi:rx="11.111678"
       sodipodi:ry="10.606602"
       d="m 321.2285,77.814896 c 0,5.857864 -4.97487,10.606601 -11.11168,10.606601 -6.13681,0 -11.11168,-4.748737 -11.11168,-10.606601 0,-5.857865 4.97487,-10.606602 11.11168,-10.606602 6.13681,0 11.11168,4.748737 11.11168,10.606602 z"
       transform="translate(159.13929,325.95028)" />
    <text
       xml:space="preserve"
       style="font-size:40px;font-style:normal;font-weight:normal;line-height:125%;letter-spacing:0px;word-spacing:0px;fill:#000000;fill-opacity:1;stroke:none;font-family:Sans"
       x="515.72314"
       y="382.04691"
       id="text4111"
       sodipodi:linespacing="125%"><tspan
         sodipodi:role="line"
         id="tspan4113"
         x="515.72314"
         y="382.04691">H<tspan
   style="font-size:65.00091553%;baseline-shift:super"
   id="tspan4115">+</tspan></tspan></text>
    <path
       style="fill:none;stroke:#000000;stroke-width:1px;stroke-linecap:butt;stroke-linejoin:miter;stroke-opacity:1;marker-end:url(#Arrow1Mend)"
       d="m 513.85406,374.19368 -29.33648,19.09753"
       id="path6790-9-0"
       inkscape:connector-curvature="0"
       sodipodi:nodetypes="cc" />
    <path
       sodipodi:type="arc"
       style="fill:#ffffff;fill-opacity:1;stroke:#000000;stroke-opacity:1"
       id="path5305-45"
       sodipodi:cx="33.57143"
       sodipodi:cy="199.1479"
       sodipodi:rx="20.714285"
       sodipodi:ry="20.357143"
       d="m 54.285715,199.1479 c 0,11.24294 -9.274101,20.35715 -20.714285,20.35715 -11.440183,0 -20.714285,-9.11421 -20.714285,-20.35715 0,-11.24294 9.274102,-20.35714 20.714285,-20.35714 11.440184,0 20.714285,9.1142 20.714285,20.35714 z"
       transform="matrix(1.5108159,0,0,1.5108159,1183.1843,108.31283)" />
    <path
       sodipodi:type="arc"
       style="fill:#ffffff;fill-opacity:1;stroke:#000000;stroke-opacity:1"
       id="path5305-7-1"
       sodipodi:cx="33.57143"
       sodipodi:cy="199.1479"
       sodipodi:rx="20.714285"
       sodipodi:ry="20.357143"
       d="m 54.285715,199.1479 c 0,11.24294 -9.274101,20.35715 -20.714285,20.35715 -11.440183,0 -20.714285,-9.11421 -20.714285,-20.35715 0,-11.24294 9.274102,-20.35714 20.714285,-20.35714 11.440184,0 20.714285,9.1142 20.714285,20.35714 z"
       transform="matrix(1.5108159,0,0,1.5108159,1023.5801,260.84588)" />
    <path
       sodipodi:type="arc"
       style="fill:#ffffff;fill-opacity:1;stroke:#000000;stroke-opacity:1"
       id="path5305-4-8"
       sodipodi:cx="33.57143"
       sodipodi:cy="199.1479"
       sodipodi:rx="20.714285"
       sodipodi:ry="20.357143"
       d="m 54.285715,199.1479 c 0,11.24294 -9.274101,20.35715 -20.714285,20.35715 -11.440183,0 -20.714285,-9.11421 -20.714285,-20.35715 0,-11.24294 9.274102,-20.35714 20.714285,-20.35714 11.440184,0 20.714285,9.1142 20.714285,20.35714 z"
       transform="matrix(1.5108159,0,0,1.5108159,1183.1843,410.34846)" />
    <path
       sodipodi:type="arc"
       style="fill:#ffffff;fill-opacity:1;stroke:#000000;stroke-opacity:1"
       id="path5305-3-3"
       sodipodi:cx="33.57143"
       sodipodi:cy="199.1479"
       sodipodi:rx="20.714285"
       sodipodi:ry="20.357143"
       d="m 54.285715,199.1479 c 0,11.24294 -9.274101,20.35715 -20.714285,20.35715 -11.440183,0 -20.714285,-9.11421 -20.714285,-20.35715 0,-11.24294 9.274102,-20.35714 20.714285,-20.35714 11.440184,0 20.714285,9.1142 20.714285,20.35714 z"
       transform="matrix(1.5108159,0,0,1.5108159,1325.6157,260.84588)" />
    <path
       sodipodi:type="arc"
       style="fill:#ffffff;fill-opacity:1;stroke:#000000;stroke-opacity:1"
       id="path5305-3-2-1-59"
       sodipodi:cx="33.57143"
       sodipodi:cy="199.1479"
       sodipodi:rx="20.714285"
       sodipodi:ry="20.357143"
       d="m 54.285715,199.1479 c 0,11.24294 -9.274101,20.35715 -20.714285,20.35715 -11.440183,0 -20.714285,-9.11421 -20.714285,-20.35715 0,-11.24294 9.274102,-20.35714 20.714285,-20.35714 11.440184,0 20.714285,9.1142 20.714285,20.35714 z"
       transform="matrix(1.5108159,0,0,1.5108159,1130.4343,210.04986)" />
    <path
       sodipodi:type="arc"
       style="fill:#ffffff;fill-opacity:1;fill-rule:evenodd;stroke:#000000;stroke-opacity:1"
       id="path3861-5-8"
       sodipodi:cx="326.27927"
       sodipodi:cy="274.54474"
       sodipodi:rx="24.243662"
       sodipodi:ry="24.243662"
       d="m 350.52293,274.54474 c 0,13.3894 -10.85426,24.24366 -24.24366,24.24366 -13.38941,0 -24.24367,-10.85426 -24.24367,-24.24366 0,-13.38941 10.85426,-24.24366 24.24367,-24.24366 13.3894,0 24.24366,10.85425 24.24366,24.24366 z"
       transform="translate(907.62521,287.80951)" />
    <path
       sodipodi:type="arc"
       style="fill:#000000;fill-opacity:0.45251399;fill-rule:evenodd;stroke:#000000;stroke-opacity:1"
       id="path3861-53"
       sodipodi:cx="326.27927"
       sodipodi:cy="274.54474"
       sodipodi:rx="24.243662"
       sodipodi:ry="24.243662"
       d="m 350.52293,274.54474 c 0,13.3894 -10.85426,24.24366 -24.24366,24.24366 -13.38941,0 -24.24367,-10.85426 -24.24367,-24.24366 0,-13.38941 10.85426,-24.24366 24.24367,-24.24366 13.3894,0 24.24366,10.85425 24.24366,24.24366 z"
       transform="translate(907.62521,287.17696)" />
    <path
       sodipodi:type="arc"
       style="fill:#ffffff;fill-opacity:1;stroke:#000000;stroke-opacity:1"
       id="path5305-3-2-5"
       sodipodi:cx="33.57143"
       sodipodi:cy="199.1479"
       sodipodi:rx="20.714285"
       sodipodi:ry="20.357143"
       d="m 54.285715,199.1479 c 0,11.24294 -9.274101,20.35715 -20.714285,20.35715 -11.440183,0 -20.714285,-9.11421 -20.714285,-20.35715 0,-11.24294 9.274102,-20.35714 20.714285,-20.35714 11.440184,0 20.714285,9.1142 20.714285,20.35714 z"
       transform="matrix(1.5108159,0,0,1.5108159,1224.6005,308.32305)" />
    <path
       style="fill:none;stroke:#000000;stroke-width:1px;stroke-linecap:butt;stroke-linejoin:miter;stroke-opacity:1"
       d="m 1086.7067,567.32573 158.0888,35.86042"
       id="path3122-4"
       inkscape:connector-curvature="0"
       sodipodi:nodetypes="cc" />
    <path
       style="fill:none;stroke:#000000;stroke-width:1px;stroke-linecap:butt;stroke-linejoin:miter;stroke-opacity:1"
       d="m 1304.3945,595.10493 64.6498,-29.29443"
       id="path3124-0"
       inkscape:connector-curvature="0" />
    <path
       style="fill:none;stroke:#000000;stroke-width:1px;stroke-linecap:butt;stroke-linejoin:miter;stroke-opacity:1"
       d="m 1102.8691,549.64806 70.2056,-34.34519"
       id="path3126-6"
       inkscape:connector-curvature="0" />
    <path
       style="fill:none;stroke:#000000;stroke-width:1px;stroke-linecap:butt;stroke-linejoin:miter;stroke-opacity:1"
       d="m 1197.8235,516.31303 147.9873,35.35534"
       id="path3128-3"
       inkscape:connector-curvature="0"
       sodipodi:nodetypes="cc" />
    <path
       style="fill:none;stroke:#000000;stroke-width:1px;stroke-linecap:butt;stroke-linejoin:miter;stroke-opacity:1"
       d="m 1186.7118,504.69627 33.335,-69.19546"
       id="path3130-9"
       inkscape:connector-curvature="0" />
    <path
       style="fill:none;stroke:#000000;stroke-width:1px;stroke-linecap:butt;stroke-linejoin:miter;stroke-opacity:1"
       d="m 1235.1991,431.96529 34.3452,146.47212"
       id="path3132-1"
       inkscape:connector-curvature="0" />
    <path
       style="fill:none;stroke:#000000;stroke-width:1px;stroke-linecap:butt;stroke-linejoin:miter;stroke-opacity:1"
       d="M 1098.8285,542.07192 1209.9453,428.42976"
       id="path3134-4"
       inkscape:connector-curvature="0" />
    <path
       style="fill:none;stroke:#000000;stroke-width:1px;stroke-linecap:butt;stroke-linejoin:miter;stroke-opacity:1"
       d="M 1256.4123,431.46021 1356.4174,546.6176"
       id="path3136-8"
       inkscape:connector-curvature="0" />
    <path
       style="fill:none;stroke:#000000;stroke-width:1px;stroke-linecap:butt;stroke-linejoin:miter;stroke-opacity:1"
       d="m 1093.7777,585.50848 120.132,110.40249"
       id="path3138-2"
       inkscape:connector-curvature="0"
       sodipodi:nodetypes="cc" />
    <path
       style="fill:none;stroke:#000000;stroke-width:1px;stroke-linecap:butt;stroke-linejoin:miter;stroke-opacity:1"
       d="m 1187.2169,537.02115 35.8604,144.9569"
       id="path3140-5"
       inkscape:connector-curvature="0" />
    <path
       style="fill:none;stroke:#000000;stroke-width:1px;stroke-linecap:butt;stroke-linejoin:miter;stroke-opacity:1"
       d="m 1260.4529,635.51103 -20.7081,63.63961"
       id="path3144-2"
       inkscape:connector-curvature="0" />
    <path
       style="fill:none;stroke:#000000;stroke-width:1px;stroke-linecap:butt;stroke-linejoin:miter;stroke-opacity:1"
       d="M 1358.4377,587.02371 1256.9174,690.56434"
       id="path3146-4"
       inkscape:connector-curvature="0" />
    <path
       sodipodi:type="arc"
       style="fill:#ffffff;fill-opacity:1;stroke:#000000;stroke-opacity:1"
       id="path5305-1-8"
       sodipodi:cx="33.57143"
       sodipodi:cy="199.1479"
       sodipodi:rx="20.714285"
       sodipodi:ry="20.357143"
       d="m 54.285715,199.1479 c 0,11.24294 -9.274101,20.35715 -20.714285,20.35715 -11.440183,0 -20.714285,-9.11421 -20.714285,-20.35715 0,-11.24294 9.274102,-20.35714 20.714285,-20.35714 11.440184,0 20.714285,9.1142 20.714285,20.35714 z"
       transform="matrix(1.5108159,0,0,1.5108159,1485.1122,108.36146)" />
    <path
       sodipodi:type="arc"
       style="fill:#ffffff;fill-opacity:1;stroke:#000000;stroke-opacity:1"
       id="path5305-4-2-6"
       sodipodi:cx="33.57143"
       sodipodi:cy="199.1479"
       sodipodi:rx="20.714285"
       sodipodi:ry="20.357143"
       d="m 54.285715,199.1479 c 0,11.24294 -9.274101,20.35715 -20.714285,20.35715 -11.440183,0 -20.714285,-9.11421 -20.714285,-20.35715 0,-11.24294 9.274102,-20.35714 20.714285,-20.35714 11.440184,0 20.714285,9.1142 20.714285,20.35714 z"
       transform="matrix(1.5108159,0,0,1.5108159,1485.1122,410.39709)" />
    <path
       sodipodi:type="arc"
       style="fill:#ffffff;fill-opacity:1;stroke:#000000;stroke-opacity:1"
       id="path5305-3-1-9"
       sodipodi:cx="33.57143"
       sodipodi:cy="199.1479"
       sodipodi:rx="20.714285"
       sodipodi:ry="20.357143"
       d="m 54.285715,199.1479 c 0,11.24294 -9.274101,20.35715 -20.714285,20.35715 -11.440183,0 -20.714285,-9.11421 -20.714285,-20.35715 0,-11.24294 9.274102,-20.35714 20.714285,-20.35714 11.440184,0 20.714285,9.1142 20.714285,20.35714 z"
       transform="matrix(1.5108159,0,0,1.5108159,1627.5437,260.8945)" />
    <path
       sodipodi:type="arc"
       style="fill:#ffffff;fill-opacity:1;stroke:#000000;stroke-opacity:1"
       id="path5305-3-2-1-5-5"
       sodipodi:cx="33.57143"
       sodipodi:cy="199.1479"
       sodipodi:rx="20.714285"
       sodipodi:ry="20.357143"
       d="m 54.285715,199.1479 c 0,11.24294 -9.274101,20.35715 -20.714285,20.35715 -11.440183,0 -20.714285,-9.11421 -20.714285,-20.35715 0,-11.24294 9.274102,-20.35714 20.714285,-20.35714 11.440184,0 20.714285,9.1142 20.714285,20.35714 z"
       transform="matrix(1.5108159,0,0,1.5108159,1432.3622,210.09849)" />
    <path
       sodipodi:type="arc"
       style="fill:#ffffff;fill-opacity:1;fill-rule:evenodd;stroke:#000000;stroke-opacity:1"
       id="path3861-5-4-9"
       sodipodi:cx="326.27927"
       sodipodi:cy="274.54474"
       sodipodi:rx="24.243662"
       sodipodi:ry="24.243662"
       d="m 350.52293,274.54474 c 0,13.3894 -10.85426,24.24366 -24.24366,24.24366 -13.38941,0 -24.24367,-10.85426 -24.24367,-24.24366 0,-13.38941 10.85426,-24.24366 24.24367,-24.24366 13.3894,0 24.24366,10.85425 24.24366,24.24366 z"
       transform="translate(1209.5532,287.85814)" />
    <path
       sodipodi:type="arc"
       style="fill:#000000;fill-opacity:0.45251399;fill-rule:evenodd;stroke:#000000;stroke-opacity:1"
       id="path3861-8-7"
       sodipodi:cx="326.27927"
       sodipodi:cy="274.54474"
       sodipodi:rx="24.243662"
       sodipodi:ry="24.243662"
       d="m 350.52293,274.54474 c 0,13.3894 -10.85426,24.24366 -24.24366,24.24366 -13.38941,0 -24.24367,-10.85426 -24.24367,-24.24366 0,-13.38941 10.85426,-24.24366 24.24367,-24.24366 13.3894,0 24.24366,10.85425 24.24366,24.24366 z"
       transform="translate(1209.5532,287.22558)" />
    <path
       sodipodi:type="arc"
       style="fill:#ffffff;fill-opacity:1;stroke:#000000;stroke-opacity:1"
       id="path5305-3-2-4-0"
       sodipodi:cx="33.57143"
       sodipodi:cy="199.1479"
       sodipodi:rx="20.714285"
       sodipodi:ry="20.357143"
       d="m 54.285715,199.1479 c 0,11.24294 -9.274101,20.35715 -20.714285,20.35715 -11.440183,0 -20.714285,-9.11421 -20.714285,-20.35715 0,-11.24294 9.274102,-20.35714 20.714285,-20.35714 11.440184,0 20.714285,9.1142 20.714285,20.35714 z"
       transform="matrix(1.5108159,0,0,1.5108159,1526.5284,308.37168)" />
    <path
       style="fill:none;stroke:#000000;stroke-width:1px;stroke-linecap:butt;stroke-linejoin:miter;stroke-opacity:1"
       d="m 1388.6346,567.37436 158.0889,35.86042"
       id="path3122-9-4"
       inkscape:connector-curvature="0"
       sodipodi:nodetypes="cc" />
    <path
       style="fill:none;stroke:#000000;stroke-width:1px;stroke-linecap:butt;stroke-linejoin:miter;stroke-opacity:1"
       d="m 1606.3225,595.15356 64.6497,-29.29443"
       id="path3124-7-8"
       inkscape:connector-curvature="0" />
    <path
       style="fill:none;stroke:#000000;stroke-width:1px;stroke-linecap:butt;stroke-linejoin:miter;stroke-opacity:1"
       d="m 1404.7971,549.69669 70.2056,-34.34519"
       id="path3126-9-8"
       inkscape:connector-curvature="0" />
    <path
       style="fill:none;stroke:#000000;stroke-width:1px;stroke-linecap:butt;stroke-linejoin:miter;stroke-opacity:1"
       d="M 1499.7514,516.36166 1647.7387,551.717"
       id="path3128-2-2"
       inkscape:connector-curvature="0"
       sodipodi:nodetypes="cc" />
    <path
       style="fill:none;stroke:#000000;stroke-width:1px;stroke-linecap:butt;stroke-linejoin:miter;stroke-opacity:1"
       d="m 1488.6397,504.7449 33.335,-69.19546"
       id="path3130-4-1"
       inkscape:connector-curvature="0" />
    <path
       style="fill:none;stroke:#000000;stroke-width:1px;stroke-linecap:butt;stroke-linejoin:miter;stroke-opacity:1"
       d="m 1537.127,432.01392 34.3452,146.47212"
       id="path3132-6-5"
       inkscape:connector-curvature="0" />
    <path
       style="fill:none;stroke:#000000;stroke-width:1px;stroke-linecap:butt;stroke-linejoin:miter;stroke-opacity:1"
       d="M 1400.7564,542.12055 1511.8732,428.47839"
       id="path3134-2-9"
       inkscape:connector-curvature="0" />
    <path
       style="fill:none;stroke:#000000;stroke-width:1px;stroke-linecap:butt;stroke-linejoin:miter;stroke-opacity:1"
       d="m 1558.3402,431.50884 100.0051,115.15739"
       id="path3136-5-5"
       inkscape:connector-curvature="0" />
    <path
       style="fill:none;stroke:#000000;stroke-width:1px;stroke-linecap:butt;stroke-linejoin:miter;stroke-opacity:1"
       d="m 1395.7057,585.55711 120.132,110.40249"
       id="path3138-9-0"
       inkscape:connector-curvature="0"
       sodipodi:nodetypes="cc" />
    <path
       style="fill:none;stroke:#000000;stroke-width:1px;stroke-linecap:butt;stroke-linejoin:miter;stroke-opacity:1"
       d="m 1489.1448,537.06978 35.8604,144.9569"
       id="path3140-6-5"
       inkscape:connector-curvature="0" />
    <path
       style="fill:none;stroke:#000000;stroke-width:1px;stroke-linecap:butt;stroke-linejoin:miter;stroke-opacity:1"
       d="m 1562.3809,635.55966 -20.7082,63.63961"
       id="path3144-5-3"
       inkscape:connector-curvature="0" />
    <path
       style="fill:none;stroke:#000000;stroke-width:1px;stroke-linecap:butt;stroke-linejoin:miter;stroke-opacity:1"
       d="M 1660.3656,587.07234 1558.8453,690.61297"
       id="path3146-9-1"
       inkscape:connector-curvature="0" />
    <path
       style="fill:none;stroke:#000000;stroke-width:1px;stroke-linecap:butt;stroke-linejoin:miter;stroke-opacity:1"
       d="m 1376.111,500.84885 -0.3467,29.13832"
       id="path3297-1"
       inkscape:connector-curvature="0"
       sodipodi:nodetypes="cc" />
    <path
       transform="translate(1065.5757,412.33815)"
       sodipodi:type="arc"
       style="fill:#000000;fill-opacity:1;stroke:#000000;stroke-opacity:1"
       id="path3299-4"
       sodipodi:cx="310.11682"
       sodipodi:cy="77.814896"
       sodipodi:rx="11.111678"
       sodipodi:ry="10.606602"
       d="m 321.2285,77.814896 c 0,5.857864 -4.97487,10.606601 -11.11168,10.606601 -6.13681,0 -11.11168,-4.748737 -11.11168,-10.606601 0,-5.857865 4.97487,-10.606602 11.11168,-10.606602 6.13681,0 11.11168,4.748737 11.11168,10.606602 z" />
    <path
       style="fill:none;stroke:#000000;stroke-width:6;stroke-linecap:butt;stroke-linejoin:miter;stroke-miterlimit:4;stroke-opacity:1;stroke-dasharray:none;marker-end:url(#Arrow1Mend)"
       d="m 893.79159,561.05715 127.08851,0"
       id="path6790-9-8"
       inkscape:connector-curvature="0"
       sodipodi:nodetypes="cc" />
    <path
       style="fill:none;stroke:#000000;stroke-width:1;stroke-linecap:butt;stroke-linejoin:miter;stroke-miterlimit:4;stroke-opacity:1;stroke-dasharray:6, 6;stroke-dashoffset:2"
       d="M 313.65237,87.411346 371.73614,208.12458"
       id="path4359"
       inkscape:connector-curvature="0"
       transform="translate(159.13929,325.95028)" />
    <path
       style="fill:none;stroke:#000000;stroke-width:1;stroke-linecap:butt;stroke-linejoin:miter;stroke-miterlimit:4;stroke-opacity:1;stroke-dasharray:6, 6;stroke-dashoffset:2"
       d="m 1249.3464,419.67508 116.6727,65.15484"
       id="path4359-4"
       inkscape:connector-curvature="0"
       sodipodi:nodetypes="cc" />
  </g>
</svg>
